<?xml version="1.0" encoding="utf-8"?>
<!-- Generator: Adobe Illustrator 21.0.0, SVG Export Plug-In . SVG Version: 6.00 Build 0)  -->
<svg version="1.1" id="Layer_1" xmlns="http://www.w3.org/2000/svg" xmlns:xlink="http://www.w3.org/1999/xlink" x="0px" y="0px"
	 viewBox="0 0 1676 354" style="enable-background:new 0 0 1676 354;" xml:space="preserve">
<style type="text/css">
	.st0{fill:#32373C;}
</style>
<g>
	<g>
		<path class="st0" d="M794.1,203.7c-0.1,11.6-0.9,23.3,2.2,34.9c1.6,5.8,5.9,8.6,11.6,9.6c3.4,0.6,6.9,0.9,10.5,1.4
			c0,1.7,0,3.3,0,5.4c-24.5,0-49,0-73.9,0c-0.1-1.7-0.2-3.3-0.3-5.2c3.3-0.5,6.4-0.9,9.5-1.4c8.7-1.3,13-5.4,14.2-14.1
			c0.6-4.4,1-8.9,1-13.4c0.1-18.7,0.1-37.3,0-56c0-4.5-0.4-9-1.1-13.4c-1.3-8.5-5.4-12.2-14.2-13.4c-2.9-0.4-5.9-0.8-9-1.3
			c0-1.7,0-3.3,0-5.2c1.2-0.2,2.3-0.5,3.4-0.5c23.7,0.1,47.3,0,71,0.4c9.2,0.2,18,2.9,25.9,7.8c20.9,13.1,21.5,41.2,0.9,54.8
			c-4.8,3.1-10.5,4.8-15.8,7.1c-1.3,0.6-2.7,0.9-5,1.5c14.3,14.3,25.4,30.6,42.6,40.6c8.2,4.7,16.9,7.3,26.7,5.3
			c9.3-1.9,14.4-5.8,14.5-15.4c0.5-26.6,0.4-53.2,0-79.9c-0.1-9.6-5-13.8-14.6-15.3c-2.9-0.4-5.9-0.8-9-1.2c0-1.7,0-3.3,0-5.4
			c1.4-0.1,2.9-0.4,4.3-0.4c24.3,0.1,48.7-0.3,73,0.5c17.2,0.5,33.5,5.2,47,16.7c12.2,10.3,18.2,23.8,19.3,39.6
			c1.2,18.6-3.3,35.3-17.3,48.5c-11.2,10.6-24.9,15.7-39.9,17.6c-8.6,1.1-17.3,1.3-25.9,1.4c-32.6,0.2-65.3,0-98,0.1
			c-3.7,0-6-1.1-8.3-4.1c-11.7-15-23.7-29.7-35.4-44.6C801.5,203.3,798.7,202,794.1,203.7z M934.8,186.7c0,2,0,4,0,6
			c0.3,14,0.3,27.9,1,41.9c0.3,6.4,4.1,9.4,10.5,9.6c4.5,0.1,9,0.2,13.5,0c17.8-0.8,31.8-11.3,37-28.3c4.2-13.8,4.4-27.8,1.2-41.8
			c-4-16.9-14.1-28.2-31.5-31.2c-8.6-1.5-17.5-1.1-26.3-1.7c-4-0.3-5.5,1-5.4,5.2C935,159.8,934.8,173.2,934.8,186.7z M794,192.1
			c5.7,0,10.5,0,15.3,0c14.9-0.1,24.2-8.2,25.4-23.1c1.1-12.8-5.5-25.8-20.7-27.3c-5.1-0.5-10.3-0.3-15.4-0.6
			c-3.4-0.2-4.8,1-4.7,4.5c0.2,7.5,0.1,15,0.1,22.5C794,175.8,794,183.6,794,192.1z"/>
		<path class="st0" d="M1232.6,204c0.8,10.8,1.1,22.1,2.5,33.3c0.8,6.3,5.7,9.9,12.1,10.9c3.3,0.5,6.6,0.9,10.2,1.3
			c0,1.7,0,3.4,0,5.5c-24.4,0-48.6,0-73.3,0c0-1.8,0-3.5,0-5.4c2.9-0.4,5.8-0.9,8.8-1.3c8.2-1.2,12.3-4.8,13.8-12.7
			c0.7-3.9,1.2-7.9,1.2-11.9c0.1-20.5,0.1-41,0-61.5c0-3.8-0.5-7.6-1.1-11.4c-1.4-7.9-5.6-11.7-13.7-12.8c-2.9-0.4-5.9-0.8-9.2-1.3
			c-0.1-1.6-0.2-3.2-0.3-5.2c1.5-0.2,2.8-0.5,4-0.5c23.3,0.1,46.6,0,70,0.4c8.9,0.1,17.4,2.7,25.1,7.1c22,12.6,23.1,41.7,1.8,55.6
			c-5.9,3.8-12.8,6-19.6,9c0-0.4-0.1,0.1,0,0.2c11.5,11.8,22.7,23.9,34.7,35.1c4.4,4.1,10.7,6.8,16.6,8.7
			c14.3,4.6,25.9-0.3,26.3-17.4c0.5-24.5,0.5-49,0-73.5c-0.3-13-4.9-17.1-17.9-18.9c-1.8-0.2-3.6-0.3-5.7-0.5
			c-0.1-1.8-0.2-3.4-0.3-5.5c36.6,0,73,0,109.9,0c0.8,11.1,1.6,22.1,2.4,33.2c-3.6,1.3-5.6,0.8-6.2-2.8c-0.2-1.1-0.7-2.2-0.9-3.3
			c-1.9-9.5-7.7-15.2-17.3-15.9c-12.4-1-24.8-1.2-37.7-1.8c0,14.9,0,28.8,0,43.3c8.4,0.4,17.2,1.2,25-3c2.8-1.5,4.6-5.7,5.9-9
			c1.1-2.8,1-6.2,1.4-9.6c1.7,0,3.4,0,5.5,0c0,18.1,0,36,0,54.5c-1.8,0.1-3.5,0.2-5.5,0.3c-0.4-3.3-0.9-6.2-1.1-9.1
			c-0.5-6.9-4.6-10.6-11-11.6c-6.5-0.9-13.2-1.2-20.6-1.9c0.6,13.7-1.5,26.6,1.8,39.4c1.7,6.3,6.4,9.6,12.3,9.9
			c9.8,0.5,19.6,0.2,29.4-0.3c11.4-0.6,17.9-6.9,19.8-18.1c0.6-3.1,1.6-6,6.2-4.1c-0.5,10.3-1,20.7-1.8,31.1c-0.1,1-1.6,2.2-2.7,2.6
			c-1.2,0.5-2.6,0.1-4,0.1c-47.5,0-95,0-142.4,0.1c-3.8,0-6.4-0.9-8.8-4.1c-11.6-14.9-23.5-29.4-35.1-44.2
			C1240.9,203.9,1238.4,201.8,1232.6,204z M1233.2,192.1c5.8,0,10.7,0,15.7,0c13.4-0.1,21.7-6.9,24.5-20.1
			c3.2-15.2-5.4-28.2-20.8-30.4c-5.4-0.8-10.9-0.6-16.4-0.4c-1.1,0-2.8,2.1-2.9,3.3c-0.3,4.8-0.2,9.6-0.2,14.4
			C1233.2,169.8,1233.2,180.6,1233.2,192.1z"/>
		<path class="st0" d="M364.2,100.1c0-2.7,0-4.6,0-6.7c27.5,0,54.8,0,82.3,0c0,2.1,0,4,0,6.1c-4,0.5-7.9,0.8-11.8,1.5
			c-9.5,1.7-13.9,7.5-11.3,16.7c4,14.4,8.7,28.5,13.3,42.7c4.7,14.8,9.7,29.6,15,46c1.1-3,1.8-4.7,2.4-6.5
			c11.6-34.3,23.2-68.5,34.6-102.8c0.9-2.7,1.8-4.1,5.1-4.1c3.3,0,3.6,2,4.4,4.3c11.2,34,22.4,68,33.7,102c0.6,1.9,1.3,3.7,2.3,6.3
			c0.8-1.7,1.4-2.6,1.8-3.5c8.5-25.1,17-50.3,25.3-75.5c1.5-4.5,2.4-9.3,2.8-14.1c0.4-5.8-2-9-7.7-10.7c-4.7-1.3-9.7-1.8-15-2.7
			c0-1.5,0-3.4,0-5.7c23,0,46,0,69.3,0c0,2.1,0,4,0,6c-3.9,0.4-7.7,0.9-11.5,1.3c-9.3,1-16,6-19.5,14.4c-5,12.1-9.6,24.4-13.7,36.8
			c-11.9,35.2-23.5,70.4-35.3,105.6c-0.6,1.7-2.4,2.9-3.7,4.3c-1.2-1.5-3-2.9-3.5-4.6c-11.8-35.9-23.5-71.9-35.2-107.8
			c-0.5-1.5-1.1-2.9-2.1-5.8c-2.3,6.9-4.3,12.4-6.1,18c-10.6,31.9-21.2,63.9-31.9,95.8c-0.6,1.7-2.4,2.9-3.6,4.4
			c-1.2-1.5-2.8-2.9-3.4-4.6c-14.4-43.6-28.6-87.3-42.9-130.9c-0.2-0.6-0.4-1.2-0.7-1.9C392.3,108.7,382.9,98.4,364.2,100.1z"/>
		<path class="st0" d="M1037.1,254.8c0-2.2,0-4,0-6c4.3-0.5,8.4-0.9,12.5-1.5c8-1.3,12.9-6.4,14.3-14c1.4-8.1,2.2-16.5,2.3-24.7
			c0.2-26.8,0-53.7-0.2-80.5c0-3.6-0.5-7.3-1.3-10.9c-2.6-11.7-8.5-16.5-21.1-17.2c-2-0.1-3.9,0-6.3,0c0-2.3,0-4.2,0-6.6
			c1.3-0.1,2.8-0.3,4.2-0.3c26,0,52-0.1,78,0.1c10.4,0.1,20.5,2.3,29.8,7c17.5,9,26.1,23.2,24.5,43c-1.5,18.5-12.5,29.8-28.9,36.7
			c-10.5,4.4-21.5,5.4-32.7,5.2c-6.3-0.1-12.6,0-19.6,0c0,6-0.2,11.5,0,16.9c0.5,9.9,0.4,20,2.1,29.8c1.9,11.4,8.5,15.9,19.9,16.3
			c1.8,0.1,3.7,0.2,5.5,0.3c0.5,0,0.9,0.3,1.6,0.6c0,1.8,0,3.5,0,5.7C1093.6,254.8,1065.5,254.8,1037.1,254.8z M1092.9,172.1
			c7.7,0,14.8,0.1,22,0c15.4-0.2,25.9-8.3,29.2-23.3c1.1-5.1,1.3-10.6,0.7-15.8c-1.3-11.7-6.9-20.9-18.5-25
			c-10.9-3.9-22.3-1.5-33.8-2c0,21.4,0,42,0,62.7C1092.6,169.6,1092.8,170.6,1092.9,172.1z"/>
		<path class="st0" d="M655.9,260.1c-21.4-0.7-44.3-11.2-59.4-35.3c-16.9-27-10.1-60.3,15.9-81.6c30.8-25.3,79.7-22.3,107.1,6.6
			c27,28.5,22.4,71.9-10.1,95.3C695.5,255.2,680.1,260.1,655.9,260.1z M615.4,196.5c0.4,10.2,2.7,19.8,7.4,28.7
			c15.4,29.5,57.5,32.3,76.4,5c14.2-20.6,14-55.1-0.5-75.5c-15.7-22-49.6-24.6-68.2-4.9C618.1,163,615.2,179.3,615.4,196.5z"/>
		<path class="st0" d="M1532,135.6c4.9-2,2.4-12.1,11.4-9.2c0,14.1,0,28.3,0,42.7c-4.4,1.2-6.7,0.7-7.9-4.7
			c-3.4-14.5-11.4-25.5-27.4-26.9c-5.6-0.5-12,0.9-17.1,3.4c-9.1,4.5-10.4,15.7-2.9,22.6c4.7,4.3,10.6,7.4,16.2,10.5
			c8.8,4.7,17.9,8.7,26.8,13.2c7.6,3.8,14.1,8.9,18.7,16.1c11.9,18.6,3.1,43.2-19,52.6c-17.7,7.5-34.7,5.2-50.7-5.2
			c-1.4-0.9-2.7-1.9-4.9-3.3c-2.2,4.3-4.2,8.3-6.4,12.6c-1.4,0-3.2,0-5.8,0c0-8.5,0-16.9,0-25.3c0-8.3,0-16.6,0-24.9
			c4.9-1.7,6.9-0.5,7.9,4.7c4.4,22.5,24.4,36.8,46.9,33.6c7.5-1.1,13.5-4.8,16.1-12.4c2.6-7.6,0-14-5.6-18.8
			c-4.3-3.8-9.3-7-14.4-9.7c-9.4-5-19.2-9.2-28.6-14.1c-10.3-5.4-17.9-13.3-21.2-24.7c-4.3-15.1,2.7-29.9,17.7-37.2
			c15.8-7.7,31.5-6.5,46.7,2.2C1529.8,134.1,1531,135,1532,135.6z"/>
		<path class="st0" d="M1646.7,136.1c2-3.7,3.4-7,5.5-9.8c0.6-0.8,3.1-0.1,5.2-0.1c0,14.4,0,28.6,0,43c-4.1,0.9-6.6,1.2-7.9-4.5
			c-3.3-14.5-11.3-25.1-27.3-27.3c-6.7-0.9-13,0.3-18.5,4.1c-7.5,5.2-8.7,15.2-2.2,21.6c3.6,3.6,8.1,6.4,12.6,8.8
			c10.6,5.6,21.5,10.5,32.1,16c10,5.1,17.7,12.5,21.4,23.3c5,14.8-1.8,31.7-16,41.1c-16.9,11.1-39.4,10.5-57.3-1.5
			c-1.5-1-3-2-5.1-3.5c-2.2,4.3-4.1,8.2-6.3,12.5c-1.4,0-3.3,0-5.5,0c0-16.8,0-33.4,0-50.4c1.9,0,3.8,0,6.1,0
			c1.1,3.7,2,7.7,3.4,11.5c6.9,19.1,25.6,30.3,45.4,27c7.3-1.2,13.1-4.9,15.7-12.3c2.6-7.5,0.2-14-5.5-18.9
			c-4.5-3.9-9.6-7.1-14.9-9.9c-9.2-4.9-18.8-9.1-28.1-13.9c-8.2-4.2-14.7-10.3-18.8-18.7c-7.5-15.3-3.1-32,11.3-41
			c16.4-10.2,33.3-9.6,50.1-0.3C1643.3,133.9,1644.7,134.8,1646.7,136.1z"/>
	</g>
	<g>
		<path class="st0" d="M31,174c0,57.4,33.4,107,81.7,130.5L43.6,115C35.5,133,31,153,31,174z"/>
		<path class="st0" d="M273.9,166.7c0-17.9-6.4-30.3-12-40c-7.4-11.9-14.2-22.1-14.2-34c0-13.3,10.1-25.7,24.4-25.7
			c0.6,0,1.3,0.1,1.9,0.1C248.2,43.4,213.8,29,176,29c-50.7,0-95.2,26-121.2,65.4c3.4,0.1,6.6,0.2,9.3,0.2c15.2,0,38.6-1.8,38.6-1.8
			c7.8-0.5,8.7,11,0.9,11.9c0,0-7.9,0.9-16.6,1.4L140,263.1l31.7-95.2L149.1,106c-7.8-0.5-15.2-1.4-15.2-1.4
			c-7.8-0.5-6.9-12.4,0.9-11.9c0,0,23.9,1.8,38.2,1.8c15.2,0,38.6-1.8,38.6-1.8c7.8-0.5,8.7,11,0.9,11.9c0,0-7.9,0.9-16.6,1.4
			l52.4,155.9l14.5-48.3C269.2,193.5,273.9,179.1,273.9,166.7z"/>
		<path class="st0" d="M178.6,186.7l-43.5,126.4c13,3.8,26.7,5.9,41,5.9c16.9,0,33.1-2.9,48.2-8.2c-0.4-0.6-0.7-1.3-1-2L178.6,186.7
			z"/>
		<path class="st0" d="M303.3,104.4c0.6,4.6,1,9.6,1,14.9c0,14.7-2.7,31.3-11,51.9l-44.3,128.1C292,274.2,321,227.5,321,174
			C321,148.8,314.6,125.1,303.3,104.4z"/>
		<path class="st0" d="M176,5C82.8,5,7,80.8,7,174c0,93.2,75.8,169,169,169c93.2,0,169-75.8,169-169C345.1,80.8,269.2,5,176,5z
			 M176,335.3c-88.9,0-161.3-72.4-161.3-161.3C14.8,85.1,87.1,12.7,176,12.7c88.9,0,161.3,72.3,161.3,161.3
			C337.3,262.9,265,335.3,176,335.3z"/>
	</g>
</g>
</svg>
