<?xml version="1.0" encoding="utf-8"?>
<!-- Generator: Adobe Illustrator 21.0.0, SVG Export Plug-In . SVG Version: 6.00 Build 0)  -->
<svg version="1.1" id="Layer_1" xmlns="http://www.w3.org/2000/svg" xmlns:xlink="http://www.w3.org/1999/xlink" x="0px" y="0px"
	 viewBox="0 0 207.7 42.8" style="enable-background:new 0 0 207.7 42.8;" xml:space="preserve">
<style type="text/css">
	.st0{display:none;}
	.st1{display:inline;fill:none;stroke:#E8E7E7;stroke-width:1.1277;stroke-miterlimit:10;}
	.st2{fill:#1A476F;}
	.st3{fill:#205B98;}
	.st4{fill:#2D72B8;}
	.st5{fill:#5294CF;}
	.st6{fill:#191919;}
</style>
<g id="Layer_2" class="st0">
	<rect x="-25.6" y="-23.5" class="st1" width="260" height="90"/>
</g>
<g id="Layer_1_1_">
	<g>
		<g>
			<polygon class="st2" points="2.4,32.5 6.5,37.3 6.5,5.7 2.4,10.5 			"/>
			<polygon class="st3" points="6.5,37.3 14.3,41.2 14.3,1.8 6.5,5.7 			"/>
			<polygon class="st4" points="37.3,10.5 33.3,5.7 33.3,37.3 37.3,32.5 			"/>
			<polygon class="st5" points="25.4,41.2 33.3,37.3 33.3,5.7 25.4,1.8 			"/>
			<rect x="14.3" y="1.8" class="st4" width="11.2" height="39.4"/>
		</g>
		<g>
			<path class="st6" d="M58.1,12.7l6.3,16h-1.7l-1.9-5h-7.3l-1.9,5H50l6.4-16C56.4,12.7,58.1,12.7,58.1,12.7z M60.2,22.5l-3.1-8.2
				L54,22.5H60.2z"/>
			<path class="st6" d="M66.8,17.2v1.9h0.1c0.4-0.7,0.8-1.2,1.5-1.7c0.6-0.4,1.4-0.6,2.3-0.6c0.7,0,1.5,0.2,2.1,0.6s1,0.9,1.2,1.7
				c0.3-0.7,0.8-1.3,1.5-1.7c0.7-0.3,1.4-0.6,2.1-0.6c2.6,0,3.8,1.3,3.8,4.1v7.9H80V21c0-1-0.2-1.7-0.6-2.1
				c-0.4-0.5-1.1-0.7-2.1-0.7c-0.6,0-1.1,0.1-1.5,0.3s-0.7,0.6-1,0.9c-0.2,0.4-0.4,0.8-0.5,1.3s-0.2,1-0.2,1.6v6.5h-1.4v-7.9
				c0-0.4,0-0.7-0.1-1.1c-0.1-0.3-0.2-0.7-0.4-0.9s-0.4-0.5-0.7-0.6c-0.3-0.2-0.7-0.2-1.2-0.2c-0.6,0-1.1,0.1-1.6,0.3
				c-0.4,0.2-0.8,0.5-1.1,0.9c-0.2,0.4-0.5,0.8-0.6,1.3c-0.2,0.5-0.2,1.1-0.2,1.7v6.4h-1.4V17.2H66.8z"/>
			<path class="st6" d="M84.4,18.9c0.2-0.5,0.6-0.9,1-1.2s0.9-0.6,1.4-0.7c0.6-0.2,1.2-0.2,1.8-0.2c0.5,0,1,0.1,1.5,0.2
				s1,0.2,1.3,0.6s0.7,0.7,1,1.2c0.2,0.5,0.4,1.1,0.4,1.9v6.1c0,0.6,0.2,0.8,0.8,0.8c0.2,0,0.3,0,0.4-0.1v1.2
				c-0.2,0-0.3,0.1-0.4,0.1c-0.2,0-0.2,0-0.5,0s-0.7-0.1-0.8-0.2c-0.2-0.1-0.4-0.2-0.5-0.4s-0.2-0.4-0.2-0.7c0-0.2-0.1-0.5-0.1-0.8
				h-0.1c-0.2,0.3-0.5,0.7-0.7,1s-0.6,0.5-0.9,0.7s-0.7,0.3-1.1,0.4S87.8,29,87.2,29c-0.5,0-1.1-0.1-1.5-0.2
				c-0.5-0.2-0.9-0.3-1.2-0.6c-0.3-0.2-0.7-0.7-0.8-1.1c-0.2-0.4-0.3-0.9-0.3-1.5c0-0.8,0.2-1.4,0.5-1.9c0.3-0.4,0.8-0.8,1.4-1.1
				c0.6-0.2,1.2-0.4,2-0.5c0.7-0.1,1.5-0.2,2.2-0.2c0.3,0,0.6-0.1,0.7-0.1c0.2-0.1,0.4-0.1,0.6-0.2s0.2-0.2,0.3-0.5
				c0.1-0.2,0.1-0.4,0.1-0.7c0-0.5-0.1-0.8-0.2-1.2c-0.2-0.3-0.4-0.6-0.7-0.7c-0.2-0.2-0.6-0.3-1-0.3c-0.3-0.1-0.7-0.1-1.2-0.1
				c-0.9,0-1.7,0.2-2.1,0.7c-0.6,0.4-0.8,1.1-0.9,2.1h-1.4C84,20,84.2,19.4,84.4,18.9z M91.5,22.4c-0.1,0.2-0.2,0.2-0.5,0.3
				c-0.2,0.1-0.5,0.2-0.7,0.2c-0.6,0.1-1.2,0.2-1.8,0.2c-0.7,0.1-1.2,0.2-1.7,0.3c-0.5,0.2-0.9,0.4-1.3,0.7
				c-0.3,0.3-0.5,0.7-0.5,1.3c0,0.3,0.1,0.7,0.2,0.9c0.2,0.2,0.3,0.5,0.6,0.7s0.5,0.3,0.8,0.5s0.7,0.2,1,0.2c0.5,0,1.1-0.1,1.6-0.2
				s0.9-0.4,1.3-0.7c0.3-0.3,0.7-0.7,0.9-1.2c0.2-0.4,0.3-1,0.3-1.5L91.5,22.4L91.5,22.4z"/>
			<path class="st6" d="M104.3,27.5v1.2h-9.6v-1.2l7.5-9.2h-7v-1.2h8.8v1l-7.6,9.4C96.4,27.5,104.3,27.5,104.3,27.5z"/>
			<path class="st6" d="M113.2,17.3c0.7,0.3,1.2,0.7,1.7,1.3s0.8,1.2,1.1,1.9c0.2,0.7,0.3,1.5,0.3,2.3s-0.1,1.7-0.3,2.3
				s-0.6,1.4-1.1,1.9c-0.5,0.6-1,1-1.7,1.3s-1.5,0.5-2.3,0.5c-0.9,0-1.7-0.2-2.3-0.5c-0.7-0.3-1.2-0.7-1.7-1.3s-0.8-1.2-1.1-1.9
				c-0.2-0.7-0.3-1.5-0.3-2.3s0.1-1.7,0.3-2.3c0.2-0.7,0.6-1.4,1.1-1.9c0.5-0.6,1-1,1.7-1.3s1.5-0.5,2.3-0.5
				C111.8,16.8,112.5,17,113.2,17.3z M109.2,18.4c-0.5,0.2-0.9,0.7-1.2,1.2c-0.3,0.5-0.6,1-0.7,1.6c-0.2,0.6-0.2,1.2-0.2,1.8
				c0,0.7,0.1,1.2,0.2,1.8c0.2,0.6,0.4,1.1,0.7,1.6c0.3,0.5,0.7,0.8,1.2,1.1c0.5,0.2,1.1,0.4,1.7,0.4s1.2-0.2,1.7-0.4
				s0.9-0.7,1.2-1.1c0.3-0.5,0.6-1,0.7-1.6s0.2-1.2,0.2-1.8c0-0.7-0.1-1.2-0.2-1.8c-0.2-0.6-0.4-1.1-0.7-1.6s-0.7-0.8-1.2-1.2
				c-0.5-0.2-1.1-0.4-1.7-0.4S109.6,18.2,109.2,18.4z"/>
			<path class="st6" d="M119.8,17.2v2h0.1c0.2-0.7,0.7-1.2,1.4-1.7c0.7-0.4,1.4-0.7,2.2-0.7s1.5,0.1,2,0.3c0.6,0.2,1,0.5,1.3,0.9
				s0.6,0.8,0.7,1.4c0.2,0.6,0.2,1.2,0.2,1.8v7.4h-1.3v-7.1c0-0.5-0.1-0.9-0.2-1.4s-0.2-0.8-0.5-1.1c-0.2-0.3-0.5-0.6-0.9-0.7
				c-0.4-0.2-0.8-0.2-1.4-0.2s-1.1,0.1-1.5,0.3s-0.8,0.5-1.2,0.8c-0.3,0.3-0.6,0.7-0.7,1.2c-0.2,0.5-0.2,1-0.2,1.6v6.7h-1.4V17.2
				H119.8z"/>
			<path class="st6" d="M144.8,12.7l6,16h-3.6l-1.2-3.6h-6l-1.2,3.6h-3.6l6-16C141.2,12.7,144.8,12.7,144.8,12.7z M144.9,22.5
				l-2-5.9h-0.1l-2.1,5.9H144.9z"/>
			<path class="st6" d="M159.6,28.7v-1.6h-0.1c-0.4,0.7-0.9,1.2-1.6,1.5c-0.7,0.3-1.3,0.4-2,0.4c-0.8,0-1.6-0.1-2.1-0.3
				c-0.6-0.2-1-0.6-1.3-0.9s-0.5-0.9-0.7-1.5s-0.2-1.2-0.2-2v-7.1h3.1v6.5c0,1,0.2,1.7,0.4,2.1c0.3,0.5,0.8,0.7,1.6,0.7
				s1.5-0.2,1.9-0.7s0.6-1.3,0.6-2.6v-6h3.1v11.6L159.6,28.7L159.6,28.7z"/>
			<path class="st6" d="M168,17.2v2.1h0.1c0.2-0.3,0.3-0.7,0.6-1s0.6-0.6,0.9-0.7c0.3-0.2,0.7-0.4,1.1-0.5s0.7-0.2,1.2-0.2
				c0.2,0,0.4,0,0.7,0.1v3c-0.2,0-0.3-0.1-0.5-0.1s-0.4,0-0.6,0c-0.6,0-1.1,0.1-1.5,0.3s-0.7,0.5-1,0.8c-0.2,0.3-0.4,0.7-0.5,1.2
				c-0.1,0.4-0.2,0.9-0.2,1.5v5.2h-3.1V17.3L168,17.2L168,17.2L168,17.2z"/>
			<path class="st6" d="M173.4,20.4c0.2-0.7,0.7-1.4,1.2-1.9s1.2-0.9,1.9-1.2s1.6-0.4,2.5-0.4s1.7,0.2,2.5,0.4
				c0.7,0.3,1.4,0.7,1.9,1.2s0.9,1.2,1.2,1.9c0.2,0.7,0.4,1.6,0.4,2.5s-0.2,1.7-0.4,2.5c-0.2,0.7-0.7,1.4-1.2,1.9s-1.2,0.9-1.9,1.2
				c-0.7,0.2-1.6,0.4-2.5,0.4s-1.7-0.2-2.5-0.4s-1.3-0.7-1.9-1.2c-0.5-0.5-0.9-1.2-1.2-1.9s-0.4-1.6-0.4-2.5S173,21.1,173.4,20.4z
				 M176.3,24.3c0.1,0.4,0.2,0.8,0.5,1.2c0.2,0.3,0.5,0.7,0.8,0.8c0.3,0.2,0.8,0.3,1.3,0.3s1-0.1,1.3-0.3s0.7-0.5,0.9-0.8
				s0.3-0.7,0.5-1.2c0.1-0.4,0.2-0.9,0.2-1.3s-0.1-0.9-0.2-1.3c-0.1-0.4-0.2-0.8-0.5-1.2c-0.2-0.3-0.5-0.7-0.9-0.8
				c-0.3-0.2-0.8-0.3-1.3-0.3s-1,0.1-1.3,0.3s-0.7,0.5-0.8,0.8c-0.2,0.3-0.3,0.7-0.5,1.2c-0.1,0.4-0.2,0.9-0.2,1.3
				S176.2,23.9,176.3,24.3z"/>
			<path class="st6" d="M189.9,17.2v2.1h0.1c0.2-0.3,0.3-0.7,0.6-1s0.6-0.6,0.9-0.7c0.3-0.2,0.7-0.4,1.1-0.5s0.7-0.2,1.2-0.2
				c0.2,0,0.4,0,0.7,0.1v3c-0.2,0-0.3-0.1-0.5-0.1s-0.4,0-0.6,0c-0.6,0-1.1,0.1-1.5,0.3s-0.7,0.5-1,0.8c-0.2,0.3-0.4,0.7-0.5,1.2
				c-0.1,0.4-0.2,0.9-0.2,1.5v5.2h-3.1V17.3L189.9,17.2L189.9,17.2L189.9,17.2z"/>
			<path class="st6" d="M195.5,20.7c0.1-0.7,0.2-1.3,0.6-1.8s0.7-0.9,1.2-1.2s1.1-0.5,1.7-0.7c0.7-0.2,1.2-0.2,1.9-0.2
				c0.6,0,1.2,0,1.7,0.1c0.6,0.1,1.2,0.2,1.7,0.5s0.9,0.6,1.2,1s0.5,1,0.5,1.7v6c0,0.5,0,1,0.1,1.5s0.2,0.8,0.3,1.1h-3.2
				c-0.1-0.2-0.1-0.3-0.2-0.6c0-0.2-0.1-0.4-0.1-0.6c-0.5,0.5-1.1,0.9-1.8,1.1s-1.4,0.3-2.1,0.3c-0.6,0-1.1-0.1-1.6-0.2
				s-0.9-0.3-1.2-0.7c-0.3-0.2-0.7-0.7-0.8-1.1s-0.3-0.9-0.3-1.6s0.1-1.2,0.3-1.7s0.5-0.7,0.9-1c0.3-0.2,0.7-0.4,1.2-0.6
				s0.9-0.2,1.4-0.3s0.9-0.2,1.4-0.2c0.5-0.1,0.9-0.1,1.2-0.2s0.7-0.2,0.8-0.4c0.2-0.2,0.3-0.4,0.3-0.7s-0.1-0.6-0.2-0.8
				c-0.1-0.2-0.2-0.3-0.4-0.5c-0.2-0.1-0.4-0.2-0.7-0.2c-0.2,0-0.5-0.1-0.8-0.1c-0.7,0-1.1,0.2-1.5,0.4c-0.3,0.2-0.6,0.7-0.7,1.3
				h-3.1v0.4C195.2,20.7,195.5,20.7,195.5,20.7z M202.8,23c-0.2,0.1-0.3,0.2-0.5,0.2c-0.2,0.1-0.4,0.1-0.7,0.2s-0.5,0.1-0.7,0.1
				s-0.5,0.1-0.7,0.1c-0.2,0.1-0.5,0.1-0.7,0.2s-0.4,0.2-0.6,0.3c-0.2,0.2-0.3,0.2-0.4,0.5c-0.1,0.2-0.2,0.4-0.2,0.7
				c0,0.2,0.1,0.5,0.2,0.7c0.1,0.2,0.2,0.3,0.4,0.5c0.2,0.1,0.4,0.2,0.7,0.2c0.2,0.1,0.5,0.1,0.7,0.1c0.7,0,1.1-0.1,1.5-0.3
				s0.6-0.5,0.7-0.7c0.2-0.2,0.2-0.6,0.3-0.9c0-0.3,0.1-0.5,0.1-0.7L202.8,23L202.8,23z"/>
		</g>
	</g>
</g>
</svg>
