<?xml version="1.0" encoding="utf-8"?>
<!-- Generator: Adobe Illustrator 21.0.0, SVG Export Plug-In . SVG Version: 6.00 Build 0)  -->
<svg version="1.1" id="Layer_1" xmlns="http://www.w3.org/2000/svg" xmlns:xlink="http://www.w3.org/1999/xlink" x="0px" y="0px"
	 viewBox="0 0 398.2 84.3" style="enable-background:new 0 0 398.2 84.3;" xml:space="preserve">
<style type="text/css">
	.st0{fill:#D33C43;}
	.st1{enable-background:new    ;}
	.st2{fill:#424244;}
</style>
<path class="st0" d="M1.8,50.4v16.4c0,9.1,23.5,16.4,52.5,16.4V66.8C25.3,66.8,1.8,59.4,1.8,50.4L1.8,50.4z M95.5,60.6L54.4,50.4
	v16.4L95.5,77c7.2-2.8,11.5-6.4,11.5-10.2V50.4C106.9,54.2,102.6,57.8,95.5,60.6z M54.4,34v16.4C25.4,50.4,1.8,43,1.8,34V17.6
	c0-9,23.5-16.4,52.5-16.4s52.5,7.4,52.5,16.4V34c0,3.9-4.3,7.4-11.5,10.2L54.4,34L54.4,34z"/>
<g class="st1">
	<path class="st2" d="M150.9,63.8c-6.1,0-11.1-2-15.3-6c-4.1-4-6.2-9.1-6.2-15.5c0-6.3,2.1-11.5,6.2-15.5c4.2-4.1,9.2-6.1,15.1-6.1
		c3,0,5.6,0.4,8,1.3s4.3,2,5.8,3.5c1.5,1.4,2.7,2.9,3.6,4.4c0.9,1.5,1.5,3.1,1.9,4.7l-8.7,2.7c-0.2-0.8-0.5-1.6-0.9-2.4
		c-0.4-0.8-1-1.6-1.8-2.4c-0.8-0.8-1.8-1.5-3.2-2s-2.9-0.8-4.6-0.8c-3.1,0-5.8,1.1-8.2,3.3s-3.6,5.3-3.6,9.3c0,3.7,1.2,6.7,3.5,8.9
		s5.1,3.3,8.4,3.3c3.2,0,5.7-0.8,7.4-2.4c1.7-1.6,2.9-3.4,3.4-5.4l8.8,2.5c-0.4,1.6-1,3.2-1.9,4.7c-0.9,1.6-2.1,3.1-3.6,4.6
		s-3.5,2.7-5.9,3.7C156.6,63.3,153.9,63.8,150.9,63.8z"/>
	<path class="st2" d="M173.8,55c0-2.4,0.8-4.4,2.4-5.9c1.6-1.5,3.6-2.4,6.2-2.8l6.8-1c1.4-0.2,2.1-0.9,2.1-2c0-0.9-0.4-1.6-1.1-2.2
		c-0.8-0.6-1.8-0.9-3.1-0.9c-1.5,0-2.7,0.4-3.5,1.3c-0.9,0.8-1.4,1.8-1.4,3l-7.7-1.6c0.2-2.4,1.4-4.6,3.6-6.6c2.2-2,5.2-3,9.1-3
		c4.4,0,7.6,1,9.7,3.1c2.1,2.1,3.1,4.8,3.1,8v14.2c0,1.8,0.1,3.3,0.3,4.5h-8c-0.2-0.8-0.3-1.9-0.3-3.3c-1.7,2.7-4.4,4.1-8.2,4.1
		c-3.1,0-5.5-0.9-7.3-2.6C174.7,59.4,173.8,57.4,173.8,55z M186,57.4c1.5,0,2.8-0.4,3.8-1.3c1-0.9,1.5-2.4,1.5-4.4v-1.3l-5.5,0.9
		c-2.2,0.3-3.3,1.4-3.3,3.2c0,0.8,0.3,1.5,0.8,2.1C184,57.1,184.8,57.4,186,57.4z"/>
	<path class="st2" d="M236.5,34l-11.3,12.2L236.7,63h-10.8l-6.8-10.2l-2.9,3.1V63h-8.9V20.8h8.9v23L225,34H236.5z"/>
	<path class="st2" d="M258.6,52.5l7.4,2.1c-0.7,2.7-2.3,4.9-4.6,6.6s-5.2,2.6-8.7,2.6c-4.2,0-7.8-1.4-10.7-4.2s-4.4-6.5-4.4-11.2
		c0-4.5,1.4-8.2,4.3-11c2.9-2.8,6.2-4.3,10.2-4.3c4.5,0,8,1.3,10.6,3.9c2.6,2.6,3.9,6.3,3.9,10.9c0,1.5-0.1,2.4-0.2,2.7h-20.2
		c0.1,1.6,0.8,2.9,2,4c1.3,1.1,2.8,1.6,4.5,1.6C255.8,56.3,257.7,55,258.6,52.5z M246.4,45H258c-0.1-1.3-0.6-2.5-1.5-3.4
		c-1-1-2.4-1.5-4.3-1.5c-1.7,0-3.1,0.5-4.1,1.5C247.1,42.6,246.5,43.8,246.4,45z"/>
</g>
<g class="st1">
	<path class="st0" d="M302.6,48.1h-6.3V63H287V21.6h15.6c4.2,0,7.6,1.2,10.2,3.7s3.9,5.7,3.9,9.5c0,3.9-1.3,7.1-3.9,9.6
		S306.8,48.1,302.6,48.1z M296.3,40.2h5.4c1.7,0,3.2-0.5,4.3-1.4c1.1-1,1.6-2.2,1.6-3.8s-0.5-2.9-1.6-3.9c-1.1-1-2.5-1.4-4.3-1.4
		h-5.4V40.2z"/>
	<path class="st0" d="M357.4,62.9h-9.3V46.5h-16.5v16.4h-9.2V21.6h9.2v16.2h16.5V21.6h9.3V62.9z"/>
	<path class="st0" d="M381.9,48.1h-6.3V63h-9.2V21.6H382c4.2,0,7.6,1.2,10.2,3.7s3.9,5.7,3.9,9.5c0,3.9-1.3,7.1-3.9,9.6
		C389.5,46.9,386.1,48.1,381.9,48.1z M375.6,40.2h5.4c1.7,0,3.2-0.5,4.3-1.4c1.1-1,1.6-2.2,1.6-3.8s-0.5-2.9-1.6-3.9
		c-1.1-1-2.5-1.4-4.3-1.4h-5.4V40.2z"/>
</g>
</svg>
