<?xml version="1.0" encoding="utf-8"?>
<!-- Generator: Adobe Illustrator 21.0.0, SVG Export Plug-In . SVG Version: 6.00 Build 0)  -->
<svg version="1.1" id="Layer_1" xmlns="http://www.w3.org/2000/svg" xmlns:xlink="http://www.w3.org/1999/xlink" x="0px" y="0px"
	 viewBox="0 0 3633.4 939.1" style="enable-background:new 0 0 3633.4 939.1;" xml:space="preserve">
<style type="text/css">
	.st0{fill:#E74430;}
</style>
<path class="st0" d="M792.7,922.9c-16.8-4.3-26.9-16.3-35.3-30.4c-22-37.2-44.5-74.1-65.9-111.6c-24.2-42.5-47.5-85.5-71.3-128.3
	c-1.1-1.9-2.3-3.8-3.6-6.1c-2.1,0.4-4,0.6-5.9,1c-86.7,21.9-173.5,43.8-260.2,65.7c-8.8,2.2-17.8,3.3-26.7,1.8
	c-12-2.1-22-8.2-29.3-18c-3.5-4.8-6.8-9.9-9.3-15.3c-42.8-92.4-85.7-184.8-128.3-277.3c-43-93.4-85.7-187-128.4-280.6
	c-4.2-9.2-6.7-19.3-10.1-28.9c-0.7-2.1-1.9-4-2.9-6c0-2,0-4,0-6c0.8-0.9,2-1.7,2.3-2.7c3.2-10.2,10.7-13.2,20.7-13.7
	c14.7-0.7,29.3-2.2,44-3.4c14.1-1.2,28.3-2.6,42.4-3.8c14.4-1.2,28.8-2.3,43.2-3.6c20.3-1.8,40.7-3.8,61-5.4
	c17.6-1.4,35.3-2.2,52.9-3.4c2.2-0.1,4.3-1,6.4-1.5c4.5,0,9,0,13.5,0c2.4,0.6,4.7,1.5,7.1,1.8c7.1,0.7,13,3.7,17.3,9.2
	c2.9,3.7,5.5,7.7,8,11.8c102.1,169.8,204.2,339.5,306.3,509.3c6,10,3.9,9.5,15.7,6.6c68.7-16.2,137.3-32.6,205.9-48.8
	c53.6-12.7,107.2-25.4,160.8-38.1c2.6-0.6,5.2-1.4,8.9-2.3c-2-3.2-3.4-5.7-5.1-8.1c-40.3-57.2-80.5-114.4-120.8-171.6
	c-1.4-2-3-4-4.2-6.2c-3.5-6.6-2.3-11.8,4.4-14.9c5.4-2.5,11.2-4.3,17-5.3c42.5-7.2,85.1-14.1,127.6-21.3c17.7-3,35.3-6.5,52.9-9.9
	c10.5-2,20-0.4,27.8,7.2c5,4.9,10,9.9,14.3,15.3c37.7,46.6,75.3,93.4,113,140c8.6,10.7,17.5,21.2,26.2,31.8c1.1,1.3,2.3,2.7,3.1,4.2
	c3.5,6.1,2.8,11.8-2.8,15.9c-3.7,2.7-8.1,5.1-12.6,6.3c-54.1,14.7-108.3,29.2-162.5,43.7c-2.6,0.7-5.1,1.5-8.8,2.6
	c2.2,3.3,3.8,5.7,5.5,8c36.3,48,72.8,96,108.9,144.2c15,20,29.3,40.4,44,60.7c0.7,1,1.4,2.1,2,3.2c3.8,6.9,3.1,11.8-3.8,16
	c-6.6,4-13.7,7.3-20.9,9.9c-49.8,18.4-99.7,36.7-149.7,54.6c-81.2,29.1-162.6,58-243.9,86.7c-13.4,4.7-27.2,8.3-40.7,12.5
	c-2.1,0.6-4.1,1.6-6.2,2.4C795.7,922.9,794.2,922.9,792.7,922.9z M287.2,82.3c-10.3,0.8-18,1.3-25.7,1.9
	c-15.2,1.2-30.4,2.4-45.5,3.6c-14.7,1.2-29.3,2.6-44,3.8c-21.7,1.7-43.3,3.3-65,5c-8.5,0.7-16.9,1.5-25.3,2.4
	c-4.7,0.5-5.9,1.7-5.1,6.2c0.8,4.3,2.4,8.6,4.3,12.6C139.1,238.4,197.2,359,255.6,479.4c26.1,53.7,52.7,107.1,79.2,160.6
	c1.3,2.7,3,5.2,4.6,7.7c2.5,3.8,6.1,4.9,10.4,4c6.3-1.2,12.7-2.3,19-3.8c35.7-8.2,71.4-16.4,107.1-24.8
	c35.9-8.5,71.7-17.2,107.6-25.9c7.8-1.9,9.3-5.2,6-12.4c-0.7-1.6-1.7-3.1-2.5-4.6c-8.5-14.7-16.9-29.4-25.4-44.1
	C476.4,389,391.1,241.8,306.1,94.4C301,85.5,296.2,78.7,287.2,82.3z M670,629.3c1.3,2.8,2,4.6,3,6.3
	C711.6,701.8,750.3,768,789,834.2c2.8,4.7,5.6,9.4,8.8,13.9c4.9,6.9,9.4,8.3,17.4,5.6c9.9-3.4,19.8-6.7,29.7-10.1
	c110.6-37.9,221.2-75.8,331.8-113.7c5.4-1.9,10.9-3.6,16.2-5.9c5.2-2.2,5.9-4.4,3.5-9.4c-1.3-2.7-3-5.2-4.8-7.6
	c-10.6-14.5-21.5-28.9-32.1-43.4c-31-42.6-62.1-85.2-92.8-128c-4-5.6-6.5-7.2-14.5-5.6c-1.5,0.3-2.9,0.9-4.3,1.2
	c-111.7,29-223.4,57.9-335.1,86.8C698.9,621.8,685,625.4,670,629.3z M1072.1,481.7c3.2-0.8,5.9-1.3,8.5-2
	c28.8-7.2,57.5-14.4,86.3-21.5c18.8-4.7,37.7-9.2,56.6-13.8c8.1-2,9.2-5.3,3.9-11.9c-5-6.2-10-12.4-14.9-18.7
	c-30.4-39-60.8-78-91-117.1c-6.2-8.1-7.7-10.4-21.1-7.8c-31.8,6.2-63.5,12.7-95.3,18.8c-14.9,2.9-30,5-45,7.5
	c-5.1,0.8-6.4,3-4.4,7.8c1.1,2.7,2.8,5.3,4.6,7.7c35.7,48.4,71.5,96.8,107.3,145.2C1068.8,477.7,1070.3,479.4,1072.1,481.7z"/>
<g>
	<g>
		<path class="st0" d="M3621.3,702.5c-4.9,5-10.9,5.6-17.6,5.5c-24.5-0.3-49-0.1-73.5-0.2c-2.7,0-5.5-0.1-8.2-0.7
			c-10.7-2.4-16.8-9.6-17.3-20.6c-0.3-6.2-0.1-12.5-0.1-18.7c0-116.7,0-233.4,0-350c0-3.2,0-6.4,0-10.3c-3.6-0.3-6.6-0.7-9.5-0.7
			c-14-0.1-28-0.4-42,0.1c-7.6,0.2-12.8-4.2-12.2-12.3c0.5-6.7,0-13.5,0.2-20.2c0.2-6.9,3.9-10.7,10.7-10.7
			c25.5-0.1,51-0.5,76.5,0.2c13,0.3,22.6,8.5,22.5,22c0,3.2,0,6.5,0,9.7c0,118.9,0,237.9,0,356.8c0,3.7,0.3,7.3,0.5,11.6
			c3.5,0.2,6.5,0.6,9.4,0.6c15.2,0.1,30.5,0.3,45.7-0.1c6.2-0.1,11.2,1.2,14.8,6.5C3621.3,681.5,3621.3,692,3621.3,702.5z"/>
		<path class="st0" d="M2722.6,661.5c-2.3,2.6-4.6,5.1-6.8,7.7c-20.4,23.8-46,38.7-76.5,45.6c-13.4,3-26.6,3-40.1,0.2
			c-15.5-3.3-30.2-8.4-43.7-16.8c-22.7-14.2-36.8-34-40.1-61c-4.5-36.6,8.4-70.2,40.4-90.4c10.9-6.9,22.4-12.2,35-14.8
			c12.2-2.5,24.6-4.2,36.9-5.9c18-2.5,36.1-4.6,54.2-6.8c2-0.2,4-0.7,5.9-0.7c11.7,0.1,20.6-5.6,27.7-14.2c2.3-2.8,4-6.5,4.7-10
			c2.4-12.4,1.9-24.9-1.5-37.1c-2.7-9.7-8.5-17.2-16.4-23.6c-16.1-12.9-34.3-18.7-54.9-18.3c-12.6,0.3-24.9,0.9-36.9,4.9
			c-17.1,5.6-30.5,15.7-39.2,31.6c-4.1,7.4-6.5,8.5-14.5,7.5c-1.2-0.2-2.5-0.5-3.5-1.1c-4.8-3.1-9.6-6.3-14.2-9.5
			c-2-1.4-4-3-5.6-4.9c-3.6-4.1-3.7-6.3-0.8-10.7c20.8-32.2,50.1-51.8,87.7-58.6c27-4.9,53.8-3.8,79.7,5.7
			c37.4,13.7,58,41.7,65.9,79.8c1.3,6.3,1.6,12.9,1.6,19.4c0.1,71.7,0.1,143.4,0.1,215.1c0,10.4-3,13.3-13.3,13.3c-6,0-12,0.1-18,0
			c-7.7-0.1-11.4-3.7-11.6-11.4c-0.1-9,0-18,0-27c0-2.4,0-4.8,0-7.3C2724,661.9,2723.3,661.7,2722.6,661.5z M2720.4,552.5
			c-2.8,0-5.5-0.3-8.1,0.1c-16.8,2.6-33.4,5.5-50.2,7.9c-12.3,1.7-24.8,3.4-37.2,3.8c-14.3,0.4-27.6,3.9-40.1,10.4
			c-29.7,15.6-31,46.2-23.1,65.3c8.1,19.5,24.1,28.7,43.5,32.8c17,3.6,33.9,1.6,50.3-3.7c24.1-7.8,41.4-23.1,53.6-45.9
			c11.5-21.6,13.6-44,12.4-67.4C2721.3,554.7,2720.8,553.7,2720.4,552.5z"/>
		<path class="st0" d="M2130.3,661.4c-2.3,2.5-4.6,5-6.7,7.6c-20.3,23.8-46,38.8-76.5,45.6c-11.3,2.5-22.6,3.4-34.1,1.2
			c-15-2.9-29.6-7.1-43.2-14.2c-26.5-13.9-43.4-34.9-46.8-65.3c-3.5-32,4.8-60,29.7-81.6c11.7-10.1,25.4-16.7,40-21.4
			c14.2-4.5,28.9-5.6,43.5-7.5c17.8-2.3,35.6-4.5,53.5-6.8c2-0.2,4-0.7,5.9-0.7c11.7,0.1,20.5-5.6,27.6-14.3c2.1-2.6,3.8-6,4.5-9.3
			c2.6-12.9,2-25.9-1.6-38.6c-2.2-7.9-6.5-14.6-12.8-19.9c-15.1-12.9-32.1-20.8-52.4-20.9c-13.8-0.1-27.4,0-40.8,4.1
			c-18,5.6-32.2,15.7-41.2,32.5c-3.7,6.9-5.1,7.7-14.7,7.3c-1,0-2.1-0.2-2.8-0.7c-5.6-3.7-11.4-7.2-16.7-11.3
			c-8.7-6.7-6.8-10.9-2.7-17c22.4-33.1,53.8-51.5,92.9-57c23.5-3.3,46.9-1.9,69.6,5.7c38.6,13,60.4,40.9,68.9,79.9
			c1.3,6,1.7,12.4,1.7,18.6c0.1,72.5,0.1,145,0,217.5c0,2.4,0.1,5.2-1,7.3c-1.9,3.7-5.1,5.9-9.7,5.7c-7-0.2-14,0-21-0.1
			c-7.2-0.1-11-3.8-11.2-11.1c-0.2-9-0.1-18-0.1-27c0-2.5,0-4.9,0-7.4C2131.6,662,2131,661.7,2130.3,661.4z M2128,552.5
			c-2.8,0-5.6-0.3-8.2,0.1c-16.8,2.6-33.4,5.5-50.2,7.9c-12.3,1.7-24.8,3.4-37.2,3.7c-14.1,0.4-27.1,3.8-39.5,10.1
			c-23.1,11.9-33,36-25.3,60.8c6.9,22.5,23.9,32.8,45.3,37.7c11.1,2.5,22.4,1.6,33.5,0.1c27-3.6,48.5-16.5,63.8-38.9
			c16.2-23.6,21.3-50.2,18.7-78.5C2128.9,554.6,2128.4,553.7,2128,552.5z"/>
		<path class="st0" d="M3195,555.1c-0.5,22.7-2.1,44.3,7.6,64.8c10.5,22.2,28.4,34.4,51.6,39.2c9.7,2,19.8,2.1,29.8,2.3
			c23,0.3,46,0.1,69,0.1c2.2,0,4.5-0.1,6.7,0.1c5.9,0.4,9.4,3.5,9.6,9.4c0.3,8.2,0.3,16.5,0,24.7c-0.1,4.5-3.8,8-8.7,8.9
			c-1.9,0.3-4,0.2-6,0.2c-30,0.1-60,0.1-89.9,0.5c-13.6,0.2-26.2-3.3-38.1-9.5c-12.7-6.6-24.3-14.8-34.9-24.5
			c-8-7.3-14.5-15.8-19.3-25.6c-3.5-7.2-7.7-14.1-10.7-21.4c-5.4-13.4-7.1-27.5-7.1-41.8c0-29.2,0-58.5-0.1-87.7
			c0-20.4,4-40.1,13.7-57.8c17.2-31.3,40.3-56.8,77.1-65c28-6.2,55.6-4.1,82.3,6.7c25.2,10.2,44.3,27,57.1,51.4
			c6.9,13.2,13.1,26.4,14.9,41.3c1,8.2,1.5,16.4,1.8,24.6c0.3,11.2-0.1,22.5,0.1,33.7c0.2,8-3.2,14.7-7.7,20.6
			c-1.9,2.4-5.8,3.6-9,4.5c-2.5,0.7-5.5,0.2-8.2,0.2c-57.2,0-114.4,0-171.6,0C3201.9,555.1,3198.8,555.1,3195,555.1z M3357.9,517.8
			c0.1-17.2,1.6-33.6-3.3-49.8c-7.6-24.9-23.6-41.4-48.4-48.8c-19.4-5.8-38.9-5.6-58.2,0.7c-22.8,7.4-37.7,22.5-45.5,45.1
			c-5.8,16.8-4.8,33.9-4.2,51.1c0,0.4,0.5,0.8,1.1,1.7C3251.6,517.8,3304.2,517.8,3357.9,517.8z"/>
		<path class="st0" d="M2303.1,664c1.8-7,1.9-237.7,0-245.3c-2.4-0.1-5.1-0.4-7.8-0.4c-12,0-24,0-36,0c-9,0-12.1-3.1-12.3-12.1
			c-0.1-6.7-0.1-13.5,0-20.2c0.2-7.2,3.4-10.7,10.6-10.8c23.5-0.1,47-0.5,70.5,0.2c14.1,0.4,22.7,9.3,22.4,23.6
			c-0.1,8.4,0,16.8,0,26.9c3.6-2.3,5.9-3.5,8-5.1c14.2-10.3,28.4-20.5,42.4-30.9c13.4-9.9,28.3-15.7,44.7-17.7
			c6.4-0.8,13-0.7,19.4-0.4c5.4,0.2,9.5,4.3,9.6,9.6c0.2,9,0.2,18,0,27c-0.1,5.2-4,9.1-9.5,9.8c-3,0.4-6,0.2-9,0.2
			c-17.5,0.1-33.8,4.7-47.8,15c-18.6,13.8-36.5,28.7-54.8,43.1c-2.7,2.1-3.2,4.7-3.2,7.9c0.1,8.5,0,17,0,25.5c0,48.2,0,96.5,0,144.7
			c0,2.9,0,5.9,0,9.4c4,0.2,7.2,0.6,10.4,0.6c16.7,0.1,33.5,0,50.2,0c2,0,4-0.1,6,0.1c6.1,0.5,9.7,4,9.8,10c0.2,7.7,0.2,15.5,0,23.2
			c-0.1,5.8-4.2,9.5-10,9.9c-1.5,0.1-3,0-4.5,0c-50,0-100,0-149.9,0c-1.5,0-3,0.1-4.5,0c-6.9-0.4-10.6-3.8-10.8-10.8
			c-0.3-7.2-0.2-14.5,0-21.7c0.2-7.2,3.4-10.5,10.7-10.7c12.2-0.2,24.5,0,36.7-0.1C2297.5,664.5,2300.4,664.2,2303.1,664z"/>
		<path class="st0" d="M1717.2,664c4.1,0.2,7.5,0.5,10.9,0.5c42.5,0,85,0,127.4,0c2.5,0,5-0.1,7.5,0.1c6.2,0.5,9.4,3.8,9.6,10.1
			c0.2,8.7,0.2,17.5,0,26.2c-0.1,6.1-3.8,9.5-9.8,9.9c-0.5,0-1,0-1.5,0c-55.7,0-111.5,0-167.2,0c-11.3,0-23-8.9-25.8-19.3
			c-0.7-2.6-0.8-5.4-0.8-8.1c0-123,0-245.9-0.2-368.9c0-8,4.6-13.3,12.6-12.7c8.7,0.6,17.5,0.1,26.2,0.2c6.7,0.1,10,3.3,10.5,10
			c0.2,3,0.1,6,0.1,9c0,110.7,0,221.4,0,332.1C1716.7,656.6,1717,660,1717.2,664z"/>
		<path class="st0" d="M2966.9,649.5c0.9-2.3,1.8-4.5,2.5-6.8c28.5-84.2,56.9-168.4,85.4-252.5c3.2-9.4,6.3-11.7,16.4-11.7
			c6.5,0,13-0.1,19.5,0.2c5.6,0.3,8.2,4.7,6.3,9.9c-7.1,19.5-14.3,38.9-21.1,58.4c-29.2,83.1-58.4,166.3-87.5,249.4
			c-3.2,9.2-6.4,11.4-15.9,11.5c-7.5,0-15,0-22.5,0c-8.5,0-9.8-1.5-12.3-9.7c-3.4-11-7.4-21.7-11.2-32.6
			c-31.4-89.5-62.8-179-94.2-268.5c-0.9-2.6-1.9-5.2-2.3-7.9c-0.7-5.8,3-10.4,8.9-10.6c8.5-0.3,17-0.2,25.5,0c4,0.1,7,2.3,8.3,6.2
			c5.9,17.2,11.5,34.6,17.5,51.7c24,68.8,48.1,137.6,72.2,206.4c0.8,2.3,1.8,4.4,2.6,6.7C2965.6,649.6,2966.2,649.6,2966.9,649.5z"
			/>
	</g>
</g>
</svg>
