<?xml version="1.0" encoding="utf-8"?>
<!-- Generator: Adobe Illustrator 21.0.0, SVG Export Plug-In . SVG Version: 6.00 Build 0)  -->
<svg version="1.1"
	 id="svg2" inkscape:export-filename="/home/amarcuse/site/vlz/www/logos/postgresql/postgresql-horizontal.png" inkscape:export-xdpi="90" inkscape:export-ydpi="90" inkscape:version="0.91 r13725" sodipodi:docname="postgresql-horizontal.svg" xmlns:cc="http://creativecommons.org/ns#" xmlns:dc="http://purl.org/dc/elements/1.1/" xmlns:inkscape="http://www.inkscape.org/namespaces/inkscape" xmlns:rdf="http://www.w3.org/1999/02/22-rdf-syntax-ns#" xmlns:sodipodi="http://sodipodi.sourceforge.net/DTD/sodipodi-0.dtd" xmlns:svg="http://www.w3.org/2000/svg"
	 xmlns="http://www.w3.org/2000/svg" xmlns:xlink="http://www.w3.org/1999/xlink" x="0px" y="0px" viewBox="0 0 304.5 56.9"
	 style="enable-background:new 0 0 304.5 56.9;" xml:space="preserve">
<style type="text/css">
	.st0{fill:#231F20;}
	.st1{fill:#367FAF;}
	.st2{fill:#316192;}
</style>
<sodipodi:namedview  bordercolor="#666666" borderopacity="1.0" fit-margin-bottom="0" fit-margin-left="0" fit-margin-right="0" fit-margin-top="0" id="base" inkscape:current-layer="layer1" inkscape:cx="263.60992" inkscape:cy="39.670143" inkscape:document-units="px" inkscape:pageopacity="0.0" inkscape:pageshadow="2" inkscape:window-height="979" inkscape:window-maximized="0" inkscape:window-width="1730" inkscape:window-x="75" inkscape:window-y="34" inkscape:zoom="2.2817806" pagecolor="#ffffff" showgrid="false">
	</sodipodi:namedview>
<g id="layer1" transform="translate(0.14109154,-992.32734)" inkscape:groupmode="layer" inkscape:label="Layer 1">
	<g id="g4244" transform="matrix(0.71152073,0,0,-0.71152053,-14.592476,948.62882)">
	</g>
	<g id="g4466" transform="matrix(0.26113424,0,0,0.26113417,67.396247,969.74091)">
		<path id="path4254" inkscape:connector-curvature="0" class="st0" d="M43.8,195.3H-0.7v-44.7h46.8c17.1,0,25.7,7.6,25.7,22.7
			C71.9,187.9,62.5,195.3,43.8,195.3 M75.7,150c-6.1-5.5-14.6-8.2-25.6-8.2l-63.6,0.4v106.9h12.8l-0.1-45.5h47.4
			c11.9,0,21.2-2.7,28-8.2c6.8-5.5,10.2-13,10.2-22.7C84.8,163.1,81.8,155.5,75.7,150z"/>
		<path id="path4256" inkscape:connector-curvature="0" class="st0" d="M158.7,226.7c-1.3,3.6-3.3,6.6-6.1,9.1
			c-5.7,5.6-14.5,8.4-26.3,8.4c-10.6,0-18.8-2.7-24.5-8.2c-5.7-5.4-8.6-12.7-8.6-21.9c0-4.8,0.7-9,2.2-12.7c1.5-3.7,3.7-6.8,6.5-9.3
			c5.9-5.4,14-8.1,24.3-8.1c22.9,0,34.3,10,34.3,30.1C160.6,218.9,160,223.1,158.7,226.7 M161,187.2c-7.8-7.1-19.4-10.7-34.7-10.7
			c-14.5,0-25.7,3.6-33.6,10.9c-7.1,6.6-10.7,15.5-10.7,26.7c0,11.1,3.7,20.1,11,26.9c4.1,3.7,8.8,6.3,14.2,8
			c5.4,1.6,11.7,2.5,19,2.5c15.2,0,26.8-3.5,34.8-10.6c7.1-6.4,10.7-15.4,10.7-26.8C171.8,202.6,168.2,193.7,161,187.2z"/>
		<path id="path4258" inkscape:connector-curvature="0" class="st0" d="M258,229.8c0,14.4-12.9,21.6-38.7,21.6
			c-7.9,0-14.5-0.5-19.9-1.5c-5.4-1-9.8-2.7-13.1-5c-2.6-1.8-4.7-4.1-6.2-6.9c-1.5-2.8-2.5-6.4-3-10.7l12-0.1
			c0,5.7,2.1,9.8,6.3,12.5c4.5,3.2,12.5,4.8,23.9,4.8c18,0,27-4.5,27-13.5c0-5.3-3-8.9-9.1-10.9c-1.2-0.4-8.5-1.4-21.9-3
			c-13.4-1.6-21.7-3.1-25-4.4c-7.1-2.8-10.7-7.9-10.7-15.3c0-7.2,3.2-12.6,9.5-16.1c3.1-1.5,7.1-2.6,11.8-3.4
			c4.7-0.8,10.2-1.2,16.4-1.2c24.8,0,37.2,7.8,37.2,23.4h-11.4c0-10.9-8.7-16.4-26.2-16.4c-8.9,0-15.5,1.1-19.9,3.3
			c-4.4,2.2-6.5,5.6-6.5,10.2c0,4.3,2.9,7.4,8.8,9.3c3.4,1,11.4,2.1,23.8,3.4c11.1,1,18.7,2.4,22.8,4.2
			C254.1,217.2,258,222.4,258,229.8z"/>
		<path id="path4260" inkscape:connector-curvature="0" class="st0" d="M305.1,249.3c-1.8,0.3-3.5,0.5-4.9,0.7
			c-1.4,0.1-2.4,0.2-3,0.2c-7.8,0-13.4-1.1-16.9-3.4c-3.5-2.3-5.2-6.2-5.2-11.9v-48.8h-14.2v-7.2H275l0.1-23.1h10.9v23.1h19v7.3
			l-19-0.1v47.5c0,3.5,0.9,6,2.8,7.3c1.9,1.3,5.2,2,10,2c0.7,0.1,1.5,0.1,2.3-0.1c0.8-0.1,2.1-0.4,3.8-0.9
			C305,242,305.1,249.3,305.1,249.3z"/>
		<path id="path4262" inkscape:connector-curvature="0" class="st0" d="M380.8,233.1c-3,2.4-6.4,4.3-10.2,5.6c-3.8,1.3-8.2,2-13.2,2
			c-22.9,0-34.3-9.4-34.3-28.3c0-8.8,2.9-15.7,8.8-20.7c5.9-5,14.1-7.5,24.7-7.5c10.7,0,18.8,2.5,24.4,7.5c5.5,5,8.3,11.7,8.3,20.1
			C389.3,221,386.4,228.1,380.8,233.1 M400.2,179h-10.9l-0.1,12.1c-4.8-4.9-8.3-8-10.3-9.3c-6.1-3.4-14-5-23.8-5
			c-14.2,0-25.1,3.3-32.6,9.8c-7.1,6-10.7,14.6-10.7,25.9c0,5.6,0.9,10.6,2.7,15c1.8,4.4,4.4,8.1,7.9,11.2
			c7.5,6.3,18.1,9.4,31.9,9.4c16.5,0,28.2-4.5,35.1-13.5v12.5c0,8-2.5,14.1-7.5,18.5c-5,4.4-13.3,6.5-24.7,6.5
			c-10.8,0-18.5-1.5-23.1-4.5c-3.4-2.3-5.8-6.3-7.1-11.9h-11.3c1.2,7.9,4.6,13.6,10,17.1c6.3,4.1,16.9,6.1,31.8,6.1
			c28.6,0,42.8-10.6,42.8-31.9C400.2,246.9,400.2,179,400.2,179z"/>
		<path id="path4264" inkscape:connector-curvature="0" class="st0" d="M459.4,186.1c-3.3-0.5-6.3-0.8-9.2-0.8c-18,0-27,9.9-27,29.6
			v34.3h-10.8l-0.1-70.2l10.9,0.1v12.5h0.6c1.8-4.9,4.7-8.7,8.7-11.2c4.4-2.5,10.9-3.7,19.5-3.7c1.8,0,3.2,0,4.4,0
			c1.2,0,2.2,0,2.9,0C459.4,176.7,459.4,186.1,459.4,186.1z"/>
		<path id="path4266" inkscape:connector-curvature="0" class="st0" d="M469.6,209.6c1.4-8,4.5-14.1,9.3-18.5
			c3.1-2.5,6.7-4.4,10.7-5.7c4-1.3,8.5-1.9,13.4-1.9c9.7,0,17.7,2.7,23.8,8c6.2,5.3,9.2,11.4,9.2,18.1H469.6 M537.1,188
			c-3.8-3.8-8.6-6.7-14.2-8.5c-5.7-1.8-12.3-2.8-19.9-2.8c-14.2,0-25.2,3.3-33,9.9c-7.8,6.6-11.7,15.6-11.7,26.9
			c0,11.3,3.8,20.3,11.3,27c8.1,7.4,19.6,11,34.3,11c5.9,0,11.3-0.7,16.4-2c5-1.3,9.4-3.2,13.2-5.7c6.6-4.7,10.8-10.6,12.5-17.5
			h-11.8c-4.1,12-14.2,18-30.3,18c-11.4,0-20.2-2.9-26.3-8.8c-5.3-5-7.9-11.5-7.9-19.5h78C547.5,204.1,544.1,194.7,537.1,188
			L537.1,188z"/>
		<path id="path4268" inkscape:connector-curvature="0" class="st1" d="M663.1,220.5c0,20.8-16.8,31.2-50.4,31.2
			c-20.1,0-34.8-3.6-44.1-10.8c-7.6-5.9-11.4-14.9-11.4-27h13.5c0,19.4,14,29.2,41.9,29.2c13.4,0,23.1-2,29.1-6
			c5.1-3.5,7.6-9,7.6-16.5c0-7.4-3.4-12.6-10.3-15.6c-3.9-1.6-13.4-3.6-28.6-6.1c-19.1-2.9-31.4-5.8-37.1-8.7
			c-8.2-4.3-12.3-11.6-12.3-21.8c0-9.6,3.5-16.7,10.5-21.3c7.5-5.1,20.4-7.7,38.6-7.7c32.9,0,49.4,10.9,49.4,32.8h-13.6
			c0-16.4-12.2-24.6-36.7-24.6c-12.3,0-21.2,1.6-26.9,4.9c-5.4,3.5-8,8.7-8,15.5c0,7.1,3.4,12.1,10.3,15.1c3.7,1.7,14.5,4,32.4,7
			c16.9,2.5,28.2,5.5,34.1,8.8C659.1,203.1,663.1,210.3,663.1,220.5z"/>
		<path id="path4270" inkscape:connector-curvature="0" class="st1" d="M773,231.1c-5.1,4-10.8,7.1-17.1,9.1c-6.4,2-13.5,3-21.4,3
			c-16.1,0-29.1-4.3-39-13c-9.9-8.7-14.9-20.2-14.9-34.7c0-15.1,4.9-26.8,14.8-35.2c9.9-8.4,22.9-12.6,39.2-12.6
			c16.5,0,29.4,4.4,38.9,13.2c5,4.3,8.7,9.3,11,15c2.4,5.7,3.6,12.3,3.6,19.6C787.9,210.5,782.9,222.4,773,231.1 M780.2,238.2
			c7-5,12.3-11,15.6-18.1c3.4-7.1,5.1-15.2,5.1-24.5c0-16.6-5.5-29.9-16.5-39.9c-5.9-5.5-13-9.6-21.4-12.3c-8.3-2.7-17.9-4-28.6-4
			c-20.8,0-37.2,5-49.1,15.1c-11.9,10.1-17.8,23.8-17.8,41.1c0,16.8,6,30.4,18,40.7c12,10.3,28.4,15.5,49.1,15.5
			c8.1,0,15.2-0.5,21.2-1.6c6-1.1,11.2-2.8,15.4-5.1l20,13.9l8.3-7.7L780.2,238.2L780.2,238.2z"/>
		<path id="path4272" inkscape:connector-curvature="0" class="st1" d="M902.2,249.1h-92.4v-107l12.7-0.2v98.3h79.8L902.2,249.1z"/>
	</g>
</g>
<g>
	<path d="M47.3,33.1c1.2-0.1,2.3-0.1,3.5-0.2c0.7-0.1,1.3-0.2,2-0.3c1.4-0.1,2.3,0.8,2,2.2c-0.5,2.4-1.9,4-4.1,4.9
		c-2.1,0.9-4.4,1.1-6.7,0.9c-0.1,0-0.2,0-0.3,0c-0.1,0-0.1,0-0.2,0c-0.2,1.4-0.3,2.8-0.5,4.1c-0.2,1.7-0.5,3.5-0.8,5.2
		c-0.5,3-2.3,5-5.2,5.9c-1.7,0.5-3.4,0.9-5.1,0.7c-3.5-0.4-5.6-2.4-6-5.9c-0.3-2.6-0.4-5.2-0.6-7.8c0-0.3,0-0.6,0-1.1
		c-1.6,1-3.4,1.1-5.1,0.8c-1.7-0.3-3.5-0.4-4.9-1.8c-0.1,0.1-0.2,0.2-0.4,0.3c-1.6,1.4-3.6,1.5-5.2,0c-1.3-1.1-2.1-2.4-2.9-3.9
		c-1.6-2.9-2.7-6.1-3.6-9.2c-1.2-4-2.2-8-2.7-12.1c-0.3-2.7-0.1-5.4,0.8-8c1.4-3.9,4.3-6,8.3-6.7c3.9-0.7,7.7,0,11.4,1.1
		c0.4,0.1,0.7,0.1,1.1-0.1c2.5-1.4,5.2-1.6,8-1.3c0.7,0.1,1.4,0.3,2.2,0.3c0.2,0,0.5,0,0.8-0.1c3.9-1.1,7.8-1.4,11.8-0.4
		c3.4,0.9,6.3,2.7,8.5,5.5c0.9,1.2,1.1,2.6,1.2,4.1c0.1,3.2-0.6,6.4-1.5,9.5c-1.3,4.4-3.1,8.6-5.4,12.5c-0.1,0.2-0.2,0.3-0.3,0.5
		C47.3,33,47.3,33,47.3,33.1z M45.3,33.9c0-0.1,0-0.2,0-0.2c0.1-0.1,0.2-0.3,0.2-0.4c2.8-4.4,4.9-9.1,6.3-14.1
		c0.8-2.9,1.4-5.8,1.1-8.9c-0.1-1.2-0.4-2.4-1.3-3.4C48.9,3.8,45.3,2.3,41.2,2c-2.8-0.2-5.5,0.1-8.1,0.9c-0.1,0-0.3,0-0.4,0
		c-0.9-0.1-1.8-0.3-2.7-0.4c-2.6-0.2-5.2,0-7.5,1.6c-0.2,0.1-0.5,0.1-0.8,0.1c-0.6-0.1-1.1-0.4-1.7-0.5C16.5,2.8,13.1,2.3,9.6,3
		c-3,0.6-5.3,2.1-6.5,5C2,10.7,1.7,13.5,2,16.3c0.2,2.2,0.7,4.4,1.2,6.6c0.9,4.1,2.1,8.2,3.8,12c0.8,1.7,1.7,3.5,3.2,4.8
		c0.9,0.8,2,1.3,3.3,0.9c0.8-0.2,1.5-0.8,2.1-1.4c0.6-0.7,1.3-1.5,1.9-2.2c0.9-1,1.7-1.9,2.5-2.8c1.1,0.3,2.1,0.6,3,0.8
		c-0.6,1.1-1.6,1.8-2.9,2.1c-0.7,0.1-1.3,0.3-2,0.5c-0.7,0.2-1.4,0.6-1.4,1.5c0,0.8,0.5,1.3,1.2,1.6c0,0,0.1,0.1,0.2,0.1
		c2.3,1,4.7,1.1,7,0c0.5-0.3,1-0.6,1.6-0.9c0,0.3,0,0.5,0,0.7c0,3.2,0,6.3,0.5,9.4c0.4,2.2,1.4,4,3.6,4.9c1.6,0.6,3.1,0.4,4.7,0
		c2.7-0.7,4.7-2.2,5.4-5.1c0.3-1.5,0.5-3,0.7-4.5c0.3-1.9,0.5-3.7,0.7-5.6c0-0.4,0.1-0.7,0.6-0.6c1.4,0.3,2.8,0.2,4.2-0.1
		c2.1-0.3,3.9-1.1,5.4-2.6c0.3-0.3,0.5-0.6,0.7-1c0.3-0.7,0-1.5-0.8-1.7c-0.4-0.1-0.8,0-1.2,0c-1.5,0.1-2.9,0.3-4.4,0.4
		C46.3,34.2,45.8,34,45.3,33.9z"/>
	<path class="st2" d="M24.9,33.5c0.5-1.2,0.9-2.4,1.4-3.5c1.4-3,1.6-6.1,1.1-9.3c-0.1-0.7-0.2-1.4-0.4-2.2c-0.6-2.5-2.7-3.5-4.9-3.2
		c-0.7,0.1-1.4,0.3-2.1,0.5c-0.7,0.2-1.3,0.5-2.1,0.8c0.1-0.7,0.2-1.4,0.3-2.1c0.4-2.3,1.1-4.5,2.5-6.4c1.8-2.5,4.3-3.8,7.4-3.9
		c7.6-0.2,12.8,4.6,15.2,10.3c0.1,0.2,0.1,0.3,0.2,0.5c-0.7,0-1.3,0-1.9,0c-1.2,0.1-2.4,0.3-3.4,1.2c-1.3,1.2-1.5,2.8-1.2,4.4
		c0.4,2.8,1.7,5.3,3,7.7c1,1.8,2,3.5,3,5.3c-0.2,0.1-0.7,0.3-1,0.6c-0.8,0.6-1,1.6-1.1,2.6c-0.2,2.3-0.5,4.7-0.7,7
		c-0.2,1.6-0.5,3.2-0.7,4.9c-0.4,2.7-2,4.2-4.6,4.7c-0.8,0.2-1.7,0.3-2.6,0.2c-1.3-0.1-2.2-1-2.8-2.2c-0.6-1.1-0.8-2.2-0.8-3.4
		c-0.1-3.7-0.2-7.4-0.2-11.2C28.4,34.9,26.9,33.5,24.9,33.5z"/>
	<path class="st2" d="M18.7,33.1c-0.4,0.4-0.7,0.8-1.1,1.2c-1,1.1-1.9,2.2-2.9,3.3c-0.2,0.2-0.4,0.4-0.6,0.6c-1,1.1-2,1.1-3,0.1
		c-1.2-1.1-1.9-2.5-2.6-4C6.9,30.7,5.8,27,4.9,23.2c-0.5-2.3-1-4.7-1.3-7c-0.3-2.4-0.1-4.8,0.9-7c1.1-2.6,3.2-4.1,6-4.6
		c3.1-0.6,6.2,0,9.2,0.8c0.2,0.1,0.4,0.1,0.6,0.2c0,0,0,0.1,0.1,0.1c-0.2,0.2-0.4,0.5-0.6,0.7c-1.7,2.1-2.7,4.6-3.2,7.2
		c-0.3,1.6-0.5,3.2-0.5,4.8c-0.1,1.8,0.1,3.7,0,5.5c0,0.8-0.2,1.6-0.2,2.4c-0.1,2.6,0.7,4.7,2.5,6.5C18.5,33,18.6,33,18.7,33.1z"/>
	<path class="st2" d="M44.1,32c0-0.1,0.1-0.3,0.1-0.4c1.1-2,1.3-4.1,0.9-6.3c-0.4-2.4-0.3-4.8,0.1-7.3c0.3-1.5,0.1-3-0.5-4.5
		c-1.9-4.1-4.7-7.4-8.9-9.5c0,0-0.1-0.1-0.2-0.2c0.8-0.1,1.6-0.3,2.3-0.3c3.5-0.2,6.9,0.2,9.9,2.4c1,0.7,1.8,1.6,2.6,2.5
		c0.6,0.7,0.7,1.5,0.8,2.4c0.2,3.5-0.7,6.9-1.8,10.2c-1.2,3.7-2.8,7.1-4.8,10.4c-0.1,0.2-0.3,0.4-0.4,0.6C44.3,32.1,44.2,32,44.1,32
		z"/>
	<path class="st2" d="M26,23.8c0.1,1.8-0.4,3.6-1.1,5.3c-0.5,1.2-1,2.5-1.4,3.7c-0.1,0.3-0.2,0.4-0.6,0.4c-2.6-0.3-4.8-2.4-5.1-5.1
		c-0.1-0.9,0-1.9,0-2.9c0-1.9,0.1-3.8,0.1-5.6c0-0.7,0.1-1.1,0.7-1.4c1.4-0.7,2.8-1.3,4.5-1.2c1.2,0.1,2,0.6,2.3,1.9
		c0.3,1.6,0.5,3.3,0.8,5C26.1,23.8,26,23.8,26,23.8z M23.2,17.6c-0.4,0.1-0.7,0.1-1,0.2c-0.3,0.1-0.5,0.4-0.3,0.8
		c0.3,0.6,0.7,0.9,1.3,1c0.6,0.1,1-0.1,1.4-0.6c0.3-0.4,0.3-0.8-0.1-1C24,17.9,23.5,17.8,23.2,17.6z"/>
	<path class="st2" d="M43.8,16.8c-0.1,0.8-0.2,1.6-0.3,2.4c-0.3,1.8-0.2,3.6,0,5.3c0.2,1.8,0.4,3.6-0.3,5.4c0,0.1-0.1,0.2-0.2,0.4
		c-0.2-0.4-0.3-0.7-0.5-1c-0.9-1.8-1.9-3.6-2.7-5.4c-0.7-1.4-1.2-2.9-1.2-4.5c0-1.5,0.6-2.2,2-2.6C41.5,16.6,42.7,16.6,43.8,16.8z
		 M40.8,19c0.7,0,1.1-0.3,1.4-0.9c0.2-0.4,0.1-0.7-0.3-0.8c-0.5-0.1-1-0.1-1.5,0c-0.3,0.1-0.5,0.4-0.8,0.7c0.3,0.3,0.5,0.6,0.8,0.8
		C40.5,19,40.7,19,40.8,19z"/>
	<path class="st2" d="M18.8,39.1c0.7-0.2,1.5-0.4,2.2-0.5c1.3-0.3,2.3-0.9,3-2c0.2-0.4,0.5-0.7,0.8-1c0.4-0.4,0.8-0.4,1.2-0.1
		c0.7,0.5,0.8,1.4,0.3,2.1C25,39.3,23.2,40,21,39.7c-0.8-0.1-1.5-0.3-2.2-0.4C18.7,39.2,18.7,39.1,18.8,39.1z"/>
	<path class="st2" d="M50.9,35.5c-1.3,1.1-2.9,1.7-4.5,1.9c-1.1,0.1-2.2,0-3.3,0c-0.5,0-0.7-0.3-0.6-0.8c0.2-1,0.4-1.3,1.3-1.5
		c0.2,0,0.4,0,0.5,0.1c1.1,0.6,2.3,0.7,3.4,0.7C48.8,35.8,49.9,35.6,50.9,35.5z"/>
</g>
</svg>
