<?xml version="1.0" encoding="utf-8"?>
<!-- Generator: Adobe Illustrator 21.0.0, SVG Export Plug-In . SVG Version: 6.00 Build 0)  -->
<svg version="1.1" id="Layer_2" xmlns="http://www.w3.org/2000/svg" xmlns:xlink="http://www.w3.org/1999/xlink" x="0px" y="0px"
	 viewBox="0 0 6892.7 3044" style="enable-background:new 0 0 6892.7 3044;" xml:space="preserve">
<style type="text/css">
	.st0{fill:#00D8FF;}
	.st1{fill:none;stroke:#00D8FF;stroke-width:144.7456;stroke-miterlimit:10;}
</style>
<circle class="st0" cx="1718.2" cy="1526.1" r="302.6"/>
<path class="st1" d="M1718.2,910.9c406.2,0,783.6,58.3,1068.1,156.2c342.8,118,553.6,296.9,553.6,458.9
	c0,168.8-223.4,358.9-591.5,480.8c-278.3,92.2-644.6,140.4-1030.2,140.4c-395.4,0-769.7-45.2-1051.2-141.4
	C310.9,1884.1,96.4,1691.6,96.4,1526c0-160.7,201.3-338.2,539.3-456C921.3,970.5,1308,910.9,1718.2,910.9L1718.2,910.9z"/>
<path class="st1" d="M1182.7,1220.3c202.9-351.9,442-649.7,669-847.2c273.5-238,533.8-331.2,674.1-250.3
	c146.2,84.3,199.3,372.8,121,752.7c-59.2,287.2-200.4,628.5-393.1,962.6c-197.5,342.5-423.7,644.2-647.6,840
	c-283.3,247.7-557.3,337.3-700.7,254.6c-139.2-80.3-192.4-343.3-125.7-695C836.1,1940.3,977.7,1575.6,1182.7,1220.3L1182.7,1220.3z"
	/>
<path class="st1" d="M1183.2,1838.8c-203.5-351.6-342.1-707.4-399.9-1002.7c-69.6-355.8-20.4-627.9,119.8-709
	c146.1-84.6,422.5,13.5,712.5,271c219.3,194.7,444.4,487.5,637.6,821.3c198.1,342.2,346.6,688.8,404.3,980.5
	c73.1,369.2,13.9,651.3-129.4,734.2c-139.1,80.5-393.5-4.7-664.9-238.2C1634,2498.6,1388.7,2193.8,1183.2,1838.8L1183.2,1838.8z"/>
<path d="M3683.7,1053.9c122.2,0,244.4-9.2,364.5,2.7c111.6,11,172.7,83.9,185,184.6c15.7,128.3-22.1,202.8-133,258.2
	c130.6,104.4,167.8,263.6,250.8,400.4c-119,16.9-118.9,16.8-166.5-78.3c-27.3-54.6-55.6-108.7-82.6-163.5
	c-40.9-83.2-105.2-124.4-199.5-117.1c-33,2.6-66.3,0.4-104.9,0.4c0,121.8,0,239.2,0,361c-39.8,0-74.3,0-113.9,0
	C3683.7,1619,3683.7,1334.7,3683.7,1053.9z M3797.7,1449.4c73.2-4.4,142.2-3,209.1-14c70.7-11.6,106.5-66.2,107.1-142.3
	c0.6-76.2-34.1-131.3-105.2-143.5c-68.4-11.7-139.1-9.6-211-13.7C3797.7,1243.2,3797.7,1339.6,3797.7,1449.4z"/>
<path d="M4968.9,1796c12.2,78.3,12.6,85.1-72.6,100.9c-76.6,14.3-157.5,27.6-233.6,17.9c-192.1-24.5-297.3-197.8-258.2-406.8
	c35-186.7,177.4-289.2,364.8-261c83.1,12.5,146.2,56,187.3,129.9c38.8,69.8,44.3,145.1,39.3,231.2c-83.2,0-163.4,0-243.6,0
	c-78.5,0-156.9,0-235,0c-3.7,124.9,64.7,213.9,180.5,217.4C4786.1,1828,4875,1807.1,4968.9,1796z M4521.6,1521.5
	c120.6,0,241.3,0,361.7,0c9.2-109.4-59.5-185.7-165.3-188C4601.2,1330.9,4517.9,1409.4,4521.6,1521.5z"/>
<path d="M5677.1,1904.1c-36.6,0-67.3,0-101.3,0c-2.1-26.9-4-51.6-6.6-85.4c-65.7,82.3-147.6,108.2-243.4,102.1
	c-99.6-6.3-175.1-68.9-190.3-162.6c-17.8-109.3,27.3-200.5,125.5-232.9c55.2-18.2,115.4-22.6,173.9-28.4
	c42.7-4.3,86.3-0.8,128.8-0.8c12.6-81.2-31.5-149.2-115-153.7c-86.1-4.6-173.4,11.4-263.4,18.6c-18.3-67.2-15.2-76.7,67.4-94.9
	c55.3-12.2,112.8-20.8,169.2-20.4c153.3,1.1,245.6,84.9,253.7,238.2C5682.8,1621.3,5677.1,1759.5,5677.1,1904.1z M5566.3,1573.6
	c-80.7,7.6-162.8,10.1-242.8,24.6c-61.7,11.1-85.7,53.8-83.6,117.4c1.9,58.9,34.7,98.1,93.7,112
	C5474.2,1860.5,5585.2,1746.2,5566.3,1573.6z"/>
<path d="M6659.6,1340.4c0,139.1-0.5,269,0.3,398.9c0.3,51.2,30.6,74.3,79.4,75.2c43,0.8,85.9,0.2,132.1,0.2c0,33.2,0,59.5,0,96.8
	c-73.2-6.4-144-7.3-212.6-19.9c-66.4-12.3-100.5-59.5-104.2-139.5c-5.2-112.2-4.2-224.6-5.8-336.9c-0.3-22.9,0-45.9,0-71.6
	c-28.9-1.8-49.8-3.2-73.9-4.7c0-25.4,0-48.3,0-76.2c21-2.5,43.4-5.2,72.4-8.7c0-56.6,0-112.8,0-173.6c38.6,0,70.6,0,109,0
	c0,58.7,0,115,0,176.7c74.4,0,142.6,0,214.6,0c0,29.5,0,53.6,0,83.4C6801.4,1340.4,6733.1,1340.4,6659.6,1340.4z"/>
<path d="M6361.3,1376c-125.3-43.3-248.9-85.2-349,38.3c-63.2,78.1-68.2,240.5-8.2,325.1c98.2,138.5,228.8,94.4,356.3,50.9
	c10.9,94.9,8.7,98.1-77.5,118.5c-194.7,45.9-353.1-25.3-407.9-185.9c-31.4-92.1-31.4-186.5-1.1-278.7
	c49.7-151.3,201.2-227.9,378.4-194.8c9.7,1.8,19.2,4.5,28.8,6.7C6369.3,1276.5,6369.3,1276.5,6361.3,1376z"/>
</svg>
