<?xml version="1.0" encoding="utf-8"?>
<!-- Generator: Adobe Illustrator 21.0.0, SVG Export Plug-In . SVG Version: 6.00 Build 0)  -->
<svg version="1.1" id="Layer_1" xmlns="http://www.w3.org/2000/svg" xmlns:xlink="http://www.w3.org/1999/xlink" x="0px" y="0px"
	 viewBox="0 0 2281.9 541.6" style="enable-background:new 0 0 2281.9 541.6;" xml:space="preserve">
<style type="text/css">
	.st0{fill:#EF4123;}
</style>
<path class="st0" d="M2281.9,304.6c-0.8,3.1-1.9,6.1-2.5,9.3c-0.9,5.2-1.5,10.4-2.4,16.3c-4.4-0.4-8-0.8-11.5-1.1
	c-13.1-1.4-25.8,0.4-38.2,5.1c-4.9,1.8-7.2,4.9-7.9,10.2c-5.1,37.2-10.6,74.4-15.9,111.6c-1.2,8.6-1.5,9.1-9.7,9.2
	c-10.2,0.1-20.4-0.1-31.8-0.2c8.1-56.1,15.9-110.6,23.7-165.3c11.3,0,21.5,0,32.2,0c1.3,3.7,2.5,7.3,3.7,10.6
	c9.9-4.8,19-10.3,28.8-13.7c10.1-3.4,21-2.5,31.5,0.1C2281.9,299.3,2281.9,302,2281.9,304.6z"/>
<path class="st0" d="M1416.6,438.4c-9.6-17.1-3-29.5,11.1-38.9c0-1.3,0.2-2.1,0-2.6c-22.7-44.2-0.7-90.2,48.1-99.8
	c21.9-4.3,43.7-4.5,64.4,5.7c4.9,2.4,8.5,0.7,12-1.6c13-8.5,27.2-6.6,42.9-5.8c-3.6,11.7-6.9,22.7-10.5,34.6
	c-8.1-0.5-15.5-0.9-24-1.4c0.4,2.6,0.5,4.7,0.9,6.9c7.7,40-12,70.2-51.5,78.5c-16.7,3.5-33.7,3.7-50.6,0.8c-2.9-0.5-6-0.8-8.9-0.8
	c-3.7,0-6.4,1.7-7.1,5.6c-0.7,3.9,1.1,6.7,4.8,7.6c6.1,1.6,12.3,2.8,18.5,4c17.3,3.4,34.7,6.2,51.8,10.1c7.3,1.7,14.6,4.6,21.3,8.2
	c10.7,5.8,16.1,15.3,16.3,27.8c0.4,26.5-11.6,45.5-36.5,54.8c-9.5,3.6-19.8,5.9-29.9,7.1c-20.9,2.5-41.8,2.7-62.4-2.9
	c-1-0.3-1.9-0.5-2.9-0.8c-39.3-12.3-49.6-55.6-20.5-85.6C1407.7,445.8,1412.2,442.3,1416.6,438.4z M1468.9,510.5
	c0-0.2,0.1-0.4,0.1-0.6c5.3-0.3,10.7-0.3,15.9-1c7.9-1,15.7-3,22.1-8.1c7.3-5.9,10.6-13.8,8.8-23c-1.7-8.7-9.2-10.5-16.6-11.8
	c-15.3-2.8-30.6-5.7-45.9-8.7c-13.5-2.7-16-1.9-22,10.4c-2.4,4.9-3.7,10.7-4,16.2c-0.8,13.1,4.2,19.9,17,23.1
	C1452.4,509,1460.7,509.4,1468.9,510.5z M1486.6,385.2c1.7,0,3.3,0.1,5,0c21.7-1.1,35.5-17.9,32.3-39.4c-1.5-10-7-16.6-16.9-18.7
	c-9.2-2-18.6-2-27.6,1.3c-10.5,3.8-17.1,11.4-19.8,22.1C1453.8,373.3,1463.2,385.3,1486.6,385.2z"/>
<path class="st0" d="M1097.2,464.5c-9.7,0-18.5,0-28,0c-1.4-3.1-2.8-6.3-4.6-10.3c-3.2,2-5.9,3.7-8.6,5.4
	c-22.2,13.8-45.5,14.1-68.8,3.9c-20.5-9-28.7-27-30.4-48.1c-2.1-25.7,2.4-50.5,12.3-74.2c12.5-29.8,35.6-44.6,67.6-46.1
	c15.3-0.7,30.5-0.6,44.4,6.8c3.3-23.6,6.4-45.9,9.5-68.3c1.2-8.8,1.6-9.3,10.7-9.4c9.9-0.1,19.7,0.2,30.6,0.3
	C1120.1,305,1108.8,384,1097.2,464.5z M1076.2,333.5c-8.1-6.1-16.7-7.2-25.2-8.3c-26.8-3.3-37.9,8.1-45,25.6c-1,2.5-2.1,5-2.6,7.5
	c-2.7,15.4-5.6,30.7-7.6,46.1c-0.7,5.8,0.4,12,1.7,17.7c2.3,9.7,9.1,15.3,18.9,16.7c13.8,1.9,27.1-0.3,39.7-6.4
	c3.9-1.9,6.2-4.3,6.8-8.9c1.2-9.9,2.9-19.7,4.4-29.6C1070.4,374,1073.3,354,1076.2,333.5z"/>
<path class="st0" d="M785.6,309.7c-12.2,0-24.1,0-36.5,0c-0.5-3.8-0.8-7.4-1.5-10.9c-3-15.2-11.2-24-26.4-25.9
	c-9.1-1.2-18.7-1.2-27.8,0.3c-18.6,2.9-30.9,14.4-38.5,31.4c-7.8,17.5-10.9,36.2-13.3,55.1c-1.9,14.9-3.4,29.7-0.5,44.7
	c4.1,20.6,16.3,31.1,38.2,32.7c23.6,1.7,43-6.9,57.8-25.4c2.7-3.4,5.3-6.8,8.4-10.7c8.8,5.9,17.3,11.5,26.3,17.6
	c-1.5,2.7-2.5,5.1-3.9,7.2c-18.8,28-45.6,42.2-78.8,44.2c-11.8,0.7-24.1-0.1-35.7-2.5c-30.1-6.5-49-28.9-52.9-61.4
	c-4.6-38.2,1.8-75.1,16.2-110.4c13.7-33.6,39.2-52.6,75.6-57c17.1-2.1,33.9-2.2,50.4,2.7c32.7,9.7,44.1,35.3,44.2,63.6
	C786.9,306.3,786.1,307.9,785.6,309.7z"/>
<path class="st0" d="M2145.8,393.7c-37.4,0-73.9,0-111.5,0c-1.8,10.9-2.5,21,1.7,30.8c2.8,6.6,8.3,10.5,15,12.2
	c20.2,5,38.5,1.6,52.7-14.6c4.6-5.2,5.6-6.4,13.6-2.9c6.7,2.9,13.4,5.6,20.9,8.7c-1.4,2.9-2.2,5.4-3.6,7.5
	c-10.2,15.3-24.4,25.4-41.9,30.6c-18.2,5.4-36.8,6.2-55.3,1.8c-23.9-5.6-38.6-20.9-42.5-44.9c-5.1-31.5,0.3-61.8,14.9-90
	c12.6-24.4,34.6-35.3,61-37.3c12.1-0.9,24.7-0.4,36.7,1.8c19.3,3.5,31.5,16.3,37.6,34.8c4.7,14.2,5.3,28.7,3.4,43.4
	C2147.8,381.3,2146.8,387.2,2145.8,393.7z M2107.4,364.7c6.8-17.3-0.9-34-17.3-37.9c-25.9-6.1-47.6,10.1-49.8,37.9
	C2062.8,364.7,2085.2,364.7,2107.4,364.7z"/>
<path class="st0" d="M1171.3,393.9c-2.9,10.7-2.6,19.9,0.7,28.8c2.8,7.8,8.9,12.4,16.8,14.2c20.8,4.7,39,0.5,53.2-16.4
	c1.1-1.3,2.2-2.4,4.2-4.6c9.3,3.8,18.8,7.6,29,11.7c-1.4,2.8-2.2,5.2-3.6,7.3c-10.1,15.4-24.3,25.5-41.8,30.8
	c-18.2,5.5-36.7,6.2-55.3,2.1c-25.3-5.6-41.5-24.4-43.9-51.7c-2.2-25.6,1.7-50.5,11.5-74.3c11.8-28.8,34.3-43.4,64.5-46.4
	c10.9-1.1,22.2-1.3,32.9,0.5c26.6,4.4,42.8,22.9,45.8,50.7c1.6,15.3,0.9,30.6-2.9,47c-12,0.1-24.3,0.2-36.5,0.3c-12.3,0-24.7,0-37,0
	C1196.6,393.9,1184.3,393.9,1171.3,393.9z M1245.9,364.8c0-6.9,0.8-12.9-0.2-18.6c-1.6-10-7.9-16.4-17.9-19.1
	c-25.9-6.9-48.8,9.9-50.6,37.7C1199.7,364.8,1222.1,364.8,1245.9,364.8z"/>
<path class="st0" d="M787.4,404c0.8-22.3,3.9-41.3,10.9-59.5c12.2-31.9,35.9-47.7,69.4-49.4c9.6-0.5,19.5-0.8,28.9,0.9
	c30.1,5.3,46.7,24.7,48.7,55.8c1.5,22.9-2.2,45.2-10.1,66.7c-12.2,33.1-36.9,49.4-71.4,51.4c-9.2,0.5-18.7,0.1-27.8-1.5
	c-26.7-4.6-42.4-20.8-47-47.4C787.8,414.5,787.7,407.8,787.4,404z M874.7,326.1c-19.4-0.1-30.5,6.8-37.7,25
	c-7.8,19.7-10.7,40.4-9.3,61.6c0.3,3.9,1.6,7.8,3,11.5c2.1,5.5,6.2,9.5,11.7,11.6c16.1,6.3,41.6,4.1,51.8-18.7
	c9.1-20.4,12.7-42,10.8-64.2C903.3,333.7,894,326.3,874.7,326.1z"/>
<path class="st0" d="M1622.7,464.9c-13.1,0.3-25.2,1.1-38.8-0.7c7.4-55.3,15.5-109.7,23.4-164.5c11,0,21.2,0,32.2,0
	c1.3,4.1,2.6,8.4,4.3,14.1c3.9-2.5,7.2-4.4,10.3-6.6c15.8-10.9,33.5-14.2,52.3-12.1c20.7,2.3,35.8,18.1,36.9,40.6
	c0.6,12.5-0.6,25.3-2.3,37.7c-3.5,27.4-7.8,54.7-11.8,82c-0.4,2.9-1.4,5.7-2,8.2c-10.2,2.3-30,2.1-38.8-0.4c0.9-7,1.6-14.2,2.7-21.3
	c4.1-28.6,8.4-57.3,12.5-85.9c0-0.3,0.1-0.7,0.2-1c2.5-21.7-8.7-33-30-28.4c-9.9,2.1-19,7.5-28.5,11.6c-4.5,1.9-4.5,6.4-5,10.2
	c-2.4,15.4-4.5,30.9-6.7,46.4c-2.9,20.4-5.8,40.8-8.7,61.2C1624.4,458.6,1623.6,461.2,1622.7,464.9z"/>
<path class="st0" d="M1965.3,428.9c6,7.3,11.8,14.4,18.5,22.5c-5.1,3.3-9.3,6.5-13.9,8.8c-19.4,9.6-39.8,12.7-61.1,8.1
	c-19.9-4.4-30.8-17.4-30.3-37.5c0.4-13.2,2.6-26.4,4.3-39.6c1.8-13.5,3.7-27,5.9-40.5c1.1-6.5,3.1-12.8,5-20.5c-8.6,0-17,0-26.8,0
	c1.4-10.8,2.6-20.2,3.9-30.7c8.2,0,16,0,24.9,0c1.6-10.3,3.1-19.7,4.5-29.1c0.9-5.9,1.7-11.9,2.4-17.8c0.6-5.2,2.8-8.3,8.3-9.6
	c11.2-2.7,22.2-6,34.8-9.4c-3.1,22.4-6,43.3-9.1,65.2c19.1,0,37,0,56.1,0c-3.2,10.7-7.9,19.4-12.2,28.2c-0.8,1.7-4.4,2.7-6.8,2.7
	c-10.3,0.3-20.6,0.1-31,0.2c-3.2,0-6.5,0.3-10.5,0.5c-2.2,14.6-4.4,28.7-6.5,42.7c-2,13.2-3.9,26.3-5.8,39.5
	c-0.5,3.6-0.9,7.3-0.9,10.9c0,9.5,4.1,14.9,13.6,14.8c7.7-0.1,15.5-2.7,23.1-4.8C1958.9,432.8,1961.7,430.7,1965.3,428.9z"/>
<path class="st0" d="M1380.8,441.1c-1.1,8.3-2.1,15.4-3,22.2c-8.7,2.5-74.3,2.8-84.7,0.5c-2.2-7.5,1.3-14.6,1.8-22.6
	c7.9-0.5,15-0.9,23.1-1.4c8.3-57.1,16.5-113.6,24.9-171.4c-7.7-0.7-14.4-1.3-22.6-2c1.1-7.9,2.1-15.2,3.2-23.1c28.9,0,57,0,86,0
	c-0.9,7-1.5,13.2-2.5,19.4c-0.6,3.7-3.4,4.6-6.7,4.6c-5.3,0-10.5,0-17,0c-8.4,57.9-16.6,114.7-25,172.5
	C1366.2,440.2,1372.7,440.6,1380.8,441.1z"/>
<path class="st0" d="M1842,436.4c-1.4,10.3-2.8,20.6-4.3,31.5c-12.3-0.1-23.5,1.4-34.7-1.6c-12.8-3.4-20.3-11.5-20.5-24.8
	c-0.2-9.9,1-19.9,2.3-29.8c3.1-23.1,6.5-46.1,10-69.2c0.6-3.9,1.8-7.7,3-12.7c-9.1,0-17.6,0-27,0c-1-11.1,2.1-20.5,3.1-30.3
	c22.7,0,44.2,0,66.9,0c-1.2,9.4-2.2,18.2-3.4,27c-4.3,30.3-8.8,60.6-13.1,90.9c-2.7,18.7-0.6,18.8,13.7,17.7
	C1838.7,435.2,1839.7,435.8,1842,436.4z"/>
<path class="st0" d="M1845.7,267.3c-15.3,0-28.7,0-43.7,0c2-14.3,4-27.9,6-42.4c14.7-1.5,28.6-1.5,43.8,0.1
	C1849.8,239.6,1847.8,253.2,1845.7,267.3z"/>
<path class="st0" d="M298.7,536c5.8-3.3,11.6-6.3,17.1-9.8c21.4-13.6,38.5-31.1,46.8-55.6c10.3-30.3,4.7-58.8-12.1-85.5
	c-12.3-19.6-28.7-35.4-47.7-48.2c-19.9-13.4-40.6-25.5-60.6-38.7c-10.5-7-20.7-14.5-29.8-23.1c-12.1-11.4-20.6-25-16.1-43.5
	c-1.3,0.7-2,0.9-2.5,1.3c-21.2,19.9-34.8,51.9-15.5,83.7c6.7,11,15.4,20.8,23.6,30.8c6.8,8.3,11.7,17.3,12.3,28.3
	c1.1,19.3-8.8,32.3-27.7,36.5c-19.2,4.3-39.2-8.1-42.8-27.3c-1.2-6.7,0.4-14,0.9-21.1c0.1-1.5,0.5-3,0.8-4.6c-0.8,0-1.2-0.2-1.4,0
	c-25.1,18.1-44.1,40.7-52.1,71.1c-8,30.4,0.2,57.1,20.8,79.8c8.9,9.9,19.9,18,28.9,26c-4.2-1.3-10.1-3-15.8-5.1
	c-42.9-15.9-77.9-41.6-99.6-82.9c-15.3-29.1-20.2-60.5-16.9-93c5.1-50.7,27.8-93.7,59.3-132.7c26.9-33.3,58.5-62,90.6-90.1
	c20-17.5,39.1-35.8,52.8-58.9c9.4-15.7,16.7-32.3,15.2-51.2c-0.5-6.2-2.5-12.4-4.1-19.8c8.1,8,16.1,15.2,23.1,23.2
	c18.2,20.7,30.4,44.5,33.5,72.3c1.9,16.9-2,33.1-6.5,49.3c-3.7,13.5-7.2,27.1-9.3,40.9c-2.3,15.3,2.6,29.2,12.7,41
	c9.7,11.4,22.6,14.6,36.7,12c14.2-2.6,24.9-10.5,29-25c1-3.5,0.1-7.6,0.1-11.8c15.8,7.9,30.5,17.4,44.1,28.5
	c30.7,24.9,54.2,55,64,93.9c13.8,55-0.6,102.9-38.7,144c-30.6,33.1-68.9,53.6-112,65.7C299.6,536.2,299.3,536.1,298.7,536z"/>
</svg>
