<?xml version="1.0" encoding="utf-8"?>
<!-- Generator: Adobe Illustrator 21.0.0, SVG Export Plug-In . SVG Version: 6.00 Build 0)  -->
<svg version="1.1" id="Layer_1" xmlns="http://www.w3.org/2000/svg" xmlns:xlink="http://www.w3.org/1999/xlink" x="0px" y="0px"
	 viewBox="0 0 1038 412" style="enable-background:new 0 0 1038 412;" xml:space="preserve">
<style type="text/css">
	.st0{fill:#5294CF;}
	.st1{fill:#1F5B98;}
	.st2{fill:#2D72B8;}
	.st3{fill:#1A476F;}
</style>
<g>
	<path d="M738.5,145.4v4c0.7,6.7-0.4,13.5-3.3,19.7c-2.2,4.9-7,8.1-12.4,8.4c-6.9,0-11-5.6-11-13.6
		C711.7,148.2,725.4,145.4,738.5,145.4L738.5,145.4z M502.4,145.4v4c0.7,6.7-0.5,13.5-3.3,19.6c-2.3,4.9-7,8.1-12.4,8.4
		c-6.9,0-11-5.6-11-13.6C475.5,148.2,489.4,145.4,502.4,145.4z M902.7,111c5.7-0.4,10.9,3.5,12,9.1c2,8.2,2.9,16.6,2.6,25.1
		c0,12-0.6,32.3-14.5,32.3s-14.1-25-14.1-36.5s0.6-30.2,13.6-30.2L902.7,111z M789.1,93c-0.9,0-1.8,0.4-2.4,1
		c-0.6,0.7-0.9,1.5-0.9,2.5V110c0,0.9,0.3,1.8,0.9,2.5c0.6,0.7,1.5,1,2.4,1H820l-35.4,52.2c-1.7,2.8-2.6,6-2.5,9.3v13.8
		c0,1,0.4,2,1.3,2.7c0.8,0.6,1.9,0.8,2.9,0.4c19.5-10.4,43-10.4,62.5,0c1,0.4,2.2,0.3,3-0.3c0.9-0.6,1.4-1.6,1.4-2.7v-14.6
		c-0.1-2.2-1.3-4.2-3.3-5.2c-10.3-5.5-22-8.1-33.7-7.5l30.7-45c2.2-2.4,3.7-5.3,4.4-8.4V96.4c0-0.9-0.3-1.8-0.9-2.5
		c-0.6-0.7-1.5-1-2.4-1h-59.2L789.1,93L789.1,93z M1005.6,91.3c-12.4,0-19.5,6-24.6,19.2V96c-0.4-1.5-1.8-2.6-3.3-2.6H961
		c-1.8,0-3.3,1.3-3.5,3.1v94.8c0.1,1.8,1.5,3.3,3.3,3.5h18c1.9,0,3.5-1.6,3.5-3.5v-51c-0.3-6.2,0.8-12.3,3.1-18
		c1.6-4.1,5.3-7,9.7-7.4c12.4,0,11.2,15.2,11.2,25.5v51.5c0.2,1.7,1.6,3,3.3,3.1h18c1.8,0,3.2-1.3,3.5-3.1V132
		c0-9.2,0-21.9-4.7-29.5c-4.5-7.3-12.5-11.6-21-11.2H1005.6z M902.7,91.3c-26,0-40.5,22.9-40.5,52.4s14.3,52.9,40.5,52.9
		c25.2,0,41.2-23,41.2-52c-0.1-29.8-14.6-53.3-41.5-53.3H902.7z M596.1,91.3c-11-0.3-20.7,6.9-23.7,17.5V96.4
		c-0.1-1.8-1.5-3.2-3.3-3.3h-16.8c-1.9,0-3.5,1.6-3.5,3.5v94.9c0.2,1.8,1.6,3.1,3.3,3.3h18c1.9,0,3.5-1.6,3.5-3.5v-50.4
		c0-11-0.5-26,12.4-26s11,15.5,11,26v50.3c0.1,1.8,1.5,3.3,3.3,3.5h18c1.9,0,3.5-1.6,3.5-3.5v-50.3c-0.4-6.1,0.1-12.1,1.6-18
		c1.6-4.6,5.8-7.7,10.6-8.1c2.5-0.3,5,0.4,7,1.9s3.3,3.8,3.6,6.3c0.6,6,0.8,12,0.5,18v50.3c0.1,1.8,1.5,3.3,3.3,3.5h18
		c1.9,0,3.5-1.6,3.5-3.5v-60.1c0-10.2,1-21.8-4.7-29.8c-5.9-7.5-15.4-11.2-24.9-9.7c-9.4,1.5-17.3,8.1-20.5,17.1
		C614.4,96.8,607.3,91.3,596.1,91.3z M728.9,90.4c-17.1,0-36.1,6.6-40.3,28.3c-0.2,0.8,0,1.7,0.5,2.4c0.5,0.7,1.3,1.2,2.1,1.3
		l17.6,2.1c1.7-0.4,3-1.9,3.1-3.7c1.4-6.8,7.6-11.5,14.5-11c3.9-0.2,7.7,1.6,10,4.7c2,4.2,2.7,8.8,2.1,13.3v2.6
		c-11.5,0.5-22.8,2.6-33.7,6.3c-12,5.1-19.6,17-19.2,30.1c0,19.2,12,28.8,26.9,28.8c11.5,0.7,22.6-4.3,29.8-13.3
		c2.7,4.6,6.2,8.7,10.3,12c1.4,0.8,3.1,0.6,4.2-0.5c3.6-3.3,10.2-9.3,13.8-12.4c1.3-1.4,1.3-3.5,0-4.9c-4.3-4.6-6.7-10.7-6.8-17.1
		v-28.1c0-12,0.8-23.4-7.9-31.9C748.3,93.2,738.7,90,728.9,90.4z M492.8,90.4c-17.1,0-36.1,6.6-40.3,28.3c-0.2,0.8,0,1.7,0.5,2.4
		c0.5,0.7,1.3,1.2,2.1,1.3l17.6,2.1c1.6-0.5,2.8-2,2.8-3.7c1.4-6.8,7.6-11.5,14.5-11c3.9-0.2,7.7,1.6,10,4.7c2,4.1,2.9,8.8,2.3,13.3
		v2.6c-11.6,0.5-23,2.6-34,6.3c-12,5.1-19.6,17-19.2,30.1c0,19.2,12,28.8,26.9,28.8c11.5,0.7,22.6-4.3,29.8-13.3
		c2.7,4.6,6.2,8.7,10.3,12c1.4,0.8,3.1,0.6,4.2-0.5c3.6-3.3,10.2-9.3,13.8-12.4c1.3-1.4,1.3-3.6,0-4.9c-4.3-4.6-6.7-10.7-6.8-17.1
		v-28.1c0-12,1-23.4-7.8-31.9C512.1,93.3,502.6,90.1,492.8,90.4z"/>
	<g>
		<path class="st0" d="M238.7,404.7h4.8l78.8-39.4l1.3-1.9V48.8l-1.3-1.9L243.5,7.6h-4.9L238.7,404.7"/>
		<path class="st1" d="M136.1,404.7h-4.9l-78.7-39.4l-1.6-2.7L50,50.4l2.4-3.5l78.7-39.4h5L136.1,404.7"/>
		<path class="st2" d="M131.3,7.6h112.1v397.1H131.3V7.6z"/>
		<path class="st3" d="M363.6,197.2l-2.7-0.6l-38-3.5l-0.6,0.3l-78.9-3.2H131.3l-78.9,3.2v-60.2l-0.1,0l0.1-0.2l78.9-18.3h112.1
			l78.9,18.3l29,15.4v-9.9l12.3-1.3l-1.3-2.5L323.5,107l-1.2,0.4L243.4,83H131.3l-78.9,24.4V47L11.2,95.3v42.2l0.3-0.2l11.9,1.3
			v10.1l-12.3,6.6v42l0.3,0l11.9,0.2V215l-10.3,0.2l-2-0.2v42l12.3,6.6v10.2l-11.7,1.3l-0.5-0.4v42.2l41.3,48.3v-60.4l78.9,24.4
			h112.1l79.1-24.5l1.1,0.5l38.3-27.3l1.7-2.7l-12.3-1.4v-10l-1.6-0.6l-26.2,14.1l-0.9,2l-79.1,18.2v0H131.3v0l-78.9-18.3v-60.4
			l78.9,3.1v0.1h112.1l78.9-3.2l1.8,0.8l36.9-3.2l2.6-1.3l-12.3-0.2v-17.6L363.6,197.2"/>
		<path class="st2" d="M322.3,304.9v60.4l41.3-48.3V275l-41,29.8L322.3,304.9 M322.3,279.3l0.2-0.1l41-22.1V215l-41.3,3.8
			L322.3,279.3 M322.6,133.1l-0.2-0.1v60.3l41.3,3.9v-42.2L322.6,133.1 M322.6,107.6l41,29.6V95.3L322.3,47v60.4l0.2,0.1V107.6"/>
	</g>
	<g>
		<g>
			<path d="M509.4,254.7c-0.5-2.9-1.3-5.8-2.5-8.5c-1.2-2.7-3-5.2-5.3-7.6c-2.7-2.7-6-4.8-9.8-6.1c-3.8-1.3-8-2-12.5-2h-30.3v86
				h30.3c4.5,0,8.7-0.7,12.5-2c3.8-1.3,7.1-3.4,9.8-6.1c2.3-2.3,4.1-4.9,5.3-7.7c1.2-2.8,2.1-5.8,2.5-8.8c0.5-3.1,0.7-6.2,0.8-9.4
				c0-3.2,0.1-6.4,0.1-9.5c0-3.1,0-6.2-0.1-9.3C510.1,260.6,509.9,257.6,509.4,254.7z M496.5,288.7c-0.4,4.5-1.7,8-4,10.5
				c-3.5,3.9-8.4,5.8-14.6,5.8h-15.8v-62.6h15.8c6.2,0,11,1.9,14.6,5.8c2.2,2.5,3.6,5.8,4,9.8c0.4,4.1,0.6,9.1,0.6,15
				C497.1,279,496.9,284.2,496.5,288.7z M546.9,298.5l-14.6-43.1h-13.1l21.4,58.4l-3.4,9.5c-0.9,2.5-1.9,4.2-3.1,5.1
				c-1.2,0.9-3.1,1.4-5.7,1.4h-3.1v11.1h5c2.3,0,4.6-0.3,6.8-1c2.2-0.6,4.1-1.8,5.8-3.5c1.9-1.9,3.3-4.4,4.5-7.6l27.1-73.5h-13.2
				L546.9,298.5z M628.1,260.2c-1.9-1.8-4.1-3.1-6.6-4.1c-2.5-1-5.4-1.4-8.5-1.4c-3.1,0-6,0.6-8.9,1.7c-2.9,1.1-5.3,2.9-7.4,5.2
				v-6.2h-12.1v61.3h12.3v-37.3c0-4.7,1.2-8.1,3.7-10.3c2.5-2.2,5.5-3.3,8.9-3.3c3.5,0,6.4,1.1,8.8,3.3c2.4,2.2,3.6,5.6,3.6,10.4
				v37.3h12.3v-39.1c0-3.5-0.4-6.6-1.3-9.5C632.1,265.1,630.5,262.5,628.1,260.2z M673.1,254.6c-5.1,0-9.3,0.6-12.6,1.9
				c-3.3,1.2-6.5,3.6-9.4,6.9l8.1,7.6c1.7-2.2,3.5-3.7,5.4-4.6c1.9-0.9,4.6-1.3,8-1.3c4.8,0,8.3,0.9,10.3,2.8
				c2.1,1.9,3.1,4.8,3.1,8.6v4.3h-16.2c-7.1,0-12.4,1.7-15.9,5c-3.5,3.3-5.3,7.5-5.3,12.7c0,5.4,1.6,9.8,4.8,13.2
				c1.9,1.9,4.1,3.2,6.7,4.2c2.6,0.9,5.9,1.4,9.7,1.4c3.8,0,6.9-0.5,9.3-1.4c2.4-1,4.8-2.6,7-4.8v5.6h12.1v-41
				C698.4,261.6,690,254.6,673.1,254.6z M686,294.5c0,4.3-0.9,7.3-2.7,9.1c-1.6,1.6-3.3,2.6-5.2,3c-1.9,0.4-4,0.5-6.3,0.5
				c-3.9,0-6.7-0.7-8.5-2.2c-1.8-1.5-2.7-3.6-2.7-6.5c0-2.8,0.9-5,2.8-6.5c1.9-1.5,4.6-2.3,8.2-2.3H686V294.5z M797.9,260.2
				c-1.9-1.8-4.1-3.1-6.8-4.1c-2.7-1-5.6-1.4-8.7-1.4c-7.9,0-14.3,3-19.2,8.9c-3.9-6-9.7-8.9-17.4-8.9c-3.1,0-6,0.6-8.9,1.8
				c-2.9,1.2-5.3,2.9-7.4,5.1v-6.2h-12.1v61.3h12.3v-37.3c0-4.7,1.2-8.1,3.7-10.3c2.5-2.2,5.5-3.3,8.9-3.3c3.5,0,6.4,1.1,8.8,3.3
				c2.4,2.2,3.6,5.6,3.6,10.4v37.3h12.3v-37.9c0-2.2,0.3-4.1,1-5.7c0.7-1.6,1.6-3,2.8-4.1c1.2-1.1,2.5-1.9,4.1-2.4
				c1.5-0.5,3.1-0.8,4.8-0.8c3.5,0,6.4,1.1,8.8,3.3c2.4,2.2,3.6,5.6,3.6,10.4v37.3h12.3v-39.1c0-3.5-0.5-6.6-1.5-9.5
				C801.9,265.1,800.2,262.5,797.9,260.2z M864.4,261.9c-2-2.1-4.5-3.8-7.6-5.2c-3-1.4-6.6-2.1-10.8-2.1c-4.2,0-7.8,0.7-10.8,2.1
				c-3,1.4-5.5,3.1-7.5,5.2c-2.9,3.1-4.8,6.5-5.8,10.5c-1,3.9-1.5,8.4-1.5,13.6c0,5.2,0.5,9.8,1.5,13.7c1,3.9,2.9,7.4,5.8,10.5
				c2,2.1,4.5,3.8,7.5,5.2c3,1.4,6.6,2.1,10.8,2.1c4.2,0,7.8-0.7,10.8-2.1c3-1.4,5.5-3.1,7.6-5.2c2.9-3.1,4.8-6.5,5.8-10.5
				c1-3.9,1.5-8.5,1.5-13.7c0-5.2-0.5-9.7-1.5-13.6C869.2,268.4,867.3,265,864.4,261.9z M858.6,295.5c-0.5,3-1.7,5.4-3.5,7.2
				c-2.4,2.4-5.4,3.6-9.1,3.6c-3.5,0-6.5-1.2-8.9-3.6c-1.9-1.9-3-4.3-3.5-7.2c-0.5-3-0.7-6.2-0.7-9.5c0-3.4,0.2-6.6,0.7-9.5
				c0.5-3,1.7-5.4,3.5-7.2c2.3-2.3,5.3-3.5,8.9-3.5c3.7,0,6.7,1.2,9.1,3.5c1.9,1.9,3,4.3,3.5,7.2c0.5,3,0.7,6.2,0.7,9.5
				C859.3,289.3,859.1,292.5,858.6,295.5z M950.2,254.7c-0.5-2.9-1.3-5.8-2.5-8.5c-1.2-2.7-3-5.2-5.3-7.6c-2.7-2.7-6-4.8-9.8-6.1
				c-3.8-1.3-8-2-12.5-2h-30.3v86h30.3c4.5,0,8.7-0.7,12.5-2c3.8-1.3,7.1-3.4,9.8-6.1c2.3-2.3,4.1-4.9,5.3-7.7
				c1.2-2.8,2.1-5.8,2.5-8.8c0.5-3.1,0.7-6.2,0.8-9.4c0-3.2,0.1-6.4,0.1-9.5c0-3.1,0-6.2-0.1-9.3C951,260.6,950.7,257.6,950.2,254.7
				z M937.3,288.7c-0.4,4.5-1.7,8-4,10.5c-3.5,3.9-8.4,5.8-14.6,5.8H903v-62.6h15.8c6.2,0,11,1.9,14.6,5.8c2.2,2.5,3.6,5.8,4,9.8
				c0.4,4.1,0.6,9.1,0.6,15C937.9,279,937.7,284.2,937.3,288.7z M1030.1,285c-0.7-2.2-1.7-4.1-2.9-5.7c-1.2-1.6-2.6-3-4.1-4.2
				c-1.5-1.2-3.2-2.1-4.9-2.7c1.5-0.6,2.9-1.4,4.2-2.5c1.4-1.1,2.6-2.4,3.7-4s2-3.3,2.7-5.3c0.7-2,1-4.1,1-6.5
				c0-7.3-2.3-13.1-7-17.3c-4.6-4.2-11-6.3-19-6.3h-33.5v86h34.9c3.8,0,7.3-0.5,10.5-1.6c3.2-1,5.9-2.6,8.2-4.7
				c2.3-2.1,4.1-4.6,5.4-7.6c1.3-3,1.9-6.5,1.9-10.5C1031.2,289.6,1030.9,287.1,1030.1,285z M983.5,242.3h19.3c4.2,0,7.6,1,10.2,3.1
				c2.6,2.1,3.9,5.2,3.9,9.2c0,4-1.3,7.1-3.9,9.2c-2.6,2.1-6,3.1-10.2,3.1h-19.3V242.3z M1014.4,301.2c-2.4,2.5-5.9,3.7-10.5,3.7
				h-20.5v-26.2h20.5c4.6,0,8.1,1.2,10.5,3.6c2.4,2.4,3.6,5.6,3.6,9.4C1018.1,295.6,1016.9,298.8,1014.4,301.2z"/>
		</g>
	</g>
</g>
</svg>
