<?xml version="1.0" encoding="utf-8"?>
<!-- Generator: Adobe Illustrator 21.0.0, SVG Export Plug-In . SVG Version: 6.00 Build 0)  -->
<svg version="1.1" id="Layer_1" xmlns="http://www.w3.org/2000/svg" xmlns:xlink="http://www.w3.org/1999/xlink" x="0px" y="0px"
	 viewBox="0 0 1997 638" style="enable-background:new 0 0 1997 638;" xml:space="preserve">
<style type="text/css">
	.st0{opacity:0.6;}
	.st1{clip-path:url(#SVGID_2_);fill:#010101;}
	.st2{opacity:0.45;}
	.st3{clip-path:url(#SVGID_4_);fill:#010101;}
	.st4{opacity:0.8;}
	.st5{clip-path:url(#SVGID_6_);fill:#010101;}
	.st6{clip-path:url(#SVGID_8_);fill:#010101;}
	.st7{clip-path:url(#SVGID_10_);fill:#010101;}
</style>
<g>
	<g>
		<g>
			<path d="M553.9,441.4h146.8v-37.3H594.1v-62.6h96.5v-36.3h-96.5v-62.6h106.5v-37.3H553.9V441.4z M799.8,404.3
				c-3.4-3.2-5-8.4-5-15.5v-75.2h33.8v-34.3h-33.8v-49.6h-35.2V254c0,7.5-2.1,13.6-6.4,18.3c-4.2,4.7-10.5,7-18.8,7h-8.4v34.3h30.2
				v81.6c0,15.1,4.4,26.9,13.1,35.5c8.7,8.5,20.7,12.8,35.9,12.8c10.1,0,18-1.2,23.8-3.7v-32c-4.5,0.9-8.9,1.3-13.4,1.3
				C808.4,409.1,803.2,407.5,799.8,404.3z M949.2,274.6c-20.6,0-36.1,6.8-46.6,20.3v-94.6h-38.9v241h38.9v-95.2
				c0.4-10.7,3.6-19.4,9.5-26.3c5.9-6.9,14-10.3,24.3-10.3c11.6,0,20.1,3.3,25.5,9.8c5.4,6.5,8,15.3,8,26.1v95.9h38.9V338.9
				c0-18.9-5.1-34.3-15.4-46.3C983.2,280.6,968.5,274.6,949.2,274.6z M1122.8,274.3c-21.4,0-40,8-55.8,24s-23.6,36.4-23.6,61.3
				c0,26.4,8.1,47.5,24.3,63.3c16.2,15.8,35.9,23.6,59.1,23.6c18.8,0,34.6-4.8,47.4-14.5c12.8-9.7,21.6-21.9,26.3-36.8l-32.8-10.3
				c-6.3,18.9-19.9,28.3-40.9,28.3c-12.1,0-22.4-4-31-12c-8.6-8-13.1-18.1-13.6-30.3h119.3c0.7-1.3,1-5.4,1-12.3
				c0-25.7-7-46.2-21.1-61.4C1167.4,281.9,1147.8,274.3,1122.8,274.3z M1083.3,342.5c0.7-9.5,4.6-17.9,11.7-25.1
				c7.1-7.2,16.5-10.8,28.1-10.8c12.7,0,22.5,3.4,29.3,10.3c6.8,6.9,10.4,15.4,10.9,25.6H1083.3z M1296,284.8
				c-8.5,5-14.6,11.8-18.4,20.5v-26h-37.9v162.1h38.9v-77.2c0-31.7,14.6-47.6,43.9-47.6c4,0,8.3,0.3,12.7,1v-39.3
				c-3.4-0.7-6.8-1-10.4-1C1314.1,277.3,1304.5,279.8,1296,284.8z M1432.7,274.3c-21.4,0-40,8-55.8,24c-15.7,16-23.6,36.4-23.6,61.3
				c0,26.4,8.1,47.5,24.3,63.3c16.2,15.8,35.9,23.6,59.1,23.6c18.8,0,34.6-4.8,47.4-14.5c12.8-9.7,21.6-21.9,26.3-36.8l-32.8-10.3
				c-6.3,18.9-19.9,28.3-40.9,28.3c-12.1,0-22.4-4-31-12c-8.6-8-13.1-18.1-13.6-30.3h119.3c0.7-1.3,1-5.4,1-12.3
				c0-25.7-7-46.2-21.1-61.4C1477.3,281.9,1457.7,274.3,1432.7,274.3z M1393.2,342.5c0.7-9.5,4.6-17.9,11.7-25.1
				c7.1-7.2,16.5-10.8,28.1-10.8c12.7,0,22.5,3.4,29.3,10.3c6.8,6.9,10.4,15.4,10.9,25.6H1393.2z M1689.4,279.3h-38.9v95.9
				c0,10.9-3,19.6-8.9,26.3c-5.9,6.7-14.4,10-25.3,10c-11.2,0-19.4-3.4-24.8-10.3c-5.4-6.9-8-15.8-8-26.6v-95.2h-38.9v102.2
				c0,18.6,5.5,34.1,16.6,46.3c11.1,12.2,26.1,18.3,45.1,18.3c9.8,0,19-2,27.6-6c8.6-4,14.8-9.5,18.6-16.6c0,7.1,0.4,13.1,1.3,18
				h37.2c-1.1-10-1.7-19.9-1.7-29.6V279.3z M1967.8,290.2c-11.2-10.4-24.8-15.6-40.9-15.6c-23.9,0-41.5,9.5-52.9,28.6
				c-4.2-9.3-10.7-16.4-19.4-21.3c-8.7-4.9-18.5-7.3-29.5-7.3c-9.6,0-18.9,2.2-28,6.7c-9,4.4-15.8,10.7-20.3,18.6v-20.6h-37.2v162.1
				h38.5v-96.2c0-10.4,3.1-19,9.2-25.8c6.1-6.8,14.3-10.2,24.6-10.2c10.5,0,18.4,3.1,23.6,9.2c5.2,6.1,7.9,14.1,7.9,24.1v98.9h38.2
				v-96.2c0-10.2,3.1-18.8,9.4-25.6c6.3-6.9,14.4-10.3,24.5-10.3c10.5,0,18.4,3.1,23.6,9.2c5.2,6.1,7.9,14.1,7.9,24.1v98.9h37.5
				V336.2C1984.5,316,1979,300.7,1967.8,290.2z"/>
		</g>
	</g>
	<g class="st0">
		<g>
			<defs>
				<rect id="SVGID_1_" x="9.7" y="238.5" width="384" height="200.8"/>
			</defs>
			<clipPath id="SVGID_2_">
				<use xlink:href="#SVGID_1_"  style="overflow:visible;"/>
			</clipPath>
			<path class="st1" d="M201.7,238.5l-192,87.3l192,113.4l191.9-113.4L201.7,238.5z"/>
		</g>
	</g>
	<g class="st2">
		<g>
			<defs>
				<rect id="SVGID_3_" x="9.7" y="7.2" width="192" height="432"/>
			</defs>
			<clipPath id="SVGID_4_">
				<use xlink:href="#SVGID_3_"  style="overflow:visible;"/>
			</clipPath>
			<path class="st3" d="M9.7,325.8l192,113.4V7.2L9.7,325.8z"/>
		</g>
	</g>
	<g class="st4">
		<g>
			<defs>
				<rect id="SVGID_5_" x="201.7" y="7.2" width="192" height="432"/>
			</defs>
			<clipPath id="SVGID_6_">
				<use xlink:href="#SVGID_5_"  style="overflow:visible;"/>
			</clipPath>
			<path class="st5" d="M201.7,7.2v432l191.9-113.4L201.7,7.2z"/>
		</g>
	</g>
	<g class="st2">
		<g>
			<defs>
				<rect id="SVGID_7_" x="9.7" y="362.2" width="192" height="270.5"/>
			</defs>
			<clipPath id="SVGID_8_">
				<use xlink:href="#SVGID_7_"  style="overflow:visible;"/>
			</clipPath>
			<path class="st6" d="M9.7,362.2l192,270.5V475.6L9.7,362.2z"/>
		</g>
	</g>
	<g class="st4">
		<g>
			<defs>
				<rect id="SVGID_9_" x="201.7" y="362.2" width="192.1" height="270.5"/>
			</defs>
			<clipPath id="SVGID_10_">
				<use xlink:href="#SVGID_9_"  style="overflow:visible;"/>
			</clipPath>
			<path class="st7" d="M201.7,475.6v157.1l192.1-270.5L201.7,475.6z"/>
		</g>
	</g>
</g>
</svg>
