<?xml version="1.0" encoding="utf-8"?>
<!-- Generator: Adobe Illustrator 21.0.0, SVG Export Plug-In . SVG Version: 6.00 Build 0)  -->
<svg version="1.1"
	 id="svg2816" inkscape:version="0.92.3 (2405546, 2018-03-11)" sodipodi:docname="cassandra-ar21.svg" xmlns:cc="http://creativecommons.org/ns#" xmlns:dc="http://purl.org/dc/elements/1.1/" xmlns:inkscape="http://www.inkscape.org/namespaces/inkscape" xmlns:rdf="http://www.w3.org/1999/02/22-rdf-syntax-ns#" xmlns:sodipodi="http://sodipodi.sourceforge.net/DTD/sodipodi-0.dtd" xmlns:svg="http://www.w3.org/2000/svg"
	 xmlns="http://www.w3.org/2000/svg" xmlns:xlink="http://www.w3.org/1999/xlink" x="0px" y="0px" viewBox="0 0 226 46.7"
	 style="enable-background:new 0 0 226 46.7;" xml:space="preserve">
<style type="text/css">
	.st0{fill:#BBE6FB;}
	.st1{opacity:0.35;clip-path:url(#SVGID_2_);}
	.st2{fill:#FFFFFF;}
	.st3{fill:#1287B1;}
	.st4{clip-path:url(#SVGID_4_);}
	.st5{opacity:0.35;clip-path:url(#SVGID_6_);}
	.st6{fill:#373535;}
	.st7{opacity:0.35;clip-path:url(#SVGID_8_);}
</style>
<sodipodi:namedview  bordercolor="#666666" borderopacity="1" gridtolerance="10" guidetolerance="10" id="namedview123" inkscape:current-layer="svg2816" inkscape:cx="65.597258" inkscape:cy="32.301547" inkscape:pageopacity="0" inkscape:pageshadow="2" inkscape:window-height="1001" inkscape:window-maximized="1" inkscape:window-width="1920" inkscape:window-x="-9" inkscape:window-y="-9" inkscape:zoom="9.7301951" objecttolerance="10" pagecolor="#ffffff" showgrid="false">
	</sodipodi:namedview>
<title  id="title3537">Apache Cassandra</title>
<g>
	<g id="g2830">
		<g id="g2836" transform="translate(210.8784,690.4834)">
			<path id="path2838" inkscape:connector-curvature="0" class="st0" d="M-143.8-674.7c0.6,7.1-10.5,13.8-24.8,15
				c-14.3,1.2-26.4-3.5-27-10.6c-0.6-7.1,10.5-13.8,24.8-15C-156.5-686.5-144.4-681.7-143.8-674.7"/>
		</g>
	</g>
	<g id="g2840">
		<g id="g2842">
			<g id="g2850">
			</g>
			<g id="g2848">
				<g id="g2856">
					<defs>
						<rect id="SVGID_1_" x="23.1" y="6.1" width="33.8" height="23.8"/>
					</defs>
					<clipPath id="SVGID_2_">
						<use xlink:href="#SVGID_1_"  style="overflow:visible;"/>
					</clipPath>
					<g id="g2858" class="st1">
						<g id="g2860" transform="translate(141.3843,715.9233)">
							<path id="path2862" inkscape:connector-curvature="0" class="st2" d="M-100.9-709.8c-5.5-0.1-11.8,2.1-16.6,4.1
								c-0.5,1.4-0.8,2.9-0.8,4.5c0,8.4,7.6,15.2,16.9,15.2s16.9-6.8,16.9-15.2c0-2.7-0.8-5.1-2.1-7.3
								C-90.4-709.1-95.6-709.7-100.9-709.8"/>
						</g>
					</g>
				</g>
			</g>
		</g>
	</g>
	<g id="g2866">
		<g id="g2872" transform="translate(140.1528,715.9277)">
			<path id="path2874" inkscape:connector-curvature="0" class="st2" d="M-100.1-709.8c-3-0.2-8.2,1.4-12.6,3c-0.7,1.6-1,3.3-1,5.1
				c0,7.3,6.7,13.3,13.7,13.3c7,0,13.2-6,13.7-13.3c0.2-2.4-0.7-4.6-1.8-6.6C-92.7-709.2-97.4-709.7-100.1-709.8"/>
		</g>
	</g>
	<g id="g2906">
		<g id="g2912" transform="translate(119.5596,695.7944)">
			<path id="path2914" inkscape:connector-curvature="0" class="st3" d="M-87.4-682c0.4-0.8,0.8-1.6,1.4-2.3
				c-0.1-0.2-0.1-0.3-0.1-0.5c0-0.8,0.7-1.5,1.5-1.5c0.2,0,0.4,0,0.6,0.1c2.5-1.9,5.7-2.7,9-2c0.3,0.1,0.6,0.1,0.9,0.2
				c-3.2-0.4-6.6,0.5-9.1,2.5c0.1,0.2,0.1,0.4,0.1,0.6c0,0.8-0.7,1.5-1.5,1.5c-0.2,0-0.4,0-0.5-0.1c-0.6,0.8-1,1.6-1.4,2.5
				c1.2,1.3,2.6,2.3,4.2,2.9c0-0.1,0-0.2,0-0.2c0-2.5,2-4.5,4.5-4.5c2.2,0,4.1,1.6,4.4,3.7c1.1-0.7,2.1-1.6,2.9-2.7
				c-0.2-0.2-0.3-0.5-0.3-0.9c0-0.7,0.6-1.4,1.4-1.4c0.1,0,0.2,0,0.3,0c0.4-0.9,0.7-1.8,0.9-2.7c-3.9-2.9-11.4-2.5-11.4-2.5
				s-6-0.3-10,1.7C-89.4-685.4-88.6-683.6-87.4-682"/>
		</g>
		<g id="g2916" transform="translate(169.0396,699.8481)">
			<path id="path2918" inkscape:connector-curvature="0" class="st3" d="M-118-687.6c0.3,0.2,0.5,0.6,0.5,1c0,0.7-0.6,1.4-1.4,1.4
				c-0.1,0-0.1,0-0.2,0c-0.8,1.3-2,2.4-3.3,3.3c1.9,0.3,3.8,1.1,5.3,2.4c1.1-2,1.7-4.2,1.7-6.7c0-1.8-0.8-3.2-2-4.2
				C-117.5-689.5-117.7-688.5-118-687.6"/>
		</g>
		<g id="g2920" transform="translate(126.3252,666.6401)">
			<path id="path2922" inkscape:connector-curvature="0" class="st3" d="M-91.6-641.7c0.7-1.9,1.8-3.5,3.4-4.8
				c-0.2-0.3-0.4-0.7-0.6-1c-1.9-0.6-3.6-1.7-4.9-3.1c0,0,0,0.1,0,0.1c-0.2,1.1-0.3,2.2-0.2,3.3c0.9,0.2,1.6,1,1.6,1.9
				c0,0.6-0.2,1.1-0.6,1.4C-92.5-643.1-92.1-642.4-91.6-641.7"/>
		</g>
		<g id="g2924" transform="translate(125.4619,663.7983)">
			<path id="path2926" inkscape:connector-curvature="0" class="st3" d="M-91.1-637.8c-0.8-0.8-1.5-1.7-2-2.7c-0.1,0-0.2,0-0.3,0
				c-1.1,0-2-0.9-2-2c0-0.8,0.5-1.4,1.1-1.8c-0.1-1.2-0.1-2.5,0.2-3.7c0.1-0.4,0.2-0.7,0.3-1.1c-1.2-1.8-1.9-3.9-1.9-6.2
				c0-0.1,0-0.2,0-0.2c-2,1-3.5,2.6-3.5,5.1C-99.2-644.6-95.9-639.9-91.1-637.8C-91.1-637.7-91.1-637.7-91.1-637.8"/>
		</g>
		<g id="g2928" transform="translate(155.8091,682.1509)">
			<path id="path2930" inkscape:connector-curvature="0" class="st3" d="M-109.8-663.1c-0.6,1.8-2.3,3-4.2,3c-1.1,0-2-0.4-2.8-1
				c-1.6,1.2-2.8,2.9-3.5,4.8c0.3,0.4,0.7,0.7,1,1c1.1,0.3,2.3,0.4,3.5,0.4c4.8,0,9-2.5,11.5-6.2C-106-662.2-107.9-663-109.8-663.1"
				/>
		</g>
	</g>
	<g id="g2932">
		<g id="g2934">
			<g id="g2942">
			</g>
			<g id="g2940">
				<g id="g2948">
					<defs>
						<rect id="SVGID_3_" x="32.8" y="9" width="17.6" height="17.5"/>
					</defs>
					<clipPath id="SVGID_4_">
						<use xlink:href="#SVGID_3_"  style="overflow:visible;"/>
					</clipPath>
					<g id="g2950" class="st4">
						<g id="g2952" transform="translate(156.2222,685.187)">
							<path id="path2954" inkscape:connector-curvature="0" class="st2" d="M-110.1-667.3l4.2-1l-4.2-0.2l3.4-2.6l-3.9,1.4l2.6-3.6
								l-3.6,2.4l1.3-4.3l-2.5,3.5l-0.1-4.4l-1.6,3.9l-1.4-4l0.1,4.7l-2.4-4.2l1.3,4.5l-3.8-2.8l3,3.8l-4.7-1.7l3.7,2.8l-4.8,0.1
								l4.9,1.3l-4.9,1.1l4.9,0.4l-4.1,2.6l4.2-1.5l-2.9,3.7l3.7-3l-1.3,5l2.9-4l-0.4,4.8l1.6-4.3l1.4,4.6l0.3-4.6l2,3.9l-1.2-4.5
								l3.7,2.9l-2.4-3.7l4.1,1.6l-3.1-3.1l4.2,0.3L-110.1-667.3z"/>
						</g>
					</g>
				</g>
			</g>
		</g>
	</g>
	<g id="g2984">
		<g id="g2986">
			<g id="g2994">
			</g>
			<g id="g2992">
				<g id="g3000">
					<defs>
						<rect id="SVGID_5_" x="1.5" y="16.5" width="76.3" height="28.2"/>
					</defs>
					<clipPath id="SVGID_6_">
						<use xlink:href="#SVGID_5_"  style="overflow:visible;"/>
					</clipPath>
					<g id="g3002" class="st5">
						<g id="g3004" transform="translate(39.5195,660.6802)">
							<path id="path3006" inkscape:connector-curvature="0" class="st6" d="M-38-633.5c6.8,3.4,13.1-0.5,20.9,1.7
								c6,1.7,13.3,3.8,23.1,2.3c9.9-1.4,18.3-5.7,22.4-13.4c1.3-3.4,6.4,0.8,6.4,0.8s-3.7-1.6-3.6-0.8c0.1,0.7,5.6,3.3,5.6,3.3
								s-5-1.6-4.7-0.4c0.3,1.2,6.2,5.8,6.2,5.8s-6.7-5.1-7.3-4.4c-0.6,0.7,2.9,3.5,2.9,3.5s-5.7-3.5-7.7-2.5
								c-1.4,0.7,5.9,5.6,5.9,5.6s-4.8-3.6-5.9-2.7c-1.1,1,5.4,8.8,5.4,8.8s-7.4-8-8.1-7.6c-0.7,0.4,2,4.2,2,4.2s-3.6-4-4.6-3.3
								c-1,0.7,5.2,11,5.2,11s-6.7-10.6-9.5-8.8c4.4,9.6,2.7,10.9,2.7,10.9s-0.6-9.7-6-9.5c-2.7,0.1,1.3,7.3,1.3,7.3
								s-3.7-6.5-6.2-6.4c4.6,8.6,2.9,12.1,2.9,12.1s0.8-7.4-5.4-11.5c2.3,2.1-1.5,11.5-1.5,11.5s3.3-13.8-2.5-11.2
								c-0.9,0.4-0.1,6.9-0.1,6.9s-1.2-7.4-2.9-7c-1,0.2-6.5,10.3-6.5,10.3s4.5-10.9,3.1-10.4c-1,0.3-2.9,4.8-2.9,4.8s0.9-4.4,0-4.7
								c-0.9-0.3-6,4.7-6,4.7s3.8-4.4,3.1-5.3c-1-1.4-2.1-1.4-3.5-0.9c-2,0.8-4.7,4.4-4.7,4.4s2.7-3.7,2.2-5.1
								c-0.8-2.2-8.4,4.3-8.4,4.3s4.5-4.3,3.5-5.2c-1-0.9-6.7-0.6-8.4-0.6C-34.6-631-36.4-632.2-38-633.5"/>
						</g>
					</g>
				</g>
			</g>
			<g id="g3008" transform="translate(38.8408,662.7183)">
				<path id="path3010" inkscape:connector-curvature="0" class="st6" d="M-37.6-636.3c6.8,3.4,13.1-0.5,20.9,1.7
					c6,1.7,13.3,3.8,23.1,2.3c9.9-1.4,18.3-5.7,22.4-13.4c1.3-3.4,6.4,0.8,6.4,0.8s-3.7-1.6-3.6-0.8c0.1,0.7,5.6,3.3,5.6,3.3
					s-5-1.6-4.7-0.4c0.3,1.2,6.2,5.8,6.2,5.8s-6.7-5.1-7.3-4.4c-0.6,0.7,2.9,3.5,2.9,3.5s-5.7-3.5-7.7-2.5c-1.4,0.7,5.9,5.6,5.9,5.6
					s-4.8-3.6-5.9-2.7c-1.1,1,5.4,8.8,5.4,8.8s-7.4-8-8.1-7.6c-0.7,0.4,2,4.2,2,4.2s-3.6-4-4.6-3.3c-1,0.7,5.2,11,5.2,11
					s-6.7-10.6-9.5-8.8c4.4,9.6,2.7,10.9,2.7,10.9s-0.6-9.7-6-9.5c-2.7,0.1,1.3,7.3,1.3,7.3s-3.7-6.5-6.2-6.4
					c4.6,8.6,2.9,12.1,2.9,12.1s0.8-7.4-5.4-11.5c2.3,2.1-1.5,11.5-1.5,11.5s3.3-13.8-2.5-11.2c-0.9,0.4-0.1,6.9-0.1,6.9
					s-1.2-7.4-2.9-7c-1,0.2-6.5,10.3-6.5,10.3s4.5-10.9,3.1-10.4c-1,0.3-2.9,4.8-2.9,4.8s0.9-4.4,0-4.7c-0.9-0.3-6,4.7-6,4.7
					s3.8-4.4,3.1-5.3c-1-1.4-2.1-1.4-3.5-0.9c-2,0.8-4.7,4.4-4.7,4.4s2.7-3.7,2.2-5.1c-0.8-2.2-8.4,4.3-8.4,4.3s4.5-4.3,3.5-5.2
					c-1-0.9-6.7-0.6-8.4-0.6C-34.2-633.8-36-635-37.6-636.3"/>
			</g>
		</g>
	</g>
	<g id="g2956">
		<g id="g2958">
			<g id="g2966">
			</g>
			<g id="g2964">
				<g id="g2972">
					<defs>
						<rect id="SVGID_7_" x="1.8" y="2.2" width="81.3" height="23.7"/>
					</defs>
					<clipPath id="SVGID_8_">
						<use xlink:href="#SVGID_7_"  style="overflow:visible;"/>
					</clipPath>
					<g id="g2974" class="st7">
						<g id="g2976" transform="translate(40.4033,664.3701)">
							<path id="path2978" inkscape:connector-curvature="0" class="st6" d="M-38.6-638.6c12.9-12.9,23.2-16.9,32.6-18.7
								c1.2-0.2,1.5-2.9,1.5-2.9s0.2,2,1,2.3c0.9,0.3,2-3.1,2-3.1s-1,3,0,3.2c1,0.2,2.9-2.9,2.9-2.9s-0.8,2.7-0.3,2.9
								c0.5,0.2,3.1-3.9,3.1-3.9s-1.6,2.7-0.1,2.9c1.5,0.3,3.6-1.8,3.6-1.8s-1.7,1.9-0.9,2.2c3.2,1.1,5.8-3,5.8-3s-0.6,1.8-2.2,3.8
								c3.4,0.9,5.9-4.2,5.9-4.2l-2.5,5.1c1.3,0.7,6.5-5.3,6.5-5.3s-2.7,4.7-4.2,5.6c0.9,0.7,4-2.1,4-2.1s-2.5,3.1-1.6,3.3
								c1.4,1.1,6.5-5.8,6.5-5.8s-2,4.1-4.9,7.3c2.5,1.2,8.6-6.7,8.6-6.7s-0.2,2.5-4.6,6.5c3.3-0.4,7.5-6.7,7.5-6.7s-1.6,4.7-5.3,8
								c3.2-0.3,8.4-8.3,8.4-8.3s-2,5.5-6.1,8.8c4.5,1,11-5.7,11-5.7s-2.6,4.8-5.9,6.7c3.7,1.4,8.8-4.5,8.8-4.5s-5.1,7.9-13.3,7.5
								c-2.7-0.1-10.8-8.1-28.1-7.5C-21.5-654.8-26.4-645.1-38.6-638.6"/>
						</g>
					</g>
				</g>
			</g>
			<g id="g2980" transform="translate(41.7861,666.9326)">
				<path id="path2982" inkscape:connector-curvature="0" class="st6" d="M-39.4-642.1C-26.5-655-16.2-659-6.8-660.8
					c1.2-0.2,1.5-2.9,1.5-2.9s0.2,2,1,2.3c0.9,0.3,2-3.1,2-3.1s-1,3,0,3.2c1,0.2,2.9-2.9,2.9-2.9s-0.8,2.7-0.3,2.9
					c0.5,0.2,3.1-3.9,3.1-3.9s-1.6,2.7-0.1,2.9c1.5,0.3,3.6-1.8,3.6-1.8s-1.7,1.9-0.9,2.2c3.2,1.1,5.8-3,5.8-3s-0.6,1.8-2.2,3.8
					c3.4,0.9,5.9-4.2,5.9-4.2l-2.5,5.1c1.3,0.7,6.5-5.3,6.5-5.3s-2.7,4.7-4.2,5.6c0.9,0.7,4-2.1,4-2.1s-2.5,3.1-1.6,3.3
					c1.4,1.1,6.5-5.8,6.5-5.8s-2,4.1-4.9,7.3c2.5,1.2,8.6-6.7,8.6-6.7s-0.2,2.5-4.6,6.5c3.3-0.4,7.5-6.7,7.5-6.7s-1.6,4.7-5.3,8
					c3.2-0.3,8.4-8.3,8.4-8.3s-2,5.5-6.1,8.8c4.5,1,11-5.7,11-5.7s-2.6,4.8-5.9,6.7c3.7,1.4,8.8-4.5,8.8-4.5s-5.1,7.9-13.3,7.5
					c-2.7-0.1-10.8-8.1-28.1-7.5C-22.4-658.4-27.2-648.7-39.4-642.1"/>
			</g>
		</g>
	</g>
</g>
<g id="g3014">
	<g id="g3020" transform="translate(61.4912,609.1372)">
		<path id="path3022" inkscape:connector-curvature="0" class="st6" d="M29.6-589.8c1.4,0,2.7,0.3,3.3,1c0.1,1-0.8,2.6-1.4,2.6
			c-0.7-0.3-1.3-0.4-2.1-0.4c-3.3,0-4.9,3.4-4.9,6.7c0,2.1,0.7,3.4,2.4,3.4c1.8,0,3.6-1.2,4.6-2.1c0.3,0.2,0.6,0.8,0.6,1.4
			c0,0.7-0.2,1.4-0.9,2.1c-1.2,1.2-3.1,2.1-5.9,2.1c-3.2,0-5.5-1.8-5.5-6.1C19.8-584.7,23.5-589.8,29.6-589.8L29.6-589.8z"/>
	</g>
	<g id="g3024" transform="translate(75.6021,591.6636)">
		<path id="path3026" inkscape:connector-curvature="0" class="st6" d="M26.1-559.2c1.8,0,5-3.1,5.9-9c0-0.4,0.1-0.5,0.1-0.8
			c-0.4-0.1-0.9-0.3-1.5-0.3c-1.3,0-2.7,0.4-3.9,2.1c-1.3,1.8-1.8,4-1.8,5.7C25-559.9,25.4-559.2,26.1-559.2L26.1-559.2z
			 M20.3-560.8c0-2.1,0.7-5.8,3.4-8.6c2.3-2.4,5.1-3,7.7-3c1.7,0,4,0.5,5.4,0.8c-0.4,1.6-1.2,7.6-1.6,11c-0.2,1.5-0.3,3.5-0.2,4.3
			c-1.2,0.5-3.4,0.6-4,0.6c-0.3,0-0.4-1.5-0.3-2.9c0-0.5,0.1-1.2,0.1-1.4c-1.4,2.3-4.2,4.3-7.1,4.3
			C21.7-555.5,20.3-557.2,20.3-560.8L20.3-560.8z"/>
	</g>
	<g id="g3028" transform="translate(101.8579,609.1372)">
		<path id="path3030" inkscape:connector-curvature="0" class="st6" d="M19.6-589.8c1.5,0,2.9,0.5,3.5,1.2c0,1-0.8,2.7-2.1,2.2
			c-0.5-0.2-1.1-0.3-1.8-0.3c-1,0-1.8,0.4-1.8,1.3c0,0.7,0.5,1.2,2.9,2.9c1.7,1.3,2.4,2.4,2.4,4c0,2.6-2.5,5.5-6.8,5.5
			c-1.8,0-3.3-0.7-3.8-1.4c-0.6-1.1-0.1-3.2,0.6-2.9c0.9,0.5,2.5,1,3.8,1c1.2,0,1.9-0.5,1.9-1.3c0-0.6-0.5-1.2-2.7-2.7
			c-1.8-1.4-2.4-2.6-2.4-4.1C13.3-587.3,15.8-589.8,19.6-589.8L19.6-589.8z"/>
	</g>
	<g id="g3032" transform="translate(118.417,609.1372)">
		<path id="path3034" inkscape:connector-curvature="0" class="st6" d="M15.5-589.8c1.5,0,2.9,0.5,3.5,1.2c0,1-0.8,2.7-2.1,2.2
			c-0.5-0.2-1.1-0.3-1.8-0.3c-1,0-1.8,0.4-1.8,1.3c0,0.7,0.5,1.2,2.9,2.9c1.7,1.3,2.4,2.4,2.4,4c0,2.6-2.5,5.5-6.8,5.5
			c-1.8,0-3.3-0.7-3.8-1.4c-0.6-1.1-0.1-3.2,0.6-2.9c0.9,0.5,2.5,1,3.8,1c1.2,0,1.9-0.5,1.9-1.3c0-0.6-0.5-1.2-2.7-2.7
			c-1.8-1.4-2.4-2.6-2.4-4.1C9.2-587.3,11.7-589.8,15.5-589.8L15.5-589.8z"/>
	</g>
	<g id="g3036" transform="translate(133.5361,591.6636)">
		<path id="path3038" inkscape:connector-curvature="0" class="st6" d="M11.8-559.2c1.8,0,5-3.1,5.9-9c0-0.4,0.1-0.5,0.1-0.8
			c-0.4-0.1-0.9-0.3-1.5-0.3c-1.3,0-2.7,0.4-3.9,2.1c-1.3,1.8-1.8,4-1.8,5.7C10.6-559.9,11-559.2,11.8-559.2L11.8-559.2z M6-560.8
			c0-2.1,0.7-5.8,3.4-8.6c2.3-2.4,5.1-3,7.7-3c1.7,0,4,0.5,5.5,0.8c-0.4,1.6-1.2,7.6-1.6,11c-0.2,1.5-0.3,3.5-0.2,4.3
			c-1.2,0.5-3.4,0.6-4,0.6c-0.3,0-0.4-1.5-0.3-2.9c0-0.5,0.1-1.2,0.1-1.4c-1.4,2.3-4.2,4.3-7.1,4.3C7.3-555.5,6-557.2,6-560.8
			L6-560.8z"/>
	</g>
	<g id="g3040" transform="translate(158.688,602.897)">
		<path id="path3042" inkscape:connector-curvature="0" class="st6" d="M5.5-578.8c1.7-2.7,3.8-4.7,6.9-4.7c2.6,0,3.4,2.4,2.9,5.8
			c-0.3,1.6-0.7,3.9-1,6c-0.3,1.8-0.4,3.4-0.4,4.4c-0.9,0.5-3.7,0.6-4.3,0.6c-0.3,0-0.3-2,0-4.1c0.3-1.7,0.9-4.9,1.2-6.7
			c0.2-1,0.1-2.3-0.9-2.3c-1.3,0-4.5,2.1-6.1,10.9c-0.1,0.7-0.4,1.2-0.8,1.4c-0.5,0.3-1.7,0.6-4,0.7c0.4-2.2,1.1-6.7,1.6-10
			c0.5-3,0.6-5,0.5-5.7c0.6-0.2,3.8-0.9,4.2-0.9c0.4,0,0.5,1.1,0.1,3.8c0,0.3-0.1,0.6-0.1,0.9H5.5z"/>
	</g>
	<g id="g3044" transform="translate(183.0728,591.7114)">
		<path id="path3046" inkscape:connector-curvature="0" class="st6" d="M-0.5-559.2c1.6,0,4.8-3,5.7-8.2c0-0.3,0.1-0.8,0.2-1.2
			c-0.5-0.4-1.1-0.7-2.1-0.7c-3.6,0-5.3,4.4-5.3,7.5C-1.9-560.1-1.3-559.2-0.5-559.2L-0.5-559.2z M-2.9-555.5
			c-2.3,0-3.8-2.1-3.8-5.6c0-5.8,3.6-11.2,9.8-11.2c1.1,0,2.1,0.3,2.7,0.6c0.3-1.7,1.1-6.8,1.1-8.3c1-0.2,3.2-0.5,4.1-0.5
			c0.4,0,0.5,0.4,0.4,1.3c-0.9,5.4-2.4,15.8-2.7,18.1c-0.2,1.9-0.3,3.9-0.2,4.9c-1.2,0.5-3.5,0.6-4.1,0.6c-0.3,0-0.4-1.7-0.3-3.1
			c0-0.5,0.1-1.2,0.1-1.3C2.4-557-0.1-555.5-2.9-555.5L-2.9-555.5z"/>
	</g>
	<g id="g3048" transform="translate(208.0317,602.2241)">
		<path id="path3050" inkscape:connector-curvature="0" class="st6" d="M-6.7-577.7c1.9-4.3,4.2-5.2,5.7-5.2c0.5,0,1.2,0.3,1.5,0.6
			c0.1,1.2-0.8,3.6-1.6,4.5c-0.4-0.2-1-0.4-1.6-0.4c-1.2,0-3.6,1.9-5.2,10.1c-0.1,0.7-0.3,1-0.7,1.2c-0.6,0.4-3,0.6-4.2,0.7
			c0.5-3,1.5-9,1.8-12.5c0.1-0.9,0.1-2.6,0.1-3.2c0.7-0.3,3.4-0.9,4-0.9c0.3,0,0.6,2,0.1,5.2H-6.7z"/>
	</g>
	<g id="g3052" transform="translate(224.9751,591.6636)">
		<path id="path3054" inkscape:connector-curvature="0" class="st6" d="M-10.9-559.2c1.8,0,5-3.1,5.9-9c0-0.4,0.1-0.5,0.1-0.8
			c-0.4-0.1-0.9-0.3-1.5-0.3c-1.3,0-2.7,0.4-3.9,2.1c-1.3,1.8-1.8,4-1.8,5.7C-12.1-559.9-11.7-559.2-10.9-559.2L-10.9-559.2z
			 M-16.7-560.8c0-2.1,0.7-5.8,3.4-8.6c2.3-2.4,5.1-3,7.7-3c1.7,0,4,0.5,5.5,0.8c-0.4,1.6-1.2,7.6-1.6,11c-0.2,1.5-0.3,3.5-0.2,4.3
			c-1.2,0.5-3.4,0.6-4,0.6c-0.3,0-0.4-1.5-0.3-2.9c0-0.5,0.1-1.2,0.1-1.4c-1.4,2.3-4.2,4.3-7.1,4.3
			C-15.4-555.5-16.7-557.2-16.7-560.8L-16.7-560.8z"/>
	</g>
</g>
</svg>
