<?xml version="1.0" encoding="utf-8"?>
<!-- Generator: Adobe Illustrator 21.0.0, SVG Export Plug-In . SVG Version: 6.00 Build 0)  -->
<svg version="1.1" id="Layer_1" xmlns="http://www.w3.org/2000/svg" xmlns:xlink="http://www.w3.org/1999/xlink" x="0px" y="0px"
	 viewBox="0 0 2031.7 638" style="enable-background:new 0 0 2031.7 638;" xml:space="preserve">
<style type="text/css">
	.st0{fill:none;stroke:#000000;stroke-width:6;stroke-miterlimit:10;}
	.st1{fill:none;stroke:#000000;stroke-width:4;stroke-miterlimit:10;}
	.st2{fill:none;stroke:#000000;stroke-width:3;stroke-miterlimit:10;}
</style>
<g>
	<g>
		<path d="M708.6,306.3h-84.3v-73.5h-30.4v177.9h30.4v-76h84.3v76h30.6V232.8h-30.6V306.3z M831.4,365.8L796,288.5h-33.2l52.7,107.6
			l-29.6,64h31.4l78.5-171.6h-31.2L831.4,365.8z M984.9,285.7c-9.1,0-17.1,1.8-24.1,5.5c-6.9,3.7-12,8.3-15.2,13.8v-16.6h-28.4
			v169.9h29.1v-61.5c3.4,4.9,8.4,8.9,14.9,12c6.6,3.2,14.1,4.8,22.5,4.8c17.4,0,31.4-6.1,42-18.2c10.6-12.1,16-27.5,16-46
			c0-18.6-5.1-33.8-15.2-45.8C1016.6,291.7,1002.6,285.7,984.9,285.7z M1003.3,377.3c-6.2,7-14.1,10.5-23.9,10.5
			c-9.8,0-17.8-3.5-23.9-10.5c-6.2-7-9.2-16.3-9.2-27.8c0-11.4,3.1-20.5,9.2-27.5c6.2-6.9,14.1-10.4,23.9-10.4
			c10,0,18,3.5,24.1,10.4c6.1,6.9,9.1,16.1,9.1,27.5C1012.5,361,1009.4,370.3,1003.3,377.3z M1120.7,284.7c-16.2,0-30.3,6-42.2,18.1
			c-11.9,12-17.9,27.4-17.9,46.2c0,19.9,6.1,35.8,18.4,47.7c12.2,11.9,27.1,17.8,44.7,17.8c14.2,0,26.1-3.6,35.8-10.9
			c9.7-7.3,16.3-16.5,19.9-27.7l-24.8-7.8c-4.7,14.2-15,21.3-30.9,21.3c-9.1,0-16.9-3-23.4-9c-6.5-6-9.9-13.6-10.3-22.8h90.2
			c0.5-1,0.8-4.1,0.8-9.3c0-19.4-5.3-34.8-16-46.3C1154.3,290.5,1139.6,284.7,1120.7,284.7z M1090.8,336.2
			c0.5-7.2,3.5-13.5,8.9-18.9c5.4-5.4,12.5-8.2,21.3-8.2c9.6,0,17,2.6,22.2,7.8c5.1,5.2,7.9,11.6,8.2,19.3H1090.8z M1251.6,292.6
			c-6.4,3.8-11.1,8.9-13.9,15.4v-19.6H1209v122.2h29.4v-58.2c0-23.9,11.1-35.9,33.2-35.9c3,0,6.2,0.3,9.6,0.8v-29.6
			c-2.5-0.5-5.2-0.8-7.9-0.8C1265.3,287,1258,288.9,1251.6,292.6z M1305.8,410.7h29.4V229h-29.4V410.7z M1423.5,284.7
			c-16.2,0-30.3,6-42.2,18.1c-11.9,12-17.9,27.4-17.9,46.2c0,19.9,6.1,35.8,18.4,47.7c12.2,11.9,27.1,17.8,44.7,17.8
			c14.2,0,26.1-3.6,35.8-10.9c9.7-7.3,16.3-16.5,19.9-27.7l-24.8-7.8c-4.7,14.2-15,21.3-30.9,21.3c-9.1,0-16.9-3-23.4-9
			c-6.5-6-9.9-13.6-10.3-22.8h90.2c0.5-1,0.8-4.1,0.8-9.3c0-19.4-5.3-34.8-16-46.3C1457.2,290.5,1442.4,284.7,1423.5,284.7z
			 M1393.7,336.2c0.5-7.2,3.5-13.5,8.9-18.9c5.4-5.4,12.5-8.2,21.3-8.2c9.6,0,17,2.6,22.2,7.8c5.1,5.2,7.9,11.6,8.2,19.3H1393.7z
			 M1625.9,229h-28.6v73.8c-2.4-4.7-6.5-8.8-12.5-12.3c-6-3.5-13.9-5.3-23.7-5.3c-17.1,0-31.1,6.2-42.2,18.6
			c-11.1,12.4-16.6,27.5-16.6,45.4c0,18.6,5.5,34,16.5,46.2c11,12.2,25.2,18.3,42.8,18.3c8.3,0,15.6-1.8,22-5.3
			c6.4-3.5,11.1-8,14.2-13.5c0,5.9,0.4,11.1,1.3,15.8h28.1c-0.8-6.7-1.3-14.1-1.3-22.3V229z M1588.4,377.3
			c-6.1,7.2-13.9,10.8-23.6,10.8c-10,0-18-3.6-24.1-10.7c-6.1-7.1-9.1-16.5-9.1-28.2c0-11.5,3.1-20.8,9.4-27.7
			c6.2-6.9,14.3-10.4,24.1-10.4c9.8,0,17.6,3.4,23.6,10.3c5.9,6.9,8.9,16.1,8.9,27.6C1597.5,360.7,1594.5,370.1,1588.4,377.3z
			 M1749.2,304c-6.2-11.9-18.4-17.8-36.5-17.8c-16.7,0-30.4,5.8-41,17.3c-10.6,11.5-16,25.6-16,42.2c0,17.2,5.4,31.4,16.1,42.7
			c10.7,11.2,24.4,16.8,40.9,16.8c8.4,0,15.8-1.7,22-5c6.2-3.3,10.8-7.6,13.7-12.8v12.8c0,24.4-11.6,36.6-34.9,36.6
			c-8.3,0-15.2-2.5-20.9-7.4c-5.7-4.9-9-11.3-10-18.9l-27.1,7c1.7,12.7,7.9,23.3,18.7,31.9c10.8,8.5,24.1,12.8,40,12.8
			c21.6,0,37.6-6,47.9-17.9c10.3-12,15.4-27,15.4-45V288.5h-28.4V304z M1740.5,370.9c-5.8,6.3-13.5,9.4-22.9,9.4
			c-9.6,0-17.4-3.1-23.3-9.4c-5.9-6.3-8.9-14.7-8.9-25.2c0-10.4,3-18.7,9-25c6-6.3,13.7-9.4,23.2-9.4c9.3,0,16.9,3.1,22.8,9.4
			c5.9,6.3,8.9,14.6,8.9,25C1749.2,356.2,1746.3,364.6,1740.5,370.9z M1863.9,284.7c-16.2,0-30.3,6-42.2,18.1
			c-11.9,12-17.9,27.4-17.9,46.2c0,19.9,6.1,35.8,18.4,47.7c12.2,11.9,27.1,17.8,44.7,17.8c14.2,0,26.1-3.6,35.8-10.9
			c9.7-7.3,16.3-16.5,19.9-27.7l-24.8-7.8c-4.7,14.2-15,21.3-30.9,21.3c-9.1,0-16.9-3-23.4-9c-6.5-6-9.9-13.6-10.3-22.8h90.2
			c0.5-1,0.8-4.1,0.8-9.3c0-19.4-5.3-34.8-16-46.3C1897.6,290.5,1882.8,284.7,1863.9,284.7z M1834.1,336.2
			c0.5-7.2,3.5-13.5,8.9-18.9c5.4-5.4,12.5-8.2,21.3-8.2c9.6,0,17,2.6,22.2,7.8c5.1,5.2,7.9,11.6,8.2,19.3H1834.1z M2016.6,287
			c-8.1,0-15.4,1.9-21.8,5.6c-6.4,3.8-11.1,8.9-13.9,15.4v-19.6h-28.6v122.2h29.4v-58.2c0-23.9,11.1-35.9,33.2-35.9
			c3,0,6.2,0.3,9.6,0.8v-29.6C2022,287.2,2019.3,287,2016.6,287z"/>
	</g>
</g>
<g>
	<circle cx="114.5" cy="108.6" r="20.5"/>
	<circle cx="114.5" cy="332.2" r="20.5"/>
	<circle cx="154.9" cy="532.2" r="19.8"/>
	<circle cx="354.1" cy="415.4" r="20.5"/>
	<circle cx="306.7" cy="165.4" r="20.4"/>
	<circle cx="499.4" cy="287.2" r="20.1"/>
	<polygon class="st0" points="114.5,108.6 357.2,85.9 401.2,280.6 396.5,507.9 210.5,443.9 9.7,332.2 	"/>
	<polyline class="st0" points="499.4,287.2 396.5,507.9 154.9,532.2 210.5,443.9 161.9,192.6 357.2,85.9 499.4,287.2 401.2,280.6 
		165.9,194.6 	"/>
	<line class="st0" x1="210.5" y1="443.9" x2="401.2" y2="280.6"/>
	<line class="st0" x1="154.9" y1="532.2" x2="9.7" y2="332.2"/>
	<polyline class="st0" points="154.9,532.2 9.7,332.2 161.9,192.6 114.5,108.6 161.9,192.6 11.3,330.7 	"/>
	<polygon class="st1" points="114.5,332.2 153.8,530.8 354.1,415.4 498.2,285.5 306.7,165.4 114.5,108.6 	"/>
	<polygon class="st2" points="114.5,332.2 306.7,165.4 354.1,415.4 	"/>
</g>
</svg>
