<?xml version="1.0" encoding="utf-8"?>
<!-- Generator: Adobe Illustrator 21.0.0, SVG Export Plug-In . SVG Version: 6.00 Build 0)  -->
<svg version="1.1" id="Layer_1" xmlns="http://www.w3.org/2000/svg" xmlns:xlink="http://www.w3.org/1999/xlink" x="0px" y="0px"
	 viewBox="0 0 1038 412" style="enable-background:new 0 0 1038 412;" xml:space="preserve">
<style type="text/css">
	.st0{fill:#205B98;}
	.st1{fill:#5294CF;}
	.st2{fill:#2D72B8;}
	.st3{fill:#201C1D;}
</style>
<g>
	<polygon class="st0" points="192.9,310 344.2,346.6 344.2,62.5 192.9,99.2 	"/>
	<polygon class="st1" points="344.2,62.5 373.3,77.1 373.3,332.1 344.2,346.7 	"/>
	<polygon class="st1" points="192.9,310 41.6,346.6 41.6,62.5 192.9,99.2 	"/>
	<polygon class="st0" points="41.6,62.5 12.5,77.1 12.5,332.1 41.6,346.7 	"/>
	<polygon class="st1" points="231.6,403.7 289.1,375.1 289.1,35 231.6,6.3 213.6,195.3 	"/>
	<polygon class="st0" points="154.2,403.7 96.7,375.1 96.7,35 154.2,6.3 172.2,194.6 	"/>
	<rect x="154.2" y="6.3" class="st2" width="77.5" height="397.5"/>
	<path class="st3" d="M738.5,145.4v4c0.7,6.7-0.4,13.5-3.3,19.7c-2.2,4.9-7,8.1-12.4,8.4c-6.9,0-11-5.6-11-13.6
		C711.7,148.2,725.4,145.4,738.5,145.4L738.5,145.4z M502.4,145.4v4c0.7,6.7-0.5,13.5-3.3,19.6c-2.3,4.9-7,8.1-12.4,8.4
		c-6.9,0-11-5.6-11-13.6C475.5,148.2,489.4,145.4,502.4,145.4z M902.7,111c5.7-0.4,10.9,3.5,12,9.1c2,8.2,2.9,16.6,2.6,25.1
		c0,12-0.6,32.3-14.5,32.3c-13.9,0-14.1-25-14.1-36.5c0-11.5,0.6-30.2,13.6-30.2L902.7,111z M789.1,93c-0.9,0-1.8,0.4-2.4,1
		c-0.6,0.7-0.9,1.5-0.9,2.5V110c0,0.9,0.3,1.8,0.9,2.5c0.6,0.7,1.5,1,2.4,1H820l-35.4,52.2c-1.7,2.8-2.6,6-2.5,9.3v13.8
		c0,1,0.4,2,1.3,2.7c0.8,0.6,1.9,0.8,2.9,0.4c19.5-10.4,43-10.4,62.5,0c1,0.4,2.2,0.3,3-0.3c0.9-0.6,1.4-1.6,1.4-2.7v-14.6
		c-0.1-2.2-1.3-4.2-3.3-5.2c-10.3-5.5-22-8.1-33.7-7.5l30.7-45c2.2-2.4,3.7-5.3,4.4-8.4V96.4c0-0.9-0.3-1.8-0.9-2.5
		c-0.6-0.7-1.5-1-2.4-1h-59.2L789.1,93L789.1,93z M1005.6,91.3c-12.4,0-19.5,6-24.6,19.2V96c-0.4-1.5-1.8-2.6-3.3-2.6H961
		c-1.8,0-3.3,1.3-3.5,3.1v94.8c0.1,1.8,1.5,3.3,3.3,3.5h18c1.9,0,3.5-1.6,3.5-3.5v-51c-0.3-6.2,0.8-12.3,3.1-18
		c1.6-4.1,5.3-7,9.7-7.4c12.4,0,11.2,15.2,11.2,25.5v51.5c0.2,1.7,1.6,3,3.3,3.1h18c1.8,0,3.2-1.3,3.5-3.1V132
		c0-9.2,0-21.9-4.7-29.5c-4.5-7.3-12.5-11.6-21-11.2L1005.6,91.3z M902.7,91.3c-26,0-40.5,22.9-40.5,52.4
		c0,29.5,14.3,52.9,40.5,52.9c25.2,0,41.2-23,41.2-52c-0.1-29.8-14.6-53.3-41.5-53.3H902.7z M596.1,91.3c-11-0.3-20.7,6.9-23.7,17.5
		V96.4c-0.1-1.8-1.5-3.2-3.3-3.3h-16.8c-1.9,0-3.5,1.6-3.5,3.5v94.9c0.2,1.8,1.6,3.1,3.3,3.3h18c1.9,0,3.5-1.6,3.5-3.5v-50.4
		c0-11-0.5-26,12.4-26c12.9,0,11,15.5,11,26v50.3c0.1,1.8,1.5,3.3,3.3,3.5h18c1.9,0,3.5-1.6,3.5-3.5v-50.3c-0.4-6.1,0.1-12.1,1.6-18
		c1.6-4.6,5.8-7.7,10.6-8.1c2.5-0.3,5,0.4,7,1.9c2,1.5,3.3,3.8,3.6,6.3c0.6,6,0.8,12,0.5,18v50.3c0.1,1.8,1.5,3.3,3.3,3.5h18
		c1.9,0,3.5-1.6,3.5-3.5v-60.1c0-10.2,1-21.8-4.7-29.8c-5.9-7.5-15.4-11.2-24.9-9.7c-9.4,1.5-17.3,8.1-20.5,17.1
		C614.4,96.8,607.3,91.3,596.1,91.3z M728.9,90.4c-17.1,0-36.1,6.6-40.3,28.3c-0.2,0.8,0,1.7,0.5,2.4c0.5,0.7,1.3,1.2,2.1,1.3
		l17.6,2.1c1.7-0.4,3-1.9,3.1-3.7c1.4-6.8,7.6-11.5,14.5-11c3.9-0.2,7.7,1.6,10,4.7c2,4.2,2.7,8.8,2.1,13.3v2.6
		c-11.5,0.5-22.8,2.6-33.7,6.3c-12,5.1-19.6,17-19.2,30.1c0,19.2,12,28.8,26.9,28.8c11.5,0.7,22.6-4.3,29.8-13.3
		c2.7,4.6,6.2,8.7,10.3,12c1.4,0.8,3.1,0.6,4.2-0.5c3.6-3.3,10.2-9.3,13.8-12.4c1.3-1.4,1.3-3.5,0-4.9c-4.3-4.6-6.7-10.7-6.8-17.1
		v-28.1c0-12,0.8-23.4-7.9-31.9C748.3,93.2,738.7,90,728.9,90.4z M492.8,90.4c-17.1,0-36.1,6.6-40.3,28.3c-0.2,0.8,0,1.7,0.5,2.4
		c0.5,0.7,1.3,1.2,2.1,1.3l17.6,2.1c1.6-0.5,2.8-2,2.8-3.7c1.4-6.8,7.6-11.5,14.5-11c3.9-0.2,7.7,1.6,10,4.7c2,4.1,2.9,8.8,2.3,13.3
		v2.6c-11.6,0.5-23,2.6-34,6.3c-12,5.1-19.6,17-19.2,30.1c0,19.2,12,28.8,26.9,28.8c11.5,0.7,22.6-4.3,29.8-13.3
		c2.7,4.6,6.2,8.7,10.3,12c1.4,0.8,3.1,0.6,4.2-0.5c3.6-3.3,10.2-9.3,13.8-12.4c1.3-1.4,1.3-3.6,0-4.9c-4.3-4.6-6.7-10.7-6.8-17.1
		v-28.1c0-12,1-23.4-7.8-31.9C512.1,93.3,502.6,90.1,492.8,90.4z"/>
	<path d="M460.2,271.8h11.5c12,0,19.8-6.6,19.8-16.7c0-11.3-8.2-16.3-20.1-16.3c-3.8-0.1-7.5,0.2-11.2,1L460.2,271.8L460.2,271.8
		L460.2,271.8z M448.9,232c7.2-1.3,14.4-2,21.7-1.9c12,0,20,2.3,25.5,7.3c4.6,4.3,7.1,10.4,6.9,16.7c0,10.3-6.7,19.3-16.5,22.2v0.4
		c6.6,2.3,10.6,8.6,12.9,17.7c1.6,8.2,3.8,16.2,6.6,24.1h-11.7c-2.7-6.8-4.7-13.8-6-20.9c-2.6-12-7.4-16.7-17.7-17h-10.3v38h-11.4
		V232z"/>
	<polygon points="574.3,277.2 540.3,277.2 540.3,308.8 578.3,308.8 578.3,318.3 528.9,318.3 528.9,230.7 576.4,230.7 576.4,240.2 
		540.3,240.2 540.3,267.9 574.3,267.9 	"/>
	<path d="M612.3,309.6c3.8,0.5,7.6,0.7,11.4,0.5c24.1,0,37.3-13.5,37.3-37.2c0-20.7-11.6-33.8-35.5-33.8c-4.5-0.1-8.9,0.3-13.3,1.1
		L612.3,309.6L612.3,309.6z M600.9,231.9c8-1.2,16-1.8,24.1-1.8c16.2,0,27.8,3.8,35.5,10.9c8.6,8.1,13.2,19.7,12.5,31.5
		c0.5,12.6-4,24.9-12.6,34.1c-8.3,8.2-21.8,12.6-38.9,12.6c-6.9,0.1-13.8-0.2-20.7-1v-86.3H600.9z"/>
	<path d="M694.1,304.6c6.1,3.6,13,5.6,20.1,5.6c11.6,0,18.3-6,18.3-14.9c0-8.8-4.5-13-16.5-17.4c-14.3-4.9-23.1-12.5-23.1-24.7
		c0-13.6,11.3-24,28.4-24c6.7-0.2,13.3,1.2,19.2,4.1l-3.1,9.4c-5-2.8-10.8-4.3-16.5-4.1c-12,0-16.5,7.2-16.5,13.2
		c0,8.1,5.3,12,17.4,16.8c14.9,6,22.2,12.9,22.2,25.7c0,12.9-9.9,25.3-30.5,25.3c-7.9,0-15.6-2.1-22.4-6L694.1,304.6z"/>
	<polygon points="778.8,230.7 778.8,267.4 821.2,267.4 821.2,230.7 832.6,230.7 832.6,318.4 821.2,318.4 821.2,277.2 778.8,277.2 
		778.8,318.3 767.4,318.3 767.4,230.7 	"/>
	<rect x="861.6" y="230.7" width="11.4" height="87.7"/>
	<polygon points="901.7,230.7 948.9,230.7 948.9,240.2 913.1,240.2 913.1,269.4 946.2,269.4 946.2,278.7 913.1,278.7 913.1,318.4 
		901.7,318.4 	"/>
	<polygon points="993.5,240.3 966.8,240.3 966.8,230.7 1031.7,230.7 1031.7,240.3 1004.9,240.3 1004.9,318.5 993.5,318.5 	"/>
</g>
</svg>
