<?xml version="1.0" encoding="utf-8"?>
<!-- Generator: Adobe Illustrator 21.0.0, SVG Export Plug-In . SVG Version: 6.00 Build 0)  -->
<svg version="1.1"
	 id="svg54" inkscape:version="0.92.3 (2405546, 2018-03-11)" sodipodi:docname="bigquery-ar21.svg" xmlns:cc="http://creativecommons.org/ns#" xmlns:dc="http://purl.org/dc/elements/1.1/" xmlns:inkscape="http://www.inkscape.org/namespaces/inkscape" xmlns:rdf="http://www.w3.org/1999/02/22-rdf-syntax-ns#" xmlns:sodipodi="http://sodipodi.sourceforge.net/DTD/sodipodi-0.dtd" xmlns:svg="http://www.w3.org/2000/svg"
	 xmlns="http://www.w3.org/2000/svg" xmlns:xlink="http://www.w3.org/1999/xlink" x="0px" y="0px" viewBox="0 0 112.8 40.6"
	 style="enable-background:new 0 0 112.8 40.6;" xml:space="preserve">
<style type="text/css">
	.st0{fill:#4386FA;}
	.st1{opacity:0.1;enable-background:new    ;}
	.st2{fill:#FFFFFF;}
	.st3{fill:#767677;}
</style>
<sodipodi:namedview  bordercolor="#666666" borderopacity="1" gridtolerance="10" guidetolerance="10" id="namedview56" inkscape:current-layer="svg54" inkscape:cx="14.535732" inkscape:cy="19.063891" inkscape:pageopacity="0" inkscape:pageshadow="2" inkscape:window-height="1001" inkscape:window-maximized="1" inkscape:window-width="1920" inkscape:window-x="-9" inkscape:window-y="-9" inkscape:zoom="4.0372076" objecttolerance="10" pagecolor="#ffffff" showgrid="false">
	</sodipodi:namedview>
<title  id="title6">integration-tile</title>
<g id="g942" transform="matrix(1.0761991,0,0,1.0761991,-4.315335,-2.2859734)">
	<g id="g877" transform="matrix(0.46366782,0,0,0.46366782,-37.02839,-17.716055)">
		<path id="path20" inkscape:connector-curvature="0" class="st0" d="M109.8,117.4L91.2,85.3c-1-1.7-1-3.8,0-5.5l18.5-32.1
			c1-1.7,2.8-2.8,4.8-2.8h37.1c2,0,3.8,1.1,4.8,2.8l18.5,32.1c1,1.7,1,3.8,0,5.5l-18.5,32.1c-1,1.7-2.8,2.8-4.8,2.8h-37
			C112.6,120.2,110.8,119.1,109.8,117.4z"/>
		<path id="path22" inkscape:connector-curvature="0" class="st1" d="M144.6,72.2c0,0,5.1,12.3-1.9,19.3c-7,7-19.8,2.5-19.8,2.5
			s19,19.2,26,26.1h2.6c2,0,3.8-1.1,4.8-2.8l12.3-21.2L144.6,72.2z"/>
		<path id="path24" inkscape:connector-curvature="0" class="st2" d="M150.7,97.5l-5.7-5.7c-0.1-0.1-0.1-0.1-0.2-0.2
			c5.2-6.8,4-16.5-2.8-21.7s-16.5-4-21.7,2.8s-4,16.5,2.8,21.7c5.6,4.3,13.4,4.3,19-0.1c0,0.1,0.1,0.1,0.1,0.2l5.7,5.7
			c0.3,0.3,0.9,0.3,1.3,0c0,0,0,0,0,0l0,0l1.5-1.5C151.1,98.4,151.1,97.9,150.7,97.5C150.7,97.5,150.7,97.5,150.7,97.5z M132.6,93.8
			c-6.4,0-11.6-5.2-11.6-11.6s5.2-11.6,11.6-11.6c6.4,0,11.6,5.2,11.6,11.6l0,0C144.2,88.6,139,93.8,132.6,93.8z"/>
		<path id="path26" inkscape:connector-curvature="0" class="st2" d="M125.2,81.6v4.8c0.7,1.3,1.8,2.4,3.1,3.2v-8L125.2,81.6z"/>
		<path id="path28" inkscape:connector-curvature="0" class="st2" d="M125.2,81.6v4.8c0.7,1.3,1.8,2.4,3.1,3.2v-8L125.2,81.6z"/>
		<path id="path30" inkscape:connector-curvature="0" class="st2" d="M131,77.6v13c1,0.2,2.1,0.2,3.1,0v-13H131z"/>
		<path id="path32" inkscape:connector-curvature="0" class="st2" d="M131,77.6v13c1,0.2,2.1,0.2,3.1,0v-13H131z"/>
		<path id="path34" inkscape:connector-curvature="0" class="st2" d="M140,86.4v-2.8h-3.1v6C138.2,88.8,139.2,87.7,140,86.4z"/>
		<path id="path36" inkscape:connector-curvature="0" class="st2" d="M140,86.4v-2.8h-3.1v6C138.2,88.8,139.2,87.7,140,86.4z"/>
	</g>
	<g id="g913" transform="matrix(0.77444045,0,0,0.77444045,28.093678,7.0542873)">
		<g id="g885">
			<path id="path8" inkscape:connector-curvature="0" class="st3" d="M47.6,4.9h-8.4v2.5h6c-0.3,3.5-3.2,5-6,5
				c-3.6,0-6.6-2.9-6.6-6.5c0,0,0,0,0,0l0,0V5.8c-0.1-3.6,2.8-6.6,6.5-6.7c0,0,0.1,0,0.1,0c1.7,0,3.3,0.7,4.5,1.8l1.7-1.8
				c-1.7-1.6-4-2.5-6.3-2.5c-5.1-0.1-9.3,3.9-9.4,9c-0.1,5.1,3.9,9.3,9,9.4c0.2,0,0.4,0,0.6,0c4.9,0,8.5-3.4,8.5-8.4
				C47.8,6,47.7,5.5,47.6,4.9L47.6,4.9L47.6,4.9z"/>
			<path id="path10" inkscape:connector-curvature="0" class="st3" d="M54.5,3.1c-3.2-0.1-5.9,2.5-6,5.7c0,0,0,0,0,0l0,0V9
				c0,3.3,2.6,5.9,5.9,6s5.9-2.6,6-5.9C60.4,5.1,57.4,3.1,54.5,3.1z M54.5,5.4c1.7,0,3.3,1.4,3.3,3.6s-1.6,3.6-3.3,3.6
				c-1.9,0-3.4-1.5-3.4-3.6S52.6,5.5,54.5,5.4L54.5,5.4z"/>
			<path id="path12" inkscape:connector-curvature="0" class="st3" d="M67.4,3.1c-3.2-0.1-5.9,2.5-5.9,5.7c0,0,0,0,0,0l0,0V9
				c0,3.3,2.6,5.9,5.9,6c3.3,0,5.9-2.6,6-5.9C73.3,5.1,70.3,3.1,67.4,3.1L67.4,3.1L67.4,3.1z M67.4,5.4c1.7,0,3.3,1.4,3.3,3.6
				s-1.6,3.6-3.3,3.6c-1.9,0-3.4-1.5-3.4-3.6S65.5,5.5,67.4,5.4L67.4,5.4z"/>
			<path id="path14" inkscape:connector-curvature="0" class="st3" d="M80.1,3.1c-3.2,0-5.7,2.8-5.7,5.9c0,3.2,2.4,5.8,5.6,5.9
				c1.2,0.1,2.5-0.5,3.2-1.4v1.2c0,2-1.2,3.3-3.1,3.3c-1.3,0-2.5-0.8-3-2.1l-2.3,0.9c0.8,1.7,2.4,3.5,5.3,3.5c3.2,0,5.6-2,5.6-6.2
				V3.5h-2.5v1C82.4,3.6,81.3,3.1,80.1,3.1z M80.3,5.4c1.6,0,3.2,1.3,3.2,3.6s-1.6,3.6-3.2,3.6c-1.7,0-3.3-1.4-3.3-3.6
				C77,6.8,78.6,5.4,80.3,5.4L80.3,5.4L80.3,5.4z"/>
			<path id="path16" inkscape:connector-curvature="0" class="st3" d="M96.7,3.1c-3,0-5.5,2.4-5.5,5.9c-0.1,3.2,2.4,5.8,5.5,5.9
				c0.1,0,0.2,0,0.3,0c2,0,3.8-1,5-2.6l-2-1.4c-0.6,1-1.7,1.6-2.9,1.6c-1.2,0-2.4-0.7-2.9-1.8l7.9-3.3l-0.4-1
				C100.9,4.5,98.9,3.1,96.7,3.1L96.7,3.1L96.7,3.1z M96.8,5.4c0.9,0,1.8,0.5,2.2,1.3l-5.3,2.2C93.5,7.1,95.1,5.4,96.8,5.4L96.8,5.4
				L96.8,5.4z"/>
			<path id="path18" inkscape:connector-curvature="0" class="st3" d="M87.5,14.6h2.6V-2.8h-2.6V14.6z"/>
		</g>
		<g id="g895" transform="translate(0,-2)">
			<path id="path38" inkscape:connector-curvature="0" class="st3" d="M30.2,36.6V25.2h4.1c0.9,0,1.7,0.3,2.3,0.9
				c0.6,0.6,1,1.4,1,2.2c0.1,1-0.6,2-1.5,2.4v0.1c0.6,0.2,1.1,0.5,1.4,1c0.3,0.5,0.5,1,0.5,1.6c0,0.9-0.3,1.7-1,2.3
				c-0.7,0.6-1.5,0.9-2.4,0.9L30.2,36.6L30.2,36.6z M31.7,26.6v3.5h2.7c0.5,0,1-0.2,1.3-0.5c0.7-0.6,0.7-1.7,0.1-2.4l0,0
				c-0.3-0.3-0.8-0.5-1.3-0.5L31.7,26.6L31.7,26.6z M31.7,31.5v3.7h2.9c1,0,1.9-0.8,1.9-1.9l0,0c0-0.5-0.2-1-0.6-1.3
				c-0.4-0.4-0.9-0.6-1.4-0.6L31.7,31.5L31.7,31.5z"/>
			<path id="path40" inkscape:connector-curvature="0" class="st3" d="M41.3,26.1c0,0.6-0.5,1-1,1c-0.6,0-1-0.5-1-1c0-0.6,0.5-1,1-1
				c0.3,0,0.5,0.1,0.7,0.3C41.2,25.6,41.3,25.8,41.3,26.1z M41,28.8v7.8h-1.5v-7.8H41z"/>
			<path id="path42" inkscape:connector-curvature="0" class="st3" d="M46.3,40.3c-0.4,0-0.8-0.1-1.2-0.2c-0.4-0.1-0.7-0.3-1-0.5
				c-0.3-0.2-0.6-0.4-0.8-0.7c-0.2-0.3-0.4-0.6-0.5-0.9l1.4-0.6c0.2,0.4,0.4,0.8,0.8,1.1c0.4,0.3,0.9,0.4,1.4,0.4
				c0.7,0,1.4-0.2,1.9-0.7c0.5-0.5,0.7-1.3,0.7-2v-0.8h-0.1c-0.3,0.4-0.7,0.8-1.1,1c-0.5,0.2-1,0.4-1.5,0.4c-1,0-2-0.4-2.6-1.2
				c-0.7-0.8-1.1-1.9-1.1-3c0-1.1,0.4-2.1,1.1-2.9c0.7-0.8,1.6-1.2,2.6-1.2c0.5,0,1.1,0.1,1.5,0.4c0.5,0.2,0.8,0.6,1.1,1h0.1v-1.1
				h1.4v7.5c0.1,1.1-0.3,2.2-1.1,2.9C48.4,40,47.4,40.4,46.3,40.3z M46.4,35.5c0.7,0,1.3-0.3,1.8-0.8c1-1.2,1-2.9,0-4.1
				c-0.4-0.5-1.1-0.8-1.8-0.8c-0.7,0-1.3,0.3-1.8,0.8c-0.5,0.6-0.7,1.3-0.7,2c0,0.7,0.2,1.5,0.7,2C45.1,35.3,45.7,35.6,46.4,35.5
				L46.4,35.5z"/>
			<path id="path44" inkscape:connector-curvature="0" class="st3" d="M65.5,36.6l-1.2,0.7l-0.8-1.2c-0.9,0.4-1.8,0.6-2.7,0.7
				c-1.6,0-3.1-0.6-4.2-1.7c-2.3-2.4-2.3-6.1,0-8.5c2.3-2.3,6-2.3,8.4,0c0,0,0,0,0,0c1.1,1.1,1.7,2.6,1.7,4.2c0,0.9-0.2,1.7-0.5,2.5
				c-0.3,0.8-0.8,1.5-1.5,2L65.5,36.6z M60.8,35.5c0.7,0,1.3-0.2,1.9-0.5l-1.4-2l1.2-0.8l1.3,2c0.9-0.9,1.4-2.1,1.3-3.3
				c0-1.2-0.4-2.4-1.3-3.3c-0.8-0.9-1.9-1.3-3.1-1.3c-1.2,0-2.3,0.4-3.1,1.3c-1.7,1.9-1.7,4.7,0,6.5C58.5,35,59.6,35.5,60.8,35.5
				L60.8,35.5z"/>
			<path id="path46" inkscape:connector-curvature="0" class="st3" d="M75,36.6h-1.4v-1.1h-0.1c-0.2,0.4-0.6,0.7-1,1
				c-0.4,0.2-0.9,0.4-1.4,0.4c-0.8,0.1-1.6-0.2-2.2-0.8c-0.6-0.6-0.8-1.5-0.8-2.3v-4.9h1.5v4.8c0,1.3,0.7,1.9,1.9,1.9
				c0.6,0,1.1-0.3,1.5-0.7c0.4-0.5,0.6-1.1,0.6-1.7v-4.3H75L75,36.6L75,36.6z"/>
			<path id="path48" inkscape:connector-curvature="0" class="st3" d="M80.2,36.9c-1.1,0-2.1-0.4-2.8-1.2c-0.8-0.8-1.2-1.9-1.1-3
				c0-1.1,0.4-2.2,1.1-3c1.5-1.5,4-1.6,5.5-0.1c0,0,0,0,0,0c0.7,0.9,1.1,2,1,3.2V33h-6.2c0,0.7,0.3,1.4,0.8,1.8c1,1,2.5,0.9,3.5,0
				c0.2-0.2,0.3-0.4,0.5-0.7l1.3,0.6c-0.3,0.6-0.8,1.2-1.5,1.5C81.7,36.7,81,36.9,80.2,36.9L80.2,36.9z M77.9,31.8h4.5
				c0-0.5-0.3-1-0.7-1.4c-0.4-0.4-1-0.6-1.6-0.5c-0.5,0-1,0.2-1.4,0.5C78.2,30.8,78,31.2,77.9,31.8L77.9,31.8z"/>
			<path id="path50" inkscape:connector-curvature="0" class="st3" d="M86.7,36.6h-1.5v-7.8h1.4v1.3h0.1c0.2-0.4,0.5-0.8,0.9-1.1
				c0.4-0.3,0.9-0.4,1.4-0.5c0.4,0,0.7,0.1,1.1,0.2l-0.5,1.4c-0.3-0.1-0.6-0.1-0.9-0.1c-0.6,0-1.1,0.2-1.4,0.7
				c-0.4,0.4-0.6,1-0.6,1.6L86.7,36.6L86.7,36.6z"/>
			<path id="path52" inkscape:connector-curvature="0" class="st3" d="M98.2,28.8l-4.9,11.3h-1.5l1.8-3.9l-3.2-7.3H92l2.3,5.6h0
				l2.3-5.6H98.2L98.2,28.8z"/>
		</g>
	</g>
</g>
</svg>
