<?xml version="1.0" encoding="utf-8"?>
<!-- Generator: Adobe Illustrator 21.0.0, SVG Export Plug-In . SVG Version: 6.00 Build 0)  -->
<svg version="1.1" id="Layer_1" xmlns="http://www.w3.org/2000/svg" xmlns:xlink="http://www.w3.org/1999/xlink" x="0px" y="0px"
	 viewBox="0 0 365.5 80.5" style="enable-background:new 0 0 365.5 80.5;" xml:space="preserve">
<style type="text/css">
	.st0{fill:#00A9E5;}
	.st1{fill:#353535;}
	.st2{fill:#00BFB3;}
	.st3{fill:#019B8F;}
	.st4{fill:#F9B110;}
	.st5{fill:#FED10A;}
</style>
<g id="XMLID_1_">
	<path id="XMLID_6_" d="M100,52.2c-3.8,0-6.7-1.2-8.9-3.5C89,46.3,88,43.1,88,39c0-4.2,1-7.6,3-10c2-2.4,4.7-3.6,8.1-3.6
		c3.2,0,5.7,1,7.6,3.1c1.9,2.1,2.8,4.9,2.8,8.6v3H93.3c0.1,2.5,0.7,4.4,1.9,5.8c1.2,1.4,2.9,2,5.1,2c1.4,0,2.8-0.1,4-0.4
		c1.2-0.3,2.6-0.8,4-1.4v4.5c-1.3,0.6-2.5,1.1-3.8,1.4C103.2,52.1,101.7,52.2,100,52.2z M99.1,29.5c-1.6,0-3,0.6-3.9,1.7
		c-1,1.1-1.6,2.7-1.8,4.9h11c0-2.1-0.5-3.8-1.4-4.9C102,30.1,100.7,29.5,99.1,29.5z"/>
	<rect id="XMLID_7_" x="115.3" y="15.3" width="5.2" height="36.5"/>
	<path id="XMLID_23_" d="M143.1,51.7l-1-3.6h-0.2c-1.2,1.6-2.3,2.7-3.5,3.2c-1.2,0.6-2.7,0.9-4.6,0.9c-2.4,0-4.2-0.7-5.6-2.1
		c-1.3-1.4-2-3.3-2-5.8c0-2.7,0.9-4.7,2.8-6c1.9-1.4,4.7-2.1,8.5-2.2l4.2-0.1v-1.4c0-1.7-0.4-2.9-1.1-3.7c-0.7-0.8-1.8-1.2-3.4-1.2
		c-1.2,0-2.4,0.2-3.6,0.6c-1.1,0.4-2.2,0.9-3.3,1.4l-1.7-3.9c1.3-0.7,2.8-1.3,4.3-1.7c1.6-0.4,3-0.6,4.4-0.6c3.1,0,5.4,0.7,7,2.2
		c1.6,1.4,2.4,3.7,2.4,6.8v17.5H143.1z M135.4,48c1.9,0,3.4-0.6,4.5-1.7c1.1-1.1,1.7-2.7,1.7-4.7v-2.3l-3.1,0.1
		c-2.4,0.1-4.2,0.5-5.3,1.3c-1.1,0.8-1.7,2-1.7,3.6c0,1.2,0.3,2.1,1,2.7C133.1,47.7,134.1,48,135.4,48z"/>
	<path id="XMLID_24_" d="M170.3,44.3c0,2.5-0.9,4.5-2.6,5.8c-1.7,1.4-4.2,2-7.4,2c-3.2,0-5.8-0.5-7.8-1.6v-4.8
		c2.9,1.4,5.5,2.1,8,2.1c3.2,0,4.8-1,4.8-3.1c0-0.7-0.2-1.2-0.5-1.6c-0.4-0.4-0.9-0.9-1.7-1.4c-0.8-0.5-1.9-1-3.4-1.6
		c-2.8-1.2-4.7-2.3-5.7-3.5c-1-1.2-1.5-2.7-1.5-4.5c0-2.2,0.8-3.9,2.5-5.2c1.7-1.2,4-1.8,6.8-1.8c2.9,0,5.6,0.6,8.1,1.9l-1.7,4.1
		c-2.6-1.2-4.8-1.7-6.6-1.7c-2.7,0-4.1,0.8-4.1,2.5c0,0.8,0.4,1.5,1.1,2.1c0.7,0.6,2.3,1.3,4.6,2.3c2,0.8,3.5,1.6,4.4,2.3
		c0.9,0.7,1.6,1.5,2,2.4C170,42,170.3,43.1,170.3,44.3z"/>
	<path id="XMLID_25_" d="M184.9,47.7c1.3,0,2.5-0.2,3.8-0.6v4.1c-0.6,0.3-1.3,0.5-2.2,0.7c-0.9,0.2-1.8,0.3-2.8,0.3
		c-4.9,0-7.3-2.8-7.3-8.3V30H173v-2.4l3.6-2l1.8-5.5h3.2v5.8h6.9V30h-6.9v13.9c0,1.3,0.3,2.3,0.9,2.9
		C183.1,47.4,183.9,47.7,184.9,47.7z"/>
	<path id="XMLID_31_" d="M193.2,18.9c0-1,0.3-1.7,0.8-2.3c0.5-0.5,1.2-0.8,2.2-0.8c0.9,0,1.6,0.3,2.1,0.8c0.5,0.5,0.8,1.3,0.8,2.3
		c0,0.9-0.3,1.7-0.8,2.2c-0.5,0.5-1.2,0.8-2.1,0.8c-0.9,0-1.7-0.3-2.2-0.8C193.5,20.6,193.2,19.9,193.2,18.9z M198.7,51.7h-5.2V25.8
		h5.2V51.7z"/>
	<path id="XMLID_32_" d="M215.8,52.2c-3.7,0-6.5-1.1-8.4-3.4c-1.9-2.3-2.9-5.6-2.9-9.9c0-4.4,1-7.7,3-10.1c2-2.3,4.9-3.5,8.7-3.5
		c2.6,0,4.9,0.5,6.9,1.5l-1.6,4.4c-2.2-0.9-4-1.4-5.4-1.4c-4.2,0-6.3,3-6.3,8.9c0,2.9,0.5,5.1,1.6,6.6c1,1.5,2.6,2.2,4.6,2.2
		c2.3,0,4.5-0.6,6.5-1.8v4.8c-0.9,0.6-1.9,1-3,1.2S217.3,52.2,215.8,52.2z"/>
	<path id="XMLID_33_" d="M244.6,44.3c0,2.5-0.9,4.5-2.6,5.8c-1.7,1.4-4.2,2-7.4,2c-3.2,0-5.8-0.5-7.8-1.6v-4.8
		c2.9,1.4,5.5,2.1,8,2.1c3.2,0,4.8-1,4.8-3.1c0-0.7-0.2-1.2-0.5-1.6c-0.4-0.4-0.9-0.9-1.7-1.4c-0.8-0.5-1.9-1-3.4-1.6
		c-2.8-1.2-4.7-2.3-5.7-3.5c-1-1.2-1.5-2.7-1.5-4.5c0-2.2,0.8-3.9,2.5-5.2c1.7-1.2,4-1.8,6.8-1.8c2.9,0,5.6,0.6,8.1,1.9l-1.7,4.1
		c-2.6-1.2-4.8-1.7-6.6-1.7c-2.7,0-4.1,0.8-4.1,2.5c0,0.8,0.4,1.5,1.1,2.1s2.3,1.3,4.6,2.3c2,0.8,3.5,1.6,4.4,2.3
		c0.9,0.7,1.6,1.5,2,2.4C244.4,42,244.6,43.1,244.6,44.3z"/>
	<path id="XMLID_36_" d="M260.8,52.2c-3.8,0-6.7-1.2-8.9-3.5c-2.1-2.4-3.2-5.6-3.2-9.7c0-4.2,1-7.6,3-10s4.7-3.6,8.1-3.6
		c3.2,0,5.7,1,7.6,3.1c1.9,2.1,2.8,4.9,2.8,8.6v3h-16.2c0.1,2.5,0.7,4.4,1.9,5.8c1.2,1.4,2.9,2,5.1,2c1.4,0,2.8-0.1,4-0.4
		c1.2-0.3,2.6-0.8,4-1.4v4.5c-1.3,0.6-2.5,1.1-3.8,1.4C263.9,52.1,262.5,52.2,260.8,52.2z M259.9,29.5c-1.6,0-3,0.6-3.9,1.7
		c-1,1.1-1.6,2.7-1.8,4.9h11c0-2.1-0.5-3.8-1.4-4.9C262.8,30.1,261.5,29.5,259.9,29.5z"/>
	<path id="XMLID_40_" d="M291.3,51.7l-1-3.6h-0.2c-1.2,1.6-2.3,2.7-3.5,3.2s-2.7,0.9-4.6,0.9c-2.4,0-4.2-0.7-5.6-2.1s-2-3.3-2-5.8
		c0-2.7,0.9-4.7,2.8-6c1.9-1.4,4.7-2.1,8.5-2.2l4.2-0.1v-1.4c0-1.7-0.4-2.9-1.1-3.7c-0.7-0.8-1.8-1.2-3.4-1.2
		c-1.2,0-2.4,0.2-3.6,0.6c-1.1,0.4-2.2,0.9-3.3,1.4l-1.7-3.9c1.3-0.7,2.8-1.3,4.3-1.7c1.6-0.4,3-0.6,4.4-0.6c3.1,0,5.4,0.7,7,2.2
		c1.6,1.4,2.4,3.7,2.4,6.8v17.5H291.3z M283.6,48c1.9,0,3.4-0.6,4.5-1.7s1.7-2.7,1.7-4.7v-2.3l-3.1,0.1c-2.4,0.1-4.2,0.5-5.3,1.3
		c-1.1,0.8-1.7,2-1.7,3.6c0,1.2,0.3,2.1,1,2.7C281.4,47.7,282.3,48,283.6,48z"/>
	<path id="XMLID_41_" d="M314.5,25.3c1,0,1.9,0.1,2.6,0.2l-0.5,5.1c-0.7-0.2-1.5-0.3-2.3-0.3c-2.1,0-3.7,0.7-5,2.2
		c-1.3,1.4-1.9,3.3-1.9,5.6v13.5h-5.2V25.8h4l0.7,4.6h0.3c0.8-1.5,1.9-2.8,3.2-3.7C311.6,25.8,313,25.3,314.5,25.3z"/>
	<path id="XMLID_42_" d="M331.4,52.2c-3.7,0-6.5-1.1-8.4-3.4c-1.9-2.3-2.9-5.6-2.9-9.9c0-4.4,1-7.7,3-10.1c2-2.3,4.9-3.5,8.7-3.5
		c2.6,0,4.9,0.5,6.9,1.5l-1.6,4.4c-2.2-0.9-4-1.4-5.4-1.4c-4.2,0-6.3,3-6.3,8.9c0,2.9,0.5,5.1,1.6,6.6c1,1.5,2.6,2.2,4.6,2.2
		c2.3,0,4.5-0.6,6.5-1.8v4.8c-0.9,0.6-1.9,1-3,1.2S332.9,52.2,331.4,52.2z"/>
	<path id="XMLID_46_" d="M365.2,51.7H360V35.8c0-2-0.4-3.5-1.1-4.5c-0.8-1-2-1.5-3.6-1.5c-2.2,0-3.8,0.7-4.8,2.1s-1.5,3.7-1.5,6.9
		v12.9h-5.2V15.3h5.2v9.3c0,1.5-0.1,3.1-0.3,4.8h0.3c0.7-1.3,1.7-2.2,2.9-2.9s2.7-1,4.4-1c5.9,0,8.8,3.2,8.8,9.5V51.7z"/>
	<path id="XMLID_47_" class="st0" d="M51.8,28.3H32.2c0.1,0.5,0.3,1,0.4,1.4c0.6,2.4,1,4.9,1.2,7.5c0.1,1,0.1,2.1,0.1,3.1
		s0,2.1-0.1,3.1c-0.2,2.6-0.6,5.1-1.2,7.5c-0.1,0.5-0.3,1-0.4,1.4h19.6c6.2,0,11.2-5.4,11.2-12C63,33.6,58,28.3,51.8,28.3z"/>
	<path id="XMLID_48_" class="st1" d="M33.8,43.4c0.1-1,0.1-2.1,0.1-3.1s0-2.1-0.1-3.1c-0.2-2.6-0.6-5.1-1.2-7.5
		c-0.1-0.5-0.3-1-0.4-1.4H1.9c-1.1,3.8-1.7,7.8-1.7,12s0.6,8.2,1.7,12h30.3c0.1-0.5,0.3-1,0.4-1.4C33.2,48.4,33.6,45.9,33.8,43.4z"
		/>
	<path id="XMLID_49_" class="st2" d="M55.2,56.3H30.8c-0.7,1.8-1.6,3.5-2.5,5.1c-1.4,2.5-3.1,4.7-5,6.8c-0.6,0.7-1.3,1.3-1.9,2
		c-1.3,1.3-2.8,2.4-4.3,3.5c5.9,4.2,13,6.6,20.6,6.6c13,0,24.5-7.1,31.2-17.8C65.4,58.6,60.6,56.3,55.2,56.3z"/>
	<path id="XMLID_54_" class="st3" d="M28.3,61.4c1-1.6,1.8-3.3,2.5-5.1H3.3c2.9,7.1,7.7,13.2,13.7,17.4c1.5-1.1,2.9-2.2,4.3-3.5
		c0.7-0.6,1.3-1.3,1.9-2C25.2,66.1,26.9,63.8,28.3,61.4z"/>
	<path id="XMLID_55_" class="st4" d="M23.3,12.3c-0.6-0.7-1.3-1.3-1.9-2c-1.3-1.3-2.8-2.4-4.3-3.5c-6,4.2-10.8,10.3-13.7,17.4h27.5
		c-0.7-1.8-1.6-3.5-2.5-5.1C26.9,16.7,25.2,14.4,23.3,12.3z"/>
	<path id="XMLID_56_" class="st5" d="M37.7,0.3c-7.6,0-14.7,2.4-20.6,6.6c1.5,1.1,2.9,2.2,4.3,3.5c0.7,0.6,1.3,1.3,1.9,2
		c1.9,2.1,3.6,4.3,5,6.8c1,1.6,1.8,3.3,2.5,5.1h24.4c5.4,0,10.2-2.4,13.7-6.2C62.1,7.3,50.7,0.3,37.7,0.3z"/>
</g>
</svg>
