<?xml version="1.0" encoding="utf-8"?>
<!-- Generator: Adobe Illustrator 21.0.0, SVG Export Plug-In . SVG Version: 6.00 Build 0)  -->
<svg version="1.1" id="Layer_1" xmlns="http://www.w3.org/2000/svg" xmlns:xlink="http://www.w3.org/1999/xlink" x="0px" y="0px"
	 viewBox="0 0 484.5 111.2" style="enable-background:new 0 0 484.5 111.2;" xml:space="preserve">
<style type="text/css">
	.st0{fill:#34313F;}
</style>
<g>
	<g>
		<path class="st0" d="M135.4,53.2c7.3,0,12.2,3.3,15.2,7.4V2.2c0-1.1-1.3-1.8-2.2-1.1L76.3,53.8h1.9c7.5,0,11.3,4.8,11.3,10
			c0,4.1-2.1,7.1-5,8.4c-0.5,0.2-0.5,0.9,0,1.1c3.3,1.4,5.7,4.9,5.7,9.1c0,6-3.9,10.7-11.4,10.7H58.3c-0.4,0-0.8-0.3-0.8-0.8V67.5
			L3.8,106.8c-0.9,0.8-0.5,2.2,0.7,2.2h144.8c0.7,0,1.2-0.5,1.2-1.2V87.9c-3.9,3.6-9,5.9-15.2,5.9c-11.6,0-21-8-21-20.3
			C114.4,61.1,123.9,53.2,135.4,53.2z M106.7,92.4c0,0.4-0.3,0.7-0.7,0.7h-6.9c-0.4,0-0.7-0.3-0.7-0.7V54.5c0-0.4,0.3-0.7,0.7-0.7
			h6.9c0.4,0,0.7,0.3,0.7,0.7V92.4z"/>
	</g>
	<path class="st0" d="M66.7,69.4h9.7c2.8,0,4.6-1.6,4.6-4.1c0-2.4-1.8-4.1-4.6-4.1H66.3c-0.2,0-0.4,0.2-0.4,0.4v7.1
		C65.9,69.1,66.3,69.4,66.7,69.4z"/>
	<path class="st0" d="M66.7,85.8h10.1c3.1,0,5-1.7,5-4.5c0-2.5-1.8-4.5-5-4.5H66.7c-0.4,0-0.8,0.3-0.8,0.8V85
		C65.9,85.4,66.3,85.8,66.7,85.8z"/>
	<path class="st0" d="M144.3,65.1c-1.9-2.5-5.1-4.5-8.9-4.5c-7.2,0-12.4,5.5-12.4,12.9s5.2,12.9,12.4,12.9c3.3,0,6.4-1.4,8.1-2.8
		c0.1-0.1,0.2-0.3,0.2-0.5v-3.8c0-0.3-0.3-0.6-0.6-0.6h-8.9c-0.5,0-0.8-0.4-0.8-0.8v-5.6c0-0.5,0.4-0.8,0.8-0.8h16.5v-8.9l-5.3,2.9
		C145,65.6,144.5,65.4,144.3,65.1z"/>
	<path class="st0" d="M156.8,73.5c0-12.1,8.7-20.3,19.9-20.3c7.3,0,12,3.7,14.8,8.2c0.2,0.3,0.1,0.8-0.3,0.9l-4.5,2.4
		c-0.3,0.2-0.7,0.1-0.8-0.2c-1.9-3-5.4-5.2-9.2-5.2c-7.5,0-13.1,5.9-13.1,14.2c0,8.2,5.6,14.2,13.1,14.2c3.8,0,7.3-2.2,9.2-5.2
		c0.2-0.3,0.5-0.4,0.8-0.2l4.5,2.3c0.4,0.2,0.5,0.6,0.3,1c-2.9,4.5-7.6,8.3-14.8,8.3C165.5,93.8,156.8,85.5,156.8,73.5z"/>
	<path class="st0" d="M195.4,73.5c0-9.8,5.6-17.4,14-19.6c14.3-3.8,27.4,9.6,24.3,24.5c-1.9,9.2-9.2,15.5-18.9,15.5
		C203.4,93.8,195.4,85.2,195.4,73.5z M227.3,73.5c0-8.1-5-14.2-12.6-14.2c-7.7,0-12.6,6.1-12.6,14.2c0,8.1,4.9,14.2,12.6,14.2
		S227.3,81.5,227.3,73.5z"/>
	<path class="st0" d="M274.9,92.6V62.7L263,92.8c0,0.1-0.2,0.2-0.3,0.2h-2.5c-0.1,0-0.3-0.1-0.3-0.2l-12-30.1v29.9
		c0,0.3-0.2,0.5-0.5,0.5h-6c-0.3,0-0.5-0.2-0.5-0.5V54.2c0-0.3,0.2-0.5,0.5-0.5h8.6c0.4,0,0.7,0.2,0.9,0.6l10.5,27l10.4-27
		c0.1-0.4,0.5-0.6,0.9-0.6h8.6c0.3,0,0.5,0.2,0.5,0.5v38.4c0,0.3-0.2,0.5-0.5,0.5h-6C275.2,93.1,274.9,92.9,274.9,92.6z"/>
	<path class="st0" d="M342.9,92.4V54.5c0-0.4,0.3-0.7,0.7-0.7h25.5c0.4,0,0.7,0.3,0.7,0.7v4.6c0,0.4-0.3,0.7-0.7,0.7h-18.6
		c-0.4,0-0.7,0.3-0.7,0.7v8.7c0,0.4,0.3,0.7,0.7,0.7h18.2c0.4,0,0.7,0.3,0.7,0.7v4.6c0,0.4-0.3,0.7-0.7,0.7h-18.2
		c-0.4,0-0.7,0.3-0.7,0.7v9.5c0,0.4,0.3,0.7,0.7,0.7h18.6c0.4,0,0.7,0.3,0.7,0.7v4.6c0,0.4-0.3,0.7-0.7,0.7h-25.5
		C343.2,93.1,342.9,92.8,342.9,92.4z"/>
	<path class="st0" d="M401.8,92.7l-8.3-14c-0.1-0.2-0.4-0.3-0.6-0.3h-5.8c-0.4,0-0.7,0.3-0.7,0.7v13.3c0,0.4-0.3,0.7-0.7,0.7h-5.4
		c-0.4,0-0.7-0.3-0.7-0.7V54.5c0-0.4,0.3-0.7,0.7-0.7h16.6c7.8,0,12.9,5,12.9,12.3c0,6.5-4,10.2-8.4,11.3c-0.5,0.1-0.7,0.6-0.5,1.1
		c1.6,2.6,6.6,10.6,8.5,13.5c0.3,0.5,0,1.1-0.6,1.1h-6.3C402.2,93.1,402,93,401.8,92.7z M402.7,66c0-3.8-2.8-6.2-6.7-6.2h-8.8
		c-0.4,0-0.7,0.3-0.7,0.7v11.1c0,0.4,0.3,0.7,0.7,0.7h8.8C399.9,72.3,402.7,69.9,402.7,66z"/>
	<path class="st0" d="M456.4,92.4V54.5c0-0.4,0.3-0.7,0.7-0.7h25.6c0.4,0,0.7,0.3,0.7,0.7v4.7c0,0.4-0.3,0.7-0.7,0.7H464
		c-0.4,0-0.7,0.3-0.7,0.7v8.8c0,0.4,0.3,0.7,0.7,0.7h18.2c0.4,0,0.7,0.3,0.7,0.7v4.7c0,0.4-0.3,0.7-0.7,0.7H464
		c-0.4,0-0.7,0.3-0.7,0.7v9.6c0,0.4,0.3,0.7,0.7,0.7h18.7c0.4,0,0.7,0.3,0.7,0.7v4.7c0,0.4-0.3,0.7-0.7,0.7h-25.6
		C456.7,93.1,456.4,92.8,456.4,92.4z"/>
	<path class="st0" d="M414.8,73.3c0-12.1,8.7-20.3,19.9-20.3c7.3,0,12,3.7,14.8,8.2c0.2,0.3,0.1,0.8-0.3,0.9l-4.5,2.4
		c-0.3,0.2-0.7,0.1-0.8-0.2c-1.9-3-5.4-5.2-9.2-5.2c-7.5,0-13.1,5.9-13.1,14.2c0,8.2,5.6,14.2,13.1,14.2c3.8,0,7.3-2.2,9.2-5.2
		c0.2-0.3,0.5-0.4,0.8-0.2l4.5,2.3c0.4,0.2,0.5,0.6,0.3,1c-2.9,4.5-7.6,8.3-14.8,8.3C423.5,93.6,414.8,85.4,414.8,73.3z"/>
	<path class="st0" d="M325.9,92.6V62.7L314,92.8c0,0.1-0.2,0.2-0.3,0.2h-2.5c-0.1,0-0.3-0.1-0.3-0.2l-12-30.1v29.9
		c0,0.3-0.2,0.5-0.5,0.5h-6c-0.3,0-0.5-0.2-0.5-0.5V54.2c0-0.3,0.2-0.5,0.5-0.5h8.6c0.4,0,0.7,0.2,0.9,0.6l10.5,27l10.4-27
		c0.1-0.4,0.5-0.6,0.9-0.6h8.6c0.3,0,0.5,0.2,0.5,0.5v38.4c0,0.3-0.2,0.5-0.5,0.5h-6C326.1,93.1,325.9,92.9,325.9,92.6z"/>
</g>
</svg>
