<?xml version="1.0" encoding="utf-8"?>
<!-- Generator: Adobe Illustrator 21.0.0, SVG Export Plug-In . SVG Version: 6.00 Build 0)  -->
<svg version="1.1"
	 id="Layer_1" inkscape:version="0.92.2 (5c3e80d, 2017-08-06)" sodipodi:docname="firebase-ar21.svg" xmlns:cc="http://creativecommons.org/ns#" xmlns:dc="http://purl.org/dc/elements/1.1/" xmlns:inkscape="http://www.inkscape.org/namespaces/inkscape" xmlns:rdf="http://www.w3.org/1999/02/22-rdf-syntax-ns#" xmlns:sodipodi="http://sodipodi.sourceforge.net/DTD/sodipodi-0.dtd" xmlns:svg="http://www.w3.org/2000/svg"
	 xmlns="http://www.w3.org/2000/svg" xmlns:xlink="http://www.w3.org/1999/xlink" x="0px" y="0px" viewBox="0 0 161.7 32.8"
	 style="enable-background:new 0 0 161.7 32.8;" xml:space="preserve">
<style type="text/css">
	.st0{fill:#FFC24A;}
	.st1{fill:#FEA612;}
	.st2{fill:#F4BD62;}
	.st3{fill:#F6820C;}
	.st4{fill:#FDE068;}
	.st5{fill:#FCCA3F;}
	.st6{fill:#EEAB37;}
	.st7{fill:#63666A;}
</style>
<sodipodi:namedview  bordercolor="#666666" borderopacity="1" gridtolerance="10" guidetolerance="10" id="namedview69" inkscape:current-layer="Layer_1" inkscape:cx="48.348424" inkscape:cy="-36.979339" inkscape:pageopacity="0" inkscape:pageshadow="2" inkscape:window-height="1001" inkscape:window-maximized="1" inkscape:window-width="1920" inkscape:window-x="-9" inkscape:window-y="-9" inkscape:zoom="2.2075702" objecttolerance="10" pagecolor="#ffffff" showgrid="false">
	</sodipodi:namedview>
<g id="g48" transform="matrix(0.09020347,0,0,0.09020347,11.921255,15.418666)">
	<path id="path20" inkscape:connector-curvature="0" class="st0" d="M-125.4,120.8l2.1-3L-22.8-72.7l0.2-2l-44.3-83.1
		c-3.7-7-14.1-5.2-15.4,2.6L-125.4,120.8z"/>
	<g id="g28">
		<g id="g23">
			<path id="path-1" inkscape:connector-curvature="0" class="st1" d="M-124.1,118.5l1.6-3.1l99.4-188.5l-44.1-83.5
				c-3.7-6.9-13-5.1-14.2,2.6L-124.1,118.5z"/>
		</g>
		<g id="g26">
			<path id="path-1_1_" inkscape:connector-curvature="0" class="st1" d="M-124.1,118.5l1.6-3.1l99.4-188.5l-44.1-83.5
				c-3.7-6.9-13-5.1-14.2,2.6L-124.1,118.5z"/>
		</g>
	</g>
	<path id="path30" inkscape:connector-curvature="0" class="st2" d="M9.6-11.8l33-33.8l-33-62.9c-3.1-6-11.9-6-15,0L-23-74.9v2.9
		L9.6-11.8z"/>
	<g id="g38">
		<g id="g33">
			<path id="path-3" inkscape:connector-curvature="0" class="st1" d="M9-13.2L41-46L9-107c-3-5.8-10.4-6.4-13.4-0.6l-17.7,34.1
				l-0.5,1.7L9-13.2z"/>
		</g>
		<g id="g36">
			<path id="path-3_1_" inkscape:connector-curvature="0" class="st1" d="M9-13.2L41-46L9-107c-3-5.8-10.4-6.4-13.4-0.6l-17.7,34.1
				l-0.5,1.7L9-13.2z"/>
		</g>
	</g>
	<polygon id="polygon40" class="st3" points="-22.9,-75.1 -125.4,120.8 -124.4,119.8 -120.9,118.4 7.6,-9.6 9.2,-14 	"/>
	<path id="path42" inkscape:connector-curvature="0" class="st4" d="M13.7,185.4L130,120.5L96.8-84c-1-6.4-8.9-8.9-13.5-4.3
		l-208.7,209.1l115.6,64.5C-2.5,189.4,6.4,189.4,13.7,185.4"/>
	<path id="path44" inkscape:connector-curvature="0" class="st5" d="M129,120L96-83c-1-6.4-7.6-9-12.1-4.4l-208,207.8l114.3,63.9
		c7.3,4,16.1,4.1,23.3,0L129,120z"/>
	<path id="path46" inkscape:connector-curvature="0" class="st6" d="M13.7,183.4c-7.3,4.1-16.2,4.1-23.5,0l-114.7-63.6l-0.9,1
		l115.6,64.5c7.3,4.1,16.2,4.1,23.5,0L130,120.5l-0.3-1.8L13.7,183.4z"/>
</g>
<g>
	<g>
		<path class="st7" d="M77.1,23.4c-0.8,0-1.5,0-2.2,0c-0.1,0-0.2-0.2-0.2-0.3c-0.1-0.2-0.1-0.4-0.1-0.7c-0.1,0.1-0.2,0.2-0.3,0.3
			c-1.6,1.5-4,1.2-5.3-0.6c-0.6-0.8-0.9-1.8-1-2.8c-0.1-1.4-0.1-2.8,0.6-4.1c0.9-1.8,2.8-2.6,4.6-1.9c0.4,0.2,0.8,0.5,1.2,0.7
			c0-0.3,0-0.7,0-1c0-1.2,0-2.4,0-3.6c0-0.2,0-0.4,0.3-0.4c0.8,0,1.6,0,2.4,0C77.1,13.7,77.1,18.5,77.1,23.4z M74.4,18.3
			c0-0.6,0-1.2,0-1.7c0-0.2,0-0.4-0.1-0.6c-0.7-1.1-2.6-1.1-3.1,0.2c-0.6,1.3-0.6,2.8,0,4.1c0.5,1.2,2.2,1.4,3,0.4
			c0.2-0.2,0.3-0.5,0.3-0.8C74.4,19.4,74.4,18.8,74.4,18.3z"/>
		<path class="st7" d="M39.9,14.3c-0.9,0-1.8,0-2.7,0c-0.1,0-0.2-0.2-0.2-0.3c-0.2-1.4-0.8-2-2.1-2.2c-1.6-0.1-2.5,0.4-3,1.8
			c-0.4,1.3-0.4,2.7-0.3,4c0,0.6,0.1,1.2,0.3,1.7c0.4,1.3,1.2,1.9,2.5,1.9c1.5,0,2.3-0.6,2.6-2.1c0-0.3,0.1-0.3,0.4-0.3
			c0.7,0,1.4,0,2.1,0c0.3,0,0.4,0.1,0.3,0.4c-0.3,2.4-1.9,3.9-4.3,4.3c-1.8,0.3-3.5,0.1-4.9-1.2c-1.2-1-1.8-2.4-1.9-4
			c-0.2-1.6-0.2-3.1,0.2-4.7c0.7-2.6,2.8-4.2,5.5-4.2c1.5,0,2.9,0.4,4,1.5C39.4,11.9,39.8,13,39.9,14.3z"/>
		<path class="st7" d="M84.2,23.4c0-4.6,0-9.1,0-13.7c3,0,5.9,0,8.9,0c0,0.7,0,1.4,0,2.2c-2,0-4,0-6,0c0,1.2,0,2.3,0,3.5
			c1.8,0,3.6,0,5.4,0c0,0.7,0,1.4,0,2.1c0,0.3-0.2,0.3-0.4,0.3c-1.5,0-3,0-4.5,0c-0.2,0-0.3,0-0.5,0c0,0.2,0,0.4,0,0.5
			c0,1.5,0,3.1,0,4.6c0,0.4-0.1,0.5-0.5,0.5C85.8,23.4,85,23.4,84.2,23.4z"/>
		<path class="st7" d="M108.9,19.2c0.1,0.9,0.5,1.6,1.4,1.9c1.3,0.5,2.5,0.2,3.5-0.9c0.4,0.5,0.9,1,1.3,1.5c-0.7,1-1.6,1.5-2.7,1.7
			c-2.2,0.4-4.1,0-5.5-1.9c-0.7-0.9-0.9-2-0.9-3.2c0-1.3,0.3-2.6,1.1-3.6c1.1-1.5,3.2-2.1,5.1-1.6c1.7,0.5,2.8,1.9,3,3.8
			c0.1,0.6,0,1.2,0.1,1.8c0,0.3-0.1,0.4-0.4,0.4c-1.8,0-3.7,0-5.5,0C109.3,19.2,109.2,19.2,108.9,19.2z M112.7,17.3
			c0.1-1.3-0.6-2.1-1.8-2c-1.1,0-1.9,1-1.8,2C110.2,17.3,111.4,17.3,112.7,17.3z"/>
		<path class="st7" d="M159.7,19.2c-2.2,0-4.3,0-6.5,0c0.1,0.9,0.5,1.6,1.3,1.9c1.4,0.5,2.5,0.2,3.6-0.9c0.4,0.5,0.8,0.9,1.2,1.3
			c0.1,0.1,0,0.3,0,0.4c-0.7,0.8-1.5,1.3-2.5,1.5c-2.2,0.4-4.1-0.1-5.4-1.9c-0.5-0.6-0.7-1.3-0.8-2.1c-0.2-1.9,0-3.8,1.5-5.2
			c1.4-1.3,3.2-1.5,4.9-0.9c1.7,0.6,2.5,1.9,2.7,3.7C159.7,17.7,159.7,18.4,159.7,19.2z M157,17.3c0-0.7-0.1-1.4-0.8-1.8
			c-0.6-0.4-1.3-0.4-1.9,0c-0.7,0.4-0.9,1.1-1,1.8C154.5,17.3,155.7,17.3,157,17.3z"/>
		<path class="st7" d="M63.5,13.2c0.9,0,1.7,0,2.6,0c0.1,0,0.2,0.2,0.2,0.4c0,0.7,0,1.5,0,2.2c0,2.3,0,4.7,0,7c0,0.2,0,0.4,0,0.6
			c-0.9,0-1.7,0-2.6,0c0-0.3-0.1-0.6-0.1-0.9c-0.8,0.9-1.8,1.2-2.9,1.1c-1.7,0-3-1.1-3.1-2.8c-0.1-2.5,0-5,0-7.6c0.6,0,1.2,0,1.8,0
			c0.9,0,0.9,0,0.9,0.9c0,1.9,0,3.8,0,5.6c0,1,0.3,1.4,0.9,1.6c0.8,0.2,1.8,0,2.3-0.7c0.1-0.1,0.1-0.4,0.1-0.6c0-2.1,0-4.2,0-6.3
			C63.5,13.6,63.5,13.4,63.5,13.2z"/>
		<path class="st7" d="M142.3,18.2c0,1.7-0.4,3.2-1.7,4.3c-1.5,1.2-3.3,1.4-5.1,0.7c-1.7-0.6-2.5-2-2.8-3.7
			c-0.2-1.1-0.1-2.3,0.2-3.4c0.7-2.1,2.6-3.3,5-3.1c2.5,0.2,4.2,2,4.4,4.5C142.3,17.8,142.3,18.1,142.3,18.2z M139.6,18.2
			c-0.1-0.5-0.2-1.1-0.4-1.7c-0.3-0.9-1-1.3-1.8-1.3c-0.8,0-1.5,0.5-1.8,1.3c-0.4,1.1-0.4,2.3,0,3.4c0.3,0.9,1,1.4,1.8,1.4
			c1,0,1.6-0.5,1.9-1.5C139.5,19.3,139.5,18.8,139.6,18.2z"/>
		<path class="st7" d="M46.3,18.3c0-1.6,0.3-3,1.5-4.1c1.5-1.4,3.3-1.6,5.1-0.9c1.8,0.6,2.7,2,2.9,3.8c0.2,1.5,0.2,3-0.7,4.3
			c-1.1,1.7-2.7,2.3-4.6,2.1c-3-0.3-4.2-2.7-4.2-4.8C46.3,18.6,46.3,18.5,46.3,18.3z M53.3,18.2c-0.2-0.6-0.3-1.3-0.5-2
			c-0.3-0.7-1-1-1.8-1c-0.8,0-1.3,0.4-1.6,1.1c-0.5,1.2-0.5,2.5,0,3.8c0.3,0.8,0.9,1.2,1.7,1.2c0.9,0,1.6-0.4,1.9-1.2
			C53,19.5,53.1,18.9,53.3,18.2z"/>
		<path class="st7" d="M116.4,20.1c0.8,0,1.6,0,2.4,0c0.1,0,0.2,0.2,0.2,0.3c0.4,1.1,2,1.6,3,0.9c0.6-0.4,0.5-1.3-0.2-1.6
			c-0.6-0.2-1.2-0.3-1.7-0.5c-0.6-0.2-1.3-0.4-1.9-0.7c-1.9-1-2-3.3-0.3-4.6c1.6-1.3,4.7-1.2,6.3,0.2c0.6,0.6,1,1.4,0.9,2.2
			c-0.9,0-1.7,0-2.6,0c0,0,0-0.1-0.1-0.1c-0.3-1.1-1.2-1.5-2.3-1.1c-0.4,0.2-0.7,0.5-0.7,0.9c0,0.4,0.2,0.7,0.6,0.9
			c0.7,0.2,1.4,0.4,2,0.6c0.6,0.2,1.2,0.4,1.7,0.7c1.6,0.9,1.9,3.1,0.5,4.4c-1.8,1.7-5.6,1.5-7.2-0.4
			C116.7,21.5,116.4,20.9,116.4,20.1z"/>
		<path class="st7" d="M131.8,15.2c-0.6,0-1.2,0-1.8,0c0,0.3,0,0.6,0,0.9c0,1.3,0,2.5,0,3.8c0,1.2,0.3,1.5,1.5,1.3
			c0.1,0,0.2,0,0.4,0c0,0.7,0,1.3,0,1.9c0,0.1-0.1,0.2-0.2,0.2c-0.9,0.3-1.8,0.3-2.7,0c-1-0.3-1.6-1.3-1.6-2.5c0-1.7,0-3.3,0-5
			c0-0.2,0-0.4,0-0.6c-0.4,0-0.8,0-1.1,0c-0.3,0-0.4-0.1-0.4-0.4c0-0.4,0-0.9,0-1.3c0-0.3,0.1-0.4,0.4-0.4c0.3,0,0.7,0,1.1,0
			c0-0.8,0-1.6,0-2.5c0.9,0,1.8,0,2.8,0c0,0.6,0,1.3,0,1.9c0,0.4,0.1,0.5,0.5,0.5c1.2,0,1.2,0,1.2,1.2
			C131.8,14.6,131.8,14.9,131.8,15.2z"/>
		<path class="st7" d="M44.4,23.4c-0.9,0-1.8,0-2.7,0c0-0.2,0-0.3,0-0.5c0-4.5,0-9,0-13.4c0-0.4,0.1-0.5,0.5-0.5c0.7,0,1.5,0,2.2,0
			C44.4,13.8,44.4,18.5,44.4,23.4z"/>
		<path class="st7" d="M146.7,23.4c-0.9,0-1.7,0-2.5,0c-0.1,0-0.2-0.1-0.2-0.2c0-0.1,0-0.2,0-0.3c0-3,0-6.1,0-9.1
			c0-0.4,0.1-0.6,0.6-0.5c0.5,0,1.1,0,1.6,0c0.4,0,0.5,0.1,0.5,0.5c0,0.2,0,0.4,0,0.6c0.2-0.2,0.3-0.3,0.4-0.5
			c0.7-0.7,1.5-0.9,2.4-0.7c0.1,0,0.3,0.2,0.3,0.3c0,0.8,0,1.6,0,2.4c-0.4,0-0.8,0-1.1,0c-0.4,0-0.8,0.1-1.1,0.2
			c-0.5,0.2-0.8,0.6-0.8,1.2c0,1.9,0,3.8,0,5.7C146.7,23,146.7,23.1,146.7,23.4z"/>
		<path class="st7" d="M102.4,23.4c-0.9,0-1.8,0-2.7,0c0-3.4,0-6.7,0-10.1c0.8,0,1.7,0,2.6,0c0,0.3,0.1,0.6,0.1,1
			c0.2-0.2,0.3-0.4,0.4-0.5c0.7-0.7,1.4-0.9,2.4-0.7c0.1,0,0.3,0.2,0.3,0.2c0,0.8,0,1.6,0,2.4c-0.4,0-0.8,0-1.2,0
			c-0.4,0-0.8,0.1-1.1,0.2c-0.5,0.2-0.8,0.6-0.8,1.2c0,1.9,0,3.8,0,5.7C102.4,23,102.4,23.2,102.4,23.4z"/>
		<path class="st7" d="M94.7,13.2c0.9,0,1.8,0,2.7,0c0,0.2,0,0.3,0,0.5c0,3.1,0,6.1,0,9.2c0,0.4-0.1,0.5-0.5,0.5c-0.7,0-1.5,0-2.2,0
			C94.7,20,94.7,16.6,94.7,13.2z"/>
	</g>
	<path class="st7" d="M96.1,12c-0.9,0-1.5-0.6-1.5-1.4c0-0.9,0.6-1.4,1.5-1.4c0.9,0,1.5,0.6,1.5,1.4C97.6,11.4,97,12,96.1,12z"/>
</g>
</svg>
