<?xml version="1.0" encoding="utf-8"?>
<!-- Generator: Adobe Illustrator 21.0.0, SVG Export Plug-In . SVG Version: 6.00 Build 0)  -->
<svg version="1.1"
	 id="Layer_1" inkscape:version="0.92.2 (5c3e80d, 2017-08-06)" sodipodi:docname="firebase-ar21.svg" xmlns:cc="http://creativecommons.org/ns#" xmlns:dc="http://purl.org/dc/elements/1.1/" xmlns:inkscape="http://www.inkscape.org/namespaces/inkscape" xmlns:rdf="http://www.w3.org/1999/02/22-rdf-syntax-ns#" xmlns:sodipodi="http://sodipodi.sourceforge.net/DTD/sodipodi-0.dtd" xmlns:svg="http://www.w3.org/2000/svg"
	 xmlns="http://www.w3.org/2000/svg" xmlns:xlink="http://www.w3.org/1999/xlink" x="0px" y="0px" viewBox="0 0 98.5 32.8"
	 style="enable-background:new 0 0 98.5 32.8;" xml:space="preserve">
<style type="text/css">
	.st0{fill:#FFC24A;}
	.st1{fill:#FEA612;}
	.st2{fill:#F4BD62;}
	.st3{fill:#F6820C;}
	.st4{fill:#FDE068;}
	.st5{fill:#FCCA3F;}
	.st6{fill:#EEAB37;}
	.st7{fill:#63666A;}
</style>
<sodipodi:namedview  bordercolor="#666666" borderopacity="1" gridtolerance="10" guidetolerance="10" id="namedview69" inkscape:current-layer="Layer_1" inkscape:cx="48.348424" inkscape:cy="-36.979339" inkscape:pageopacity="0" inkscape:pageshadow="2" inkscape:window-height="1001" inkscape:window-maximized="1" inkscape:window-width="1920" inkscape:window-x="-9" inkscape:window-y="-9" inkscape:zoom="2.2075702" objecttolerance="10" pagecolor="#ffffff" showgrid="false">
	</sodipodi:namedview>
<g id="g48" transform="matrix(0.09020347,0,0,0.09020347,11.921255,15.418666)">
	<path id="path20" inkscape:connector-curvature="0" class="st0" d="M-125.4,120.8l2.1-3L-22.8-72.7l0.2-2l-44.3-83.1
		c-3.7-7-14.1-5.2-15.4,2.6L-125.4,120.8z"/>
	<g id="g28">
		<g id="g23">
			<path id="path-1" inkscape:connector-curvature="0" class="st1" d="M-124.1,118.5l1.6-3.1l99.4-188.5l-44.1-83.5
				c-3.7-6.9-13-5.1-14.2,2.6L-124.1,118.5z"/>
		</g>
		<g id="g26">
			<path id="path-1_1_" inkscape:connector-curvature="0" class="st1" d="M-124.1,118.5l1.6-3.1l99.4-188.5l-44.1-83.5
				c-3.7-6.9-13-5.1-14.2,2.6L-124.1,118.5z"/>
		</g>
	</g>
	<path id="path30" inkscape:connector-curvature="0" class="st2" d="M9.6-11.8l33-33.8l-33-62.9c-3.1-6-11.9-6-15,0L-23-74.9v2.9
		L9.6-11.8z"/>
	<g id="g38">
		<g id="g33">
			<path id="path-3" inkscape:connector-curvature="0" class="st1" d="M9-13.2L41-46L9-107c-3-5.8-10.4-6.4-13.4-0.6l-17.7,34.1
				l-0.5,1.7L9-13.2z"/>
		</g>
		<g id="g36">
			<path id="path-3_1_" inkscape:connector-curvature="0" class="st1" d="M9-13.2L41-46L9-107c-3-5.8-10.4-6.4-13.4-0.6l-17.7,34.1
				l-0.5,1.7L9-13.2z"/>
		</g>
	</g>
	<polygon id="polygon40" class="st3" points="-22.9,-75.1 -125.4,120.8 -124.4,119.8 -120.9,118.4 7.6,-9.6 9.2,-14 	"/>
	<path id="path42" inkscape:connector-curvature="0" class="st4" d="M13.7,185.4L130,120.5L96.8-84c-1-6.4-8.9-8.9-13.5-4.3
		l-208.7,209.1l115.6,64.5C-2.5,189.4,6.4,189.4,13.7,185.4"/>
	<path id="path44" inkscape:connector-curvature="0" class="st5" d="M129,120L96-83c-1-6.4-7.6-9-12.1-4.4l-208,207.8l114.3,63.9
		c7.3,4,16.1,4.1,23.3,0L129,120z"/>
	<path id="path46" inkscape:connector-curvature="0" class="st6" d="M13.7,183.4c-7.3,4.1-16.2,4.1-23.5,0l-114.7-63.6l-0.9,1
		l115.6,64.5c7.3,4.1,16.2,4.1,23.5,0L130,120.5l-0.3-1.8L13.7,183.4z"/>
</g>
<g id="g66" transform="matrix(0.07885571,0,0,0.07885571,13.091039,17.01888)">
	<path id="path50" inkscape:connector-curvature="0" class="st7" d="M234.6,83.5H212V-92.6h102.9V-71h-80.2v57.8H307V8h-72.3
		L234.6,83.5L234.6,83.5z"/>
	<path id="path52" inkscape:connector-curvature="0" class="st7" d="M354.5-67.3c-3.1,3.1-6.9,4.7-11.3,4.7c-4.4,0-8.2-1.6-11.3-4.7
		c-3.1-3.1-4.7-6.9-4.7-11.3s1.6-8.2,4.7-11.3c3.1-3.1,6.9-4.7,11.3-4.7c4.4,0,8.2,1.6,11.3,4.7c3.1,3.1,4.7,6.9,4.7,11.3
		C359.2-74.2,357.6-70.4,354.5-67.3z M354.5,83.5h-22.6V-37h22.6V83.5z"/>
	<path id="path54" inkscape:connector-curvature="0" class="st7" d="M403.3,83.5h-22.6V-37h21.7v19.7h1c2.3-6.6,7-12,14.1-16.2
		c7.1-4.3,14.1-6.4,20.8-6.4c6.7,0,12.4,1,17,3l-8.6,21.2c-3-1.1-7-1.7-12.1-1.7c-8.2,0-15.5,3.2-21.8,9.7s-9.5,15-9.5,25.5V83.5
		L403.3,83.5z"/>
	<path id="path56" inkscape:connector-curvature="0" class="st7" d="M514.8,87.5c-18.2,0-33-6.1-44.4-18.2
		c-11.4-12.1-17.1-27.5-17.1-46c0-17.5,5.5-32.6,16.6-45.3s25.2-19,42.4-19c17.9,0,32.2,5.8,42.9,17.5
		c10.7,11.6,16.1,27.2,16.1,46.8l-0.2,4.2h-95.2c0.7,12.1,4.7,21.7,12.2,28.8s16.2,10.6,26.2,10.6c16.2,0,27.2-6.9,33-20.7l20.2,8.4
		c-4,9.3-10.5,17.1-19.5,23.4C539,84.3,527.9,87.5,514.8,87.5z M547.3,8.7c-0.5-6.9-3.7-13.4-9.5-19.7c-5.8-6.2-14.5-9.3-26-9.3
		c-8.4,0-15.6,2.6-21.8,7.9c-6.1,5.3-10.4,12.3-12.7,21.2L547.3,8.7L547.3,8.7z"/>
	<path id="path58" inkscape:connector-curvature="0" class="st7" d="M653.3,87.5c-9.2,0-17.4-2-24.7-5.9
		c-7.3-3.9-12.8-8.9-16.4-14.8h-1v16.7h-21.7V-92.6h22.6V-37l-1,16.7h1c3.6-5.9,9.1-10.8,16.4-14.8C635.8-39,644-41,653.2-41
		c15.6,0,29,6.1,40.4,18.5c11.3,12.3,17,27.6,17,45.8s-5.7,33.5-17,45.8C682.3,81.3,668.9,87.5,653.3,87.5z M649.6,66.8
		c10.5,0,19.5-4,27.1-11.9c7.5-8,11.3-18.5,11.3-31.6s-3.8-23.7-11.3-31.6c-7.5-8-16.6-11.9-27.1-11.9c-10.7,0-19.7,3.9-27.2,11.8
		C615-0.6,611.2,10,611.2,23.3s3.7,23.9,11.2,31.7C629.9,62.9,638.9,66.8,649.6,66.8z"/>
	<path id="path60" inkscape:connector-curvature="0" class="st7" d="M770.3,87.5c-12.8,0-23.5-3.7-32.1-11.1
		c-8.6-7.4-12.9-17.1-12.9-29.3c0-13.1,5.1-23.4,15.3-30.9C750.7,8.8,763.2,5,778.1,5c13.3,0,24.2,2.5,32.7,7.4V9
		c0-8.9-3-16-9.1-21.3c-6.1-5.3-13.5-8-22.4-8c-6.6,0-12.5,1.6-17.8,4.7c-5.3,3.1-9,7.4-10.9,12.8l-20.7-8.9
		c2.8-7.2,8.3-13.9,16.5-20.1c8.2-6.2,19-9.2,32.5-9.2c15.4,0,28.2,4.5,38.4,13.5c10.2,9,15.3,21.7,15.3,38.1v72.8h-21.7V66.8h-1
		C800.9,80.6,787.6,87.5,770.3,87.5z M774,66.8c9.3,0,17.8-3.5,25.5-10.5c7.6-7,11.4-15.2,11.4-24.7c-6.4-5.2-16-7.9-28.8-7.9
		c-11,0-19.3,2.4-24.9,7.1c-5.6,4.8-8.4,10.3-8.4,16.7c0,5.9,2.5,10.6,7.6,14C761.6,65.1,767.4,66.8,774,66.8z"/>
	<path id="path62" inkscape:connector-curvature="0" class="st7" d="M898.4,87.5c-13.5,0-24.6-3.3-33.3-9.8
		c-8.8-6.6-15.2-14.8-19.3-24.6l20.2-8.4c6.4,15.1,17.3,22.6,32.7,22.6c7.1,0,12.8-1.6,17.3-4.7c4.5-3.1,6.8-7.2,6.8-12.3
		c0-7.9-5.5-13.2-16.5-16l-24.4-5.9c-7.7-2-15-5.7-21.9-11.2c-6.9-5.5-10.3-12.9-10.3-22.3c0-10.7,4.7-19.3,14.1-26
		c9.4-6.6,20.6-10,33.6-10c10.7,0,20.2,2.4,28.5,7.3c8.4,4.8,14.4,11.8,18,20.8l-19.7,8.1c-4.4-10.7-13.6-16-27.6-16
		c-6.7,0-12.4,1.4-17,4.2c-4.6,2.8-6.9,6.6-6.9,11.3c0,6.9,5.3,11.6,16,14l23.9,5.7c11.3,2.6,19.7,7.1,25.1,13.5
		c5.4,6.4,8.1,13.6,8.1,21.7c0,10.8-4.4,19.9-13.3,27.1C923.7,83.9,912.3,87.5,898.4,87.5L898.4,87.5z"/>
	<path id="path64" inkscape:connector-curvature="0" class="st7" d="M1018.9,87.5c-18.2,0-33-6.1-44.4-18.2s-17.1-27.5-17.1-46
		c0-17.5,5.5-32.6,16.6-45.3c11.1-12.6,25.2-18.9,42.4-18.9c17.9,0,32.2,5.8,42.9,17.5c10.7,11.6,16.1,27.2,16.1,46.8l-0.2,4.2H980
		c0.7,12.1,4.7,21.7,12.2,28.8c7.5,7.1,16.2,10.6,26.2,10.6c16.2,0,27.2-6.9,33-20.7l20.2,8.4c-3.9,9.4-10.4,17.2-19.4,23.5
		C1043.1,84.3,1032,87.5,1018.9,87.5z M1051.4,8.7c-0.5-6.9-3.7-13.4-9.5-19.7c-5.8-6.2-14.5-9.3-26-9.3c-8.4,0-15.6,2.6-21.8,7.9
		C988-7.2,983.8-0.1,981.5,8.7H1051.4L1051.4,8.7z"/>
</g>
</svg>
